<?xml version="1.0" encoding="utf-8" standalone="no"?>
<!DOCTYPE svg PUBLIC "-//W3C//DTD SVG 1.1//EN"
  "http://www.w3.org/Graphics/SVG/1.1/DTD/svg11.dtd">
<!-- Created with matplotlib (http://matplotlib.org/) -->
<svg height="288pt" version="1.1" viewBox="0 0 432 288" width="432pt" xmlns="http://www.w3.org/2000/svg" xmlns:xlink="http://www.w3.org/1999/xlink">
 <defs>
  <style type="text/css">
*{stroke-linecap:butt;stroke-linejoin:round;stroke-miterlimit:100000;}
  </style>
 </defs>
 <g id="figure_1">
  <g id="patch_1">
   <path d="M 0 288 
L 432 288 
L 432 0 
L 0 0 
z
" style="fill:#ffffff;"/>
  </g>
  <g id="axes_1">
   <g id="patch_2">
    <path d="M 54 252 
L 388.8 252 
L 388.8 28.8 
L 54 28.8 
z
" style="fill:#eaeaf2;"/>
   </g>
   <g id="matplotlib.axis_1">
    <g id="xtick_1">
     <g id="line2d_1">
      <path clip-path="url(#pe2f160f949)" d="M 54 252 
L 54 28.8 
" style="fill:none;stroke:#ffffff;stroke-linecap:round;"/>
     </g>
     <g id="line2d_2">
      <defs>
       <path d="M 0 0 
L 0 0 
" id="m542b259ef2" style="stroke:#262626;"/>
      </defs>
      <g>
       <use style="fill:#262626;stroke:#262626;" x="54.0" xlink:href="#m542b259ef2" y="252.0"/>
      </g>
     </g>
     <g id="line2d_3">
      <g>
       <use style="fill:#262626;stroke:#262626;" x="54.0" xlink:href="#m542b259ef2" y="28.8"/>
      </g>
     </g>
     <g id="text_1">
      <!-- 0 -->
      <defs>
       <path d="M 4.15625 35.296875 
Q 4.15625 48 6.765625 55.734375 
Q 9.375 63.484375 14.515625 67.671875 
Q 19.671875 71.875 27.484375 71.875 
Q 33.25 71.875 37.59375 69.546875 
Q 41.9375 67.234375 44.765625 62.859375 
Q 47.609375 58.5 49.21875 52.21875 
Q 50.828125 45.953125 50.828125 35.296875 
Q 50.828125 22.703125 48.234375 14.96875 
Q 45.65625 7.234375 40.5 3 
Q 35.359375 -1.21875 27.484375 -1.21875 
Q 17.140625 -1.21875 11.234375 6.203125 
Q 4.15625 15.140625 4.15625 35.296875 
M 13.1875 35.296875 
Q 13.1875 17.671875 17.3125 11.828125 
Q 21.4375 6 27.484375 6 
Q 33.546875 6 37.671875 11.859375 
Q 41.796875 17.71875 41.796875 35.296875 
Q 41.796875 52.984375 37.671875 58.78125 
Q 33.546875 64.59375 27.390625 64.59375 
Q 21.34375 64.59375 17.71875 59.46875 
Q 13.1875 52.9375 13.1875 35.296875 
" id="ArialMT-30"/>
      </defs>
      <g style="fill:#262626;" transform="translate(51.21953125 266.1578125)scale(0.1 -0.1)">
       <use xlink:href="#ArialMT-30"/>
      </g>
     </g>
    </g>
    <g id="xtick_2">
     <g id="line2d_4">
      <path clip-path="url(#pe2f160f949)" d="M 120.96 252 
L 120.96 28.8 
" style="fill:none;stroke:#ffffff;stroke-linecap:round;"/>
     </g>
     <g id="line2d_5">
      <g>
       <use style="fill:#262626;stroke:#262626;" x="120.96" xlink:href="#m542b259ef2" y="252.0"/>
      </g>
     </g>
     <g id="line2d_6">
      <g>
       <use style="fill:#262626;stroke:#262626;" x="120.96" xlink:href="#m542b259ef2" y="28.8"/>
      </g>
     </g>
     <g id="text_2">
      <!-- 200 -->
      <defs>
       <path d="M 50.34375 8.453125 
L 50.34375 0 
L 3.03125 0 
Q 2.9375 3.171875 4.046875 6.109375 
Q 5.859375 10.9375 9.828125 15.625 
Q 13.8125 20.3125 21.34375 26.46875 
Q 33.015625 36.03125 37.109375 41.625 
Q 41.21875 47.21875 41.21875 52.203125 
Q 41.21875 57.421875 37.46875 61 
Q 33.734375 64.59375 27.734375 64.59375 
Q 21.390625 64.59375 17.578125 60.78125 
Q 13.765625 56.984375 13.71875 50.25 
L 4.6875 51.171875 
Q 5.609375 61.28125 11.65625 66.578125 
Q 17.71875 71.875 27.9375 71.875 
Q 38.234375 71.875 44.234375 66.15625 
Q 50.25 60.453125 50.25 52 
Q 50.25 47.703125 48.484375 43.546875 
Q 46.734375 39.40625 42.65625 34.8125 
Q 38.578125 30.21875 29.109375 22.21875 
Q 21.1875 15.578125 18.9375 13.203125 
Q 16.703125 10.84375 15.234375 8.453125 
z
" id="ArialMT-32"/>
      </defs>
      <g style="fill:#262626;" transform="translate(112.61859375 266.1578125)scale(0.1 -0.1)">
       <use xlink:href="#ArialMT-32"/>
       <use x="55.615234375" xlink:href="#ArialMT-30"/>
       <use x="111.23046875" xlink:href="#ArialMT-30"/>
      </g>
     </g>
    </g>
    <g id="xtick_3">
     <g id="line2d_7">
      <path clip-path="url(#pe2f160f949)" d="M 187.92 252 
L 187.92 28.8 
" style="fill:none;stroke:#ffffff;stroke-linecap:round;"/>
     </g>
     <g id="line2d_8">
      <g>
       <use style="fill:#262626;stroke:#262626;" x="187.92" xlink:href="#m542b259ef2" y="252.0"/>
      </g>
     </g>
     <g id="line2d_9">
      <g>
       <use style="fill:#262626;stroke:#262626;" x="187.92" xlink:href="#m542b259ef2" y="28.8"/>
      </g>
     </g>
     <g id="text_3">
      <!-- 400 -->
      <defs>
       <path d="M 32.328125 0 
L 32.328125 17.140625 
L 1.265625 17.140625 
L 1.265625 25.203125 
L 33.9375 71.578125 
L 41.109375 71.578125 
L 41.109375 25.203125 
L 50.78125 25.203125 
L 50.78125 17.140625 
L 41.109375 17.140625 
L 41.109375 0 
z
M 32.328125 25.203125 
L 32.328125 57.46875 
L 9.90625 25.203125 
z
" id="ArialMT-34"/>
      </defs>
      <g style="fill:#262626;" transform="translate(179.57859375 266.1578125)scale(0.1 -0.1)">
       <use xlink:href="#ArialMT-34"/>
       <use x="55.615234375" xlink:href="#ArialMT-30"/>
       <use x="111.23046875" xlink:href="#ArialMT-30"/>
      </g>
     </g>
    </g>
    <g id="xtick_4">
     <g id="line2d_10">
      <path clip-path="url(#pe2f160f949)" d="M 254.88 252 
L 254.88 28.8 
" style="fill:none;stroke:#ffffff;stroke-linecap:round;"/>
     </g>
     <g id="line2d_11">
      <g>
       <use style="fill:#262626;stroke:#262626;" x="254.88" xlink:href="#m542b259ef2" y="252.0"/>
      </g>
     </g>
     <g id="line2d_12">
      <g>
       <use style="fill:#262626;stroke:#262626;" x="254.88" xlink:href="#m542b259ef2" y="28.8"/>
      </g>
     </g>
     <g id="text_4">
      <!-- 600 -->
      <defs>
       <path d="M 49.75 54.046875 
L 41.015625 53.375 
Q 39.84375 58.546875 37.703125 60.890625 
Q 34.125 64.65625 28.90625 64.65625 
Q 24.703125 64.65625 21.53125 62.3125 
Q 17.390625 59.28125 14.984375 53.46875 
Q 12.59375 47.65625 12.5 36.921875 
Q 15.671875 41.75 20.265625 44.09375 
Q 24.859375 46.4375 29.890625 46.4375 
Q 38.671875 46.4375 44.84375 39.96875 
Q 51.03125 33.5 51.03125 23.25 
Q 51.03125 16.5 48.125 10.71875 
Q 45.21875 4.9375 40.140625 1.859375 
Q 35.0625 -1.21875 28.609375 -1.21875 
Q 17.625 -1.21875 10.6875 6.859375 
Q 3.765625 14.9375 3.765625 33.5 
Q 3.765625 54.25 11.421875 63.671875 
Q 18.109375 71.875 29.4375 71.875 
Q 37.890625 71.875 43.28125 67.140625 
Q 48.6875 62.40625 49.75 54.046875 
M 13.875 23.1875 
Q 13.875 18.65625 15.796875 14.5 
Q 17.71875 10.359375 21.1875 8.171875 
Q 24.65625 6 28.46875 6 
Q 34.03125 6 38.03125 10.484375 
Q 42.046875 14.984375 42.046875 22.703125 
Q 42.046875 30.125 38.078125 34.390625 
Q 34.125 38.671875 28.125 38.671875 
Q 22.171875 38.671875 18.015625 34.390625 
Q 13.875 30.125 13.875 23.1875 
" id="ArialMT-36"/>
      </defs>
      <g style="fill:#262626;" transform="translate(246.53859375 266.1578125)scale(0.1 -0.1)">
       <use xlink:href="#ArialMT-36"/>
       <use x="55.615234375" xlink:href="#ArialMT-30"/>
       <use x="111.23046875" xlink:href="#ArialMT-30"/>
      </g>
     </g>
    </g>
    <g id="xtick_5">
     <g id="line2d_13">
      <path clip-path="url(#pe2f160f949)" d="M 321.84 252 
L 321.84 28.8 
" style="fill:none;stroke:#ffffff;stroke-linecap:round;"/>
     </g>
     <g id="line2d_14">
      <g>
       <use style="fill:#262626;stroke:#262626;" x="321.84" xlink:href="#m542b259ef2" y="252.0"/>
      </g>
     </g>
     <g id="line2d_15">
      <g>
       <use style="fill:#262626;stroke:#262626;" x="321.84" xlink:href="#m542b259ef2" y="28.8"/>
      </g>
     </g>
     <g id="text_5">
      <!-- 800 -->
      <defs>
       <path d="M 17.671875 38.8125 
Q 12.203125 40.828125 9.5625 44.53125 
Q 6.9375 48.25 6.9375 53.421875 
Q 6.9375 61.234375 12.546875 66.546875 
Q 18.171875 71.875 27.484375 71.875 
Q 36.859375 71.875 42.578125 66.421875 
Q 48.296875 60.984375 48.296875 53.171875 
Q 48.296875 48.1875 45.671875 44.5 
Q 43.0625 40.828125 37.75 38.8125 
Q 44.34375 36.671875 47.78125 31.875 
Q 51.21875 27.09375 51.21875 20.453125 
Q 51.21875 11.28125 44.71875 5.03125 
Q 38.234375 -1.21875 27.640625 -1.21875 
Q 17.046875 -1.21875 10.546875 5.046875 
Q 4.046875 11.328125 4.046875 20.703125 
Q 4.046875 27.6875 7.59375 32.390625 
Q 11.140625 37.109375 17.671875 38.8125 
M 15.921875 53.71875 
Q 15.921875 48.640625 19.1875 45.40625 
Q 22.46875 42.1875 27.6875 42.1875 
Q 32.765625 42.1875 36.015625 45.375 
Q 39.265625 48.578125 39.265625 53.21875 
Q 39.265625 58.0625 35.90625 61.359375 
Q 32.5625 64.65625 27.59375 64.65625 
Q 22.5625 64.65625 19.234375 61.421875 
Q 15.921875 58.203125 15.921875 53.71875 
M 13.09375 20.65625 
Q 13.09375 16.890625 14.875 13.375 
Q 16.65625 9.859375 20.171875 7.921875 
Q 23.6875 6 27.734375 6 
Q 34.03125 6 38.125 10.046875 
Q 42.234375 14.109375 42.234375 20.359375 
Q 42.234375 26.703125 38.015625 30.859375 
Q 33.796875 35.015625 27.4375 35.015625 
Q 21.234375 35.015625 17.15625 30.90625 
Q 13.09375 26.8125 13.09375 20.65625 
" id="ArialMT-38"/>
      </defs>
      <g style="fill:#262626;" transform="translate(313.49859375 266.1578125)scale(0.1 -0.1)">
       <use xlink:href="#ArialMT-38"/>
       <use x="55.615234375" xlink:href="#ArialMT-30"/>
       <use x="111.23046875" xlink:href="#ArialMT-30"/>
      </g>
     </g>
    </g>
    <g id="xtick_6">
     <g id="line2d_16">
      <path clip-path="url(#pe2f160f949)" d="M 388.8 252 
L 388.8 28.8 
" style="fill:none;stroke:#ffffff;stroke-linecap:round;"/>
     </g>
     <g id="line2d_17">
      <g>
       <use style="fill:#262626;stroke:#262626;" x="388.8" xlink:href="#m542b259ef2" y="252.0"/>
      </g>
     </g>
     <g id="line2d_18">
      <g>
       <use style="fill:#262626;stroke:#262626;" x="388.8" xlink:href="#m542b259ef2" y="28.8"/>
      </g>
     </g>
     <g id="text_6">
      <!-- 1000 -->
      <defs>
       <path d="M 37.25 0 
L 28.46875 0 
L 28.46875 56 
Q 25.296875 52.984375 20.140625 49.953125 
Q 14.984375 46.921875 10.890625 45.40625 
L 10.890625 53.90625 
Q 18.265625 57.375 23.78125 62.296875 
Q 29.296875 67.234375 31.59375 71.875 
L 37.25 71.875 
z
" id="ArialMT-31"/>
      </defs>
      <g style="fill:#262626;" transform="translate(377.678125 266.1578125)scale(0.1 -0.1)">
       <use xlink:href="#ArialMT-31"/>
       <use x="55.615234375" xlink:href="#ArialMT-30"/>
       <use x="111.23046875" xlink:href="#ArialMT-30"/>
       <use x="166.845703125" xlink:href="#ArialMT-30"/>
      </g>
     </g>
    </g>
    <g id="text_7">
     <!-- Number of trials -->
     <defs>
      <path d="M 14.703125 0 
L 6.546875 0 
L 6.546875 71.578125 
L 15.328125 71.578125 
L 15.328125 46.046875 
Q 20.90625 53.03125 29.546875 53.03125 
Q 34.328125 53.03125 38.59375 51.09375 
Q 42.875 49.171875 45.625 45.671875 
Q 48.390625 42.1875 49.953125 37.25 
Q 51.515625 32.328125 51.515625 26.703125 
Q 51.515625 13.375 44.921875 6.09375 
Q 38.328125 -1.171875 29.109375 -1.171875 
Q 19.921875 -1.171875 14.703125 6.5 
z
M 14.59375 26.3125 
Q 14.59375 17 17.140625 12.84375 
Q 21.296875 6.0625 28.375 6.0625 
Q 34.125 6.0625 38.328125 11.0625 
Q 42.53125 16.0625 42.53125 25.984375 
Q 42.53125 36.140625 38.5 40.96875 
Q 34.46875 45.796875 28.765625 45.796875 
Q 23 45.796875 18.796875 40.796875 
Q 14.59375 35.796875 14.59375 26.3125 
" id="ArialMT-62"/>
      <path d="M 6.59375 0 
L 6.59375 51.859375 
L 14.453125 51.859375 
L 14.453125 44.578125 
Q 16.890625 48.390625 20.9375 50.703125 
Q 25 53.03125 30.171875 53.03125 
Q 35.9375 53.03125 39.625 50.640625 
Q 43.3125 48.25 44.828125 43.953125 
Q 50.984375 53.03125 60.84375 53.03125 
Q 68.5625 53.03125 72.703125 48.75 
Q 76.859375 44.484375 76.859375 35.59375 
L 76.859375 0 
L 68.109375 0 
L 68.109375 32.671875 
Q 68.109375 37.9375 67.25 40.25 
Q 66.40625 42.578125 64.15625 43.984375 
Q 61.921875 45.40625 58.890625 45.40625 
Q 53.421875 45.40625 49.796875 41.765625 
Q 46.1875 38.140625 46.1875 30.125 
L 46.1875 0 
L 37.40625 0 
L 37.40625 33.6875 
Q 37.40625 39.546875 35.25 42.46875 
Q 33.109375 45.40625 28.21875 45.40625 
Q 24.515625 45.40625 21.359375 43.453125 
Q 18.21875 41.5 16.796875 37.734375 
Q 15.375 33.984375 15.375 26.90625 
L 15.375 0 
z
" id="ArialMT-6d"/>
      <path d="M 7.625 0 
L 7.625 71.578125 
L 17.328125 71.578125 
L 54.9375 15.375 
L 54.9375 71.578125 
L 64.015625 71.578125 
L 64.015625 0 
L 54.296875 0 
L 16.703125 56.25 
L 16.703125 0 
z
" id="ArialMT-4e"/>
      <path d="M 25.78125 7.859375 
L 27.046875 0.09375 
Q 23.34375 -0.6875 20.40625 -0.6875 
Q 15.625 -0.6875 12.984375 0.828125 
Q 10.359375 2.34375 9.28125 4.8125 
Q 8.203125 7.28125 8.203125 15.1875 
L 8.203125 45.015625 
L 1.765625 45.015625 
L 1.765625 51.859375 
L 8.203125 51.859375 
L 8.203125 64.703125 
L 16.9375 69.96875 
L 16.9375 51.859375 
L 25.78125 51.859375 
L 25.78125 45.015625 
L 16.9375 45.015625 
L 16.9375 14.703125 
Q 16.9375 10.9375 17.40625 9.859375 
Q 17.875 8.796875 18.921875 8.15625 
Q 19.96875 7.515625 21.921875 7.515625 
Q 23.390625 7.515625 25.78125 7.859375 
" id="ArialMT-74"/>
      <path d="M 42.09375 16.703125 
L 51.171875 15.578125 
Q 49.03125 7.625 43.21875 3.21875 
Q 37.40625 -1.171875 28.375 -1.171875 
Q 17 -1.171875 10.328125 5.828125 
Q 3.65625 12.84375 3.65625 25.484375 
Q 3.65625 38.578125 10.390625 45.796875 
Q 17.140625 53.03125 27.875 53.03125 
Q 38.28125 53.03125 44.875 45.953125 
Q 51.46875 38.875 51.46875 26.03125 
Q 51.46875 25.25 51.421875 23.6875 
L 12.75 23.6875 
Q 13.234375 15.140625 17.578125 10.59375 
Q 21.921875 6.0625 28.421875 6.0625 
Q 33.25 6.0625 36.671875 8.59375 
Q 40.09375 11.140625 42.09375 16.703125 
M 13.234375 30.90625 
L 42.1875 30.90625 
Q 41.609375 37.453125 38.875 40.71875 
Q 34.671875 45.796875 27.984375 45.796875 
Q 21.921875 45.796875 17.796875 41.75 
Q 13.671875 37.703125 13.234375 30.90625 
" id="ArialMT-65"/>
      <path d="M 3.328125 25.921875 
Q 3.328125 40.328125 11.328125 47.265625 
Q 18.015625 53.03125 27.640625 53.03125 
Q 38.328125 53.03125 45.109375 46.015625 
Q 51.90625 39.015625 51.90625 26.65625 
Q 51.90625 16.65625 48.90625 10.90625 
Q 45.90625 5.171875 40.15625 2 
Q 34.421875 -1.171875 27.640625 -1.171875 
Q 16.75 -1.171875 10.03125 5.8125 
Q 3.328125 12.796875 3.328125 25.921875 
M 12.359375 25.921875 
Q 12.359375 15.96875 16.703125 11.015625 
Q 21.046875 6.0625 27.640625 6.0625 
Q 34.1875 6.0625 38.53125 11.03125 
Q 42.875 16.015625 42.875 26.21875 
Q 42.875 35.84375 38.5 40.796875 
Q 34.125 45.75 27.640625 45.75 
Q 21.046875 45.75 16.703125 40.8125 
Q 12.359375 35.890625 12.359375 25.921875 
" id="ArialMT-6f"/>
      <path id="ArialMT-20"/>
      <path d="M 6.390625 0 
L 6.390625 71.578125 
L 15.1875 71.578125 
L 15.1875 0 
z
" id="ArialMT-6c"/>
      <path d="M 8.6875 0 
L 8.6875 45.015625 
L 0.921875 45.015625 
L 0.921875 51.859375 
L 8.6875 51.859375 
L 8.6875 57.375 
Q 8.6875 62.59375 9.625 65.140625 
Q 10.890625 68.5625 14.078125 70.671875 
Q 17.28125 72.796875 23.046875 72.796875 
Q 26.765625 72.796875 31.25 71.921875 
L 29.9375 64.265625 
Q 27.203125 64.75 24.75 64.75 
Q 20.75 64.75 19.09375 63.03125 
Q 17.4375 61.328125 17.4375 56.640625 
L 17.4375 51.859375 
L 27.546875 51.859375 
L 27.546875 45.015625 
L 17.4375 45.015625 
L 17.4375 0 
z
" id="ArialMT-66"/>
      <path d="M 40.578125 0 
L 40.578125 7.625 
Q 34.515625 -1.171875 24.125 -1.171875 
Q 19.53125 -1.171875 15.546875 0.578125 
Q 11.578125 2.34375 9.640625 5 
Q 7.71875 7.671875 6.9375 11.53125 
Q 6.390625 14.109375 6.390625 19.734375 
L 6.390625 51.859375 
L 15.1875 51.859375 
L 15.1875 23.09375 
Q 15.1875 16.21875 15.71875 13.8125 
Q 16.546875 10.359375 19.234375 8.375 
Q 21.921875 6.390625 25.875 6.390625 
Q 29.828125 6.390625 33.296875 8.421875 
Q 36.765625 10.453125 38.203125 13.9375 
Q 39.65625 17.4375 39.65625 24.078125 
L 39.65625 51.859375 
L 48.4375 51.859375 
L 48.4375 0 
z
" id="ArialMT-75"/>
      <path d="M 40.4375 6.390625 
Q 35.546875 2.25 31.03125 0.53125 
Q 26.515625 -1.171875 21.34375 -1.171875 
Q 12.796875 -1.171875 8.203125 3 
Q 3.609375 7.171875 3.609375 13.671875 
Q 3.609375 17.484375 5.34375 20.625 
Q 7.078125 23.78125 9.890625 25.6875 
Q 12.703125 27.59375 16.21875 28.5625 
Q 18.796875 29.25 24.03125 29.890625 
Q 34.671875 31.15625 39.703125 32.90625 
Q 39.75 34.71875 39.75 35.203125 
Q 39.75 40.578125 37.25 42.78125 
Q 33.890625 45.75 27.25 45.75 
Q 21.046875 45.75 18.09375 43.578125 
Q 15.140625 41.40625 13.71875 35.890625 
L 5.125 37.0625 
Q 6.296875 42.578125 8.984375 45.96875 
Q 11.671875 49.359375 16.75 51.1875 
Q 21.828125 53.03125 28.515625 53.03125 
Q 35.15625 53.03125 39.296875 51.46875 
Q 43.453125 49.90625 45.40625 47.53125 
Q 47.359375 45.171875 48.140625 41.546875 
Q 48.578125 39.3125 48.578125 33.453125 
L 48.578125 21.734375 
Q 48.578125 9.46875 49.140625 6.21875 
Q 49.703125 2.984375 51.375 0 
L 42.1875 0 
Q 40.828125 2.734375 40.4375 6.390625 
M 39.703125 26.03125 
Q 34.90625 24.078125 25.34375 22.703125 
Q 19.921875 21.921875 17.671875 20.9375 
Q 15.4375 19.96875 14.203125 18.09375 
Q 12.984375 16.21875 12.984375 13.921875 
Q 12.984375 10.40625 15.640625 8.0625 
Q 18.3125 5.71875 23.4375 5.71875 
Q 28.515625 5.71875 32.46875 7.9375 
Q 36.421875 10.15625 38.28125 14.015625 
Q 39.703125 17 39.703125 22.796875 
z
" id="ArialMT-61"/>
      <path d="M 3.078125 15.484375 
L 11.765625 16.84375 
Q 12.5 11.625 15.84375 8.84375 
Q 19.1875 6.0625 25.203125 6.0625 
Q 31.25 6.0625 34.171875 8.515625 
Q 37.109375 10.984375 37.109375 14.3125 
Q 37.109375 17.28125 34.515625 19 
Q 32.71875 20.171875 25.53125 21.96875 
Q 15.875 24.421875 12.140625 26.203125 
Q 8.40625 27.984375 6.46875 31.125 
Q 4.546875 34.28125 4.546875 38.09375 
Q 4.546875 41.546875 6.125 44.5 
Q 7.71875 47.46875 10.453125 49.421875 
Q 12.5 50.921875 16.03125 51.96875 
Q 19.578125 53.03125 23.640625 53.03125 
Q 29.734375 53.03125 34.34375 51.265625 
Q 38.96875 49.515625 41.15625 46.5 
Q 43.359375 43.5 44.1875 38.484375 
L 35.59375 37.3125 
Q 35.015625 41.3125 32.203125 43.546875 
Q 29.390625 45.796875 24.265625 45.796875 
Q 18.21875 45.796875 15.625 43.796875 
Q 13.03125 41.796875 13.03125 39.109375 
Q 13.03125 37.40625 14.109375 36.03125 
Q 15.1875 34.625 17.484375 33.6875 
Q 18.796875 33.203125 25.25 31.453125 
Q 34.578125 28.953125 38.25 27.359375 
Q 41.9375 25.78125 44.03125 22.75 
Q 46.140625 19.734375 46.140625 15.234375 
Q 46.140625 10.84375 43.578125 6.953125 
Q 41.015625 3.078125 36.171875 0.953125 
Q 31.34375 -1.171875 25.25 -1.171875 
Q 15.140625 -1.171875 9.84375 3.03125 
Q 4.546875 7.234375 3.078125 15.484375 
" id="ArialMT-73"/>
      <path d="M 6.5 0 
L 6.5 51.859375 
L 14.40625 51.859375 
L 14.40625 44 
Q 17.4375 49.515625 20 51.265625 
Q 22.5625 53.03125 25.640625 53.03125 
Q 30.078125 53.03125 34.671875 50.203125 
L 31.640625 42.046875 
Q 28.421875 43.953125 25.203125 43.953125 
Q 22.3125 43.953125 20.015625 42.21875 
Q 17.71875 40.484375 16.75 37.40625 
Q 15.28125 32.71875 15.28125 27.15625 
L 15.28125 0 
z
" id="ArialMT-72"/>
      <path d="M 6.640625 61.46875 
L 6.640625 71.578125 
L 15.4375 71.578125 
L 15.4375 61.46875 
z
M 6.640625 0 
L 6.640625 51.859375 
L 15.4375 51.859375 
L 15.4375 0 
z
" id="ArialMT-69"/>
     </defs>
     <g style="fill:#262626;" transform="translate(182.58546875 281.01890625)scale(0.11 -0.11)">
      <use xlink:href="#ArialMT-4e"/>
      <use x="72.216796875" xlink:href="#ArialMT-75"/>
      <use x="127.83203125" xlink:href="#ArialMT-6d"/>
      <use x="211.1328125" xlink:href="#ArialMT-62"/>
      <use x="266.748046875" xlink:href="#ArialMT-65"/>
      <use x="322.36328125" xlink:href="#ArialMT-72"/>
      <use x="355.6640625" xlink:href="#ArialMT-20"/>
      <use x="383.447265625" xlink:href="#ArialMT-6f"/>
      <use x="439.0625" xlink:href="#ArialMT-66"/>
      <use x="466.845703125" xlink:href="#ArialMT-20"/>
      <use x="494.62890625" xlink:href="#ArialMT-74"/>
      <use x="522.412109375" xlink:href="#ArialMT-72"/>
      <use x="555.712890625" xlink:href="#ArialMT-69"/>
      <use x="577.9296875" xlink:href="#ArialMT-61"/>
      <use x="633.544921875" xlink:href="#ArialMT-6c"/>
      <use x="655.76171875" xlink:href="#ArialMT-73"/>
     </g>
    </g>
   </g>
   <g id="matplotlib.axis_2">
    <g id="ytick_1">
     <g id="line2d_19">
      <path clip-path="url(#pe2f160f949)" d="M 54 252 
L 388.8 252 
" style="fill:none;stroke:#ffffff;stroke-linecap:round;"/>
     </g>
     <g id="line2d_20">
      <g>
       <use style="fill:#262626;stroke:#262626;" x="54.0" xlink:href="#m542b259ef2" y="252.0"/>
      </g>
     </g>
     <g id="line2d_21">
      <g>
       <use style="fill:#262626;stroke:#262626;" x="388.8" xlink:href="#m542b259ef2" y="252.0"/>
      </g>
     </g>
     <g id="text_8">
      <!-- 1 -->
      <g style="fill:#262626;" transform="translate(41.4390625 254.58515625)scale(0.1 -0.1)">
       <use xlink:href="#ArialMT-31"/>
      </g>
     </g>
    </g>
    <g id="ytick_2">
     <g id="line2d_22">
      <path clip-path="url(#pe2f160f949)" d="M 54 207.36 
L 388.8 207.36 
" style="fill:none;stroke:#ffffff;stroke-linecap:round;"/>
     </g>
     <g id="line2d_23">
      <g>
       <use style="fill:#262626;stroke:#262626;" x="54.0" xlink:href="#m542b259ef2" y="207.36"/>
      </g>
     </g>
     <g id="line2d_24">
      <g>
       <use style="fill:#262626;stroke:#262626;" x="388.8" xlink:href="#m542b259ef2" y="207.36"/>
      </g>
     </g>
     <g id="text_9">
      <!-- 2 -->
      <g style="fill:#262626;" transform="translate(41.4390625 209.94515625)scale(0.1 -0.1)">
       <use xlink:href="#ArialMT-32"/>
      </g>
     </g>
    </g>
    <g id="ytick_3">
     <g id="line2d_25">
      <path clip-path="url(#pe2f160f949)" d="M 54 162.72 
L 388.8 162.72 
" style="fill:none;stroke:#ffffff;stroke-linecap:round;"/>
     </g>
     <g id="line2d_26">
      <g>
       <use style="fill:#262626;stroke:#262626;" x="54.0" xlink:href="#m542b259ef2" y="162.72"/>
      </g>
     </g>
     <g id="line2d_27">
      <g>
       <use style="fill:#262626;stroke:#262626;" x="388.8" xlink:href="#m542b259ef2" y="162.72"/>
      </g>
     </g>
     <g id="text_10">
      <!-- 3 -->
      <defs>
       <path d="M 4.203125 18.890625 
L 12.984375 20.0625 
Q 14.5 12.59375 18.140625 9.296875 
Q 21.78125 6 27 6 
Q 33.203125 6 37.46875 10.296875 
Q 41.75 14.59375 41.75 20.953125 
Q 41.75 27 37.796875 30.921875 
Q 33.84375 34.859375 27.734375 34.859375 
Q 25.25 34.859375 21.53125 33.890625 
L 22.515625 41.609375 
Q 23.390625 41.5 23.921875 41.5 
Q 29.546875 41.5 34.03125 44.421875 
Q 38.53125 47.359375 38.53125 53.46875 
Q 38.53125 58.296875 35.25 61.46875 
Q 31.984375 64.65625 26.8125 64.65625 
Q 21.6875 64.65625 18.265625 61.421875 
Q 14.84375 58.203125 13.875 51.765625 
L 5.078125 53.328125 
Q 6.6875 62.15625 12.390625 67.015625 
Q 18.109375 71.875 26.609375 71.875 
Q 32.46875 71.875 37.390625 69.359375 
Q 42.328125 66.84375 44.9375 62.5 
Q 47.5625 58.15625 47.5625 53.265625 
Q 47.5625 48.640625 45.0625 44.828125 
Q 42.578125 41.015625 37.703125 38.765625 
Q 44.046875 37.3125 47.5625 32.6875 
Q 51.078125 28.078125 51.078125 21.140625 
Q 51.078125 11.765625 44.234375 5.25 
Q 37.40625 -1.265625 26.953125 -1.265625 
Q 17.53125 -1.265625 11.296875 4.34375 
Q 5.078125 9.96875 4.203125 18.890625 
" id="ArialMT-33"/>
      </defs>
      <g style="fill:#262626;" transform="translate(41.4390625 165.30515625)scale(0.1 -0.1)">
       <use xlink:href="#ArialMT-33"/>
      </g>
     </g>
    </g>
    <g id="ytick_4">
     <g id="line2d_28">
      <path clip-path="url(#pe2f160f949)" d="M 54 118.08 
L 388.8 118.08 
" style="fill:none;stroke:#ffffff;stroke-linecap:round;"/>
     </g>
     <g id="line2d_29">
      <g>
       <use style="fill:#262626;stroke:#262626;" x="54.0" xlink:href="#m542b259ef2" y="118.08"/>
      </g>
     </g>
     <g id="line2d_30">
      <g>
       <use style="fill:#262626;stroke:#262626;" x="388.8" xlink:href="#m542b259ef2" y="118.08"/>
      </g>
     </g>
     <g id="text_11">
      <!-- 4 -->
      <g style="fill:#262626;" transform="translate(41.4390625 120.66515625)scale(0.1 -0.1)">
       <use xlink:href="#ArialMT-34"/>
      </g>
     </g>
    </g>
    <g id="ytick_5">
     <g id="line2d_31">
      <path clip-path="url(#pe2f160f949)" d="M 54 73.44 
L 388.8 73.44 
" style="fill:none;stroke:#ffffff;stroke-linecap:round;"/>
     </g>
     <g id="line2d_32">
      <g>
       <use style="fill:#262626;stroke:#262626;" x="54.0" xlink:href="#m542b259ef2" y="73.44"/>
      </g>
     </g>
     <g id="line2d_33">
      <g>
       <use style="fill:#262626;stroke:#262626;" x="388.8" xlink:href="#m542b259ef2" y="73.44"/>
      </g>
     </g>
     <g id="text_12">
      <!-- 5 -->
      <defs>
       <path d="M 4.15625 18.75 
L 13.375 19.53125 
Q 14.40625 12.796875 18.140625 9.390625 
Q 21.875 6 27.15625 6 
Q 33.5 6 37.890625 10.78125 
Q 42.28125 15.578125 42.28125 23.484375 
Q 42.28125 31 38.0625 35.34375 
Q 33.84375 39.703125 27 39.703125 
Q 22.75 39.703125 19.328125 37.765625 
Q 15.921875 35.84375 13.96875 32.765625 
L 5.71875 33.84375 
L 12.640625 70.609375 
L 48.25 70.609375 
L 48.25 62.203125 
L 19.671875 62.203125 
L 15.828125 42.96875 
Q 22.265625 47.46875 29.34375 47.46875 
Q 38.71875 47.46875 45.15625 40.96875 
Q 51.609375 34.46875 51.609375 24.265625 
Q 51.609375 14.546875 45.953125 7.46875 
Q 39.0625 -1.21875 27.15625 -1.21875 
Q 17.390625 -1.21875 11.203125 4.25 
Q 5.03125 9.71875 4.15625 18.75 
" id="ArialMT-35"/>
      </defs>
      <g style="fill:#262626;" transform="translate(41.4390625 76.02515625)scale(0.1 -0.1)">
       <use xlink:href="#ArialMT-35"/>
      </g>
     </g>
    </g>
    <g id="ytick_6">
     <g id="line2d_34">
      <path clip-path="url(#pe2f160f949)" d="M 54 28.8 
L 388.8 28.8 
" style="fill:none;stroke:#ffffff;stroke-linecap:round;"/>
     </g>
     <g id="line2d_35">
      <g>
       <use style="fill:#262626;stroke:#262626;" x="54.0" xlink:href="#m542b259ef2" y="28.8"/>
      </g>
     </g>
     <g id="line2d_36">
      <g>
       <use style="fill:#262626;stroke:#262626;" x="388.8" xlink:href="#m542b259ef2" y="28.8"/>
      </g>
     </g>
     <g id="text_13">
      <!-- 6 -->
      <g style="fill:#262626;" transform="translate(41.4390625 31.38515625)scale(0.1 -0.1)">
       <use xlink:href="#ArialMT-36"/>
      </g>
     </g>
    </g>
    <g id="text_14">
     <!-- Average -->
     <defs>
      <path d="M 4.984375 -4.296875 
L 13.53125 -5.5625 
Q 14.0625 -9.515625 16.5 -11.328125 
Q 19.78125 -13.765625 25.4375 -13.765625 
Q 31.546875 -13.765625 34.859375 -11.328125 
Q 38.1875 -8.890625 39.359375 -4.5 
Q 40.046875 -1.8125 39.984375 6.78125 
Q 34.234375 0 25.640625 0 
Q 14.9375 0 9.078125 7.71875 
Q 3.21875 15.4375 3.21875 26.21875 
Q 3.21875 33.640625 5.90625 39.90625 
Q 8.59375 46.1875 13.6875 49.609375 
Q 18.796875 53.03125 25.6875 53.03125 
Q 34.859375 53.03125 40.828125 45.609375 
L 40.828125 51.859375 
L 48.921875 51.859375 
L 48.921875 7.03125 
Q 48.921875 -5.078125 46.453125 -10.125 
Q 44 -15.1875 38.640625 -18.109375 
Q 33.296875 -21.046875 25.484375 -21.046875 
Q 16.21875 -21.046875 10.5 -16.875 
Q 4.78125 -12.703125 4.984375 -4.296875 
M 12.25 26.859375 
Q 12.25 16.65625 16.296875 11.96875 
Q 20.359375 7.28125 26.46875 7.28125 
Q 32.515625 7.28125 36.609375 11.9375 
Q 40.71875 16.609375 40.71875 26.5625 
Q 40.71875 36.078125 36.5 40.90625 
Q 32.28125 45.75 26.3125 45.75 
Q 20.453125 45.75 16.34375 40.984375 
Q 12.25 36.234375 12.25 26.859375 
" id="ArialMT-67"/>
      <path d="M 21 0 
L 1.265625 51.859375 
L 10.546875 51.859375 
L 21.6875 20.796875 
Q 23.484375 15.765625 25 10.359375 
Q 26.171875 14.453125 28.265625 20.21875 
L 39.796875 51.859375 
L 48.828125 51.859375 
L 29.203125 0 
z
" id="ArialMT-76"/>
      <path d="M -0.140625 0 
L 27.34375 71.578125 
L 37.546875 71.578125 
L 66.84375 0 
L 56.0625 0 
L 47.703125 21.6875 
L 17.78125 21.6875 
L 9.90625 0 
z
M 20.515625 29.390625 
L 44.78125 29.390625 
L 37.3125 49.21875 
Q 33.890625 58.25 32.234375 64.0625 
Q 30.859375 57.171875 28.375 50.390625 
z
" id="ArialMT-41"/>
     </defs>
     <g style="fill:#262626;" transform="translate(34.12390625 160.883203125)rotate(-90.0)scale(0.11 -0.11)">
      <use xlink:href="#ArialMT-41"/>
      <use x="66.68359375" xlink:href="#ArialMT-76"/>
      <use x="116.68359375" xlink:href="#ArialMT-65"/>
      <use x="172.298828125" xlink:href="#ArialMT-72"/>
      <use x="205.599609375" xlink:href="#ArialMT-61"/>
      <use x="261.21484375" xlink:href="#ArialMT-67"/>
      <use x="316.830078125" xlink:href="#ArialMT-65"/>
     </g>
    </g>
   </g>
   <g id="line2d_37">
    <path clip-path="url(#pe2f160f949)" d="M 54 140.4 
L 388.8 140.4 
" style="fill:none;stroke:#4c72b0;stroke-linecap:round;stroke-width:1.75;"/>
   </g>
   <g id="line2d_38">
    <path clip-path="url(#pe2f160f949)" d="M 54.3348 73.44 
L 54.6696 51.12 
L 55.0044 118.08 
L 56.0088 118.08 
L 56.3436 130.834286 
L 56.6784 129.24 
L 57.0132 118.08 
L 57.348 122.544 
L 57.6828 118.08 
L 58.3524 138.683077 
L 58.6872 134.022857 
L 59.022 135.936 
L 59.3568 140.4 
L 59.6916 146.964706 
L 60.0264 150.32 
L 60.3612 143.924211 
L 60.696 147.096 
L 61.0308 141.462857 
L 61.3656 146.487273 
L 61.7004 149.133913 
L 62.0352 145.98 
L 62.37 144.864 
L 62.7048 148.984615 
L 63.0396 147.84 
L 63.3744 143.588571 
L 63.7092 147.326897 
L 64.044 147.84 
L 64.3788 146.88 
L 64.7136 150.165 
L 65.0484 151.898182 
L 65.3832 150.903529 
L 65.718 147.414857 
L 66.3876 145.829189 
L 66.7224 148.623158 
L 67.7268 152.920976 
L 68.0616 155.28 
L 68.3964 155.453023 
L 68.7312 153.589091 
L 69.4008 152.045217 
L 69.7356 152.27234 
L 70.0704 150.63 
L 70.4052 150.876735 
L 71.0748 154.842353 
L 71.4096 153.276923 
L 72.0792 148.666667 
L 72.414 150.545455 
L 72.7488 149.168571 
L 73.0836 150.189474 
L 73.4184 148.866207 
L 73.7532 149.857627 
L 74.4228 150.279344 
L 74.7576 151.92 
L 76.0968 155.28 
L 76.7664 154.185882 
L 77.1012 154.309565 
L 77.436 153.792 
L 77.7708 155.175211 
L 78.1056 154.66 
L 78.4404 152.93589 
L 78.7752 151.861622 
L 79.11 152.6016 
L 79.4448 152.734737 
L 79.7796 151.704935 
L 80.1144 151.273846 
L 81.1188 148.391111 
L 81.4536 148.021463 
L 82.458 145.389176 
L 82.7928 146.628837 
L 83.1276 145.787586 
L 83.4624 145.472727 
L 83.7972 145.666517 
L 84.8016 141.855652 
L 85.1364 143.04 
L 85.4712 143.724255 
L 85.806 142.514526 
L 86.1408 143.19 
L 86.4756 142.931134 
L 86.8104 144.044082 
L 87.1452 142.88 
L 87.48 143.9712 
L 87.8148 144.598812 
L 88.1496 144.776471 
L 88.4844 144.083883 
L 88.8192 144.263077 
L 89.154 145.289143 
L 89.4888 144.190189 
L 89.8236 143.946168 
L 90.4932 144.290642 
L 90.828 143.240727 
L 91.1628 144.220541 
L 91.4976 143.19 
L 91.8324 143.757876 
L 92.1672 144.707368 
L 92.8368 145.017931 
L 93.1716 144.787692 
L 93.5064 144.939661 
L 93.8412 144.71395 
L 94.176 144.864 
L 94.5108 145.380496 
L 94.8456 145.522623 
L 95.85 144.864 
L 96.1848 145.005714 
L 96.5196 144.793701 
L 96.8544 144.23625 
L 97.1892 144.725581 
L 97.524 144.864 
L 97.8588 144.659542 
L 98.1936 145.134545 
L 98.5284 145.266767 
L 98.8632 145.730149 
L 99.198 145.194667 
L 99.5328 145.323529 
L 99.8676 145.124672 
L 100.2024 145.89913 
L 100.5372 145.698993 
L 100.872 145.820571 
L 101.2068 145.62383 
L 102.2112 147.84 
L 102.546 147.634759 
L 102.8808 147.738082 
L 103.2156 147.536327 
L 103.5504 148.242162 
L 103.8852 147.740134 
L 104.22 148.4352 
L 104.5548 147.642914 
L 104.8896 148.329474 
L 105.2244 147.548235 
L 105.5592 147.646753 
L 105.894 147.456 
L 106.2288 147.553846 
L 106.5636 147.366115 
L 106.8984 146.615696 
L 107.9028 148.579379 
L 108.2376 148.391111 
L 108.5724 149.026748 
L 109.242 149.192727 
L 109.5768 149.812048 
L 109.9116 149.354731 
L 110.2464 149.168571 
L 110.5812 148.720473 
L 110.916 148.015059 
L 111.2508 148.623158 
L 111.5856 148.186047 
L 111.9204 148.012023 
L 112.2552 147.326897 
L 112.59 147.159771 
L 112.9248 146.740909 
L 113.2596 146.074576 
L 113.5944 146.418876 
L 113.9292 145.761788 
L 114.264 145.608 
L 115.2684 147.352131 
L 115.938 146.070486 
L 116.2728 146.4 
L 116.6076 146.964706 
L 116.9424 146.573617 
L 117.2772 146.895238 
L 117.9468 145.658639 
L 118.2816 145.515 
L 118.6164 145.83544 
L 119.286 146.924308 
L 119.6208 146.549388 
L 120.2904 146.261818 
L 120.6252 146.568844 
L 121.2948 145.397015 
L 121.9644 146.447291 
L 122.2992 146.745882 
L 122.634 146.823805 
L 122.9688 147.334369 
L 123.3036 147.193043 
L 123.6384 146.623846 
L 124.308 147.202286 
L 124.6428 146.852701 
L 124.9776 147.348679 
L 125.3124 146.792113 
L 125.6472 147.283738 
L 125.982 147.147907 
L 126.3168 147.22 
L 126.6516 147.085714 
L 126.9864 147.157431 
L 127.3212 146.820822 
L 127.656 146.690182 
L 128.3256 145.628108 
L 128.6604 145.504574 
L 128.9952 145.98 
L 129.33 145.856 
L 129.6648 146.325664 
L 129.9996 146.004581 
L 130.3344 146.077895 
L 130.6692 145.955633 
L 131.3388 144.941299 
L 131.6736 144.633103 
L 132.0084 145.093906 
L 132.3432 145.169231 
L 133.0128 144.939661 
L 133.3476 145.203038 
L 133.6824 144.71395 
L 134.0172 144.60251 
L 134.352 144.306 
L 135.0216 143.351405 
L 135.6912 143.144262 
L 136.6956 143.924211 
L 137.0304 143.82 
L 137.7 143.9712 
L 138.0348 143.690199 
L 138.3696 143.588571 
L 138.7044 143.840632 
L 139.0392 143.914961 
L 139.374 143.813647 
L 140.3784 142.476279 
L 140.7132 142.726795 
L 141.048 142.460308 
L 141.7176 142.614962 
L 142.3872 143.274545 
L 142.722 142.842566 
L 143.0568 143.252932 
L 143.3916 142.991461 
L 143.7264 143.398209 
L 144.0612 143.304089 
L 144.396 143.376 
L 145.0656 142.533529 
L 145.7352 143.332555 
L 146.07 142.916073 
L 146.7396 143.381372 
L 147.0744 143.772086 
L 147.4092 143.68 
L 147.744 144.066857 
L 148.0788 143.974377 
L 148.4136 144.357447 
L 149.0832 143.858028 
L 149.7528 144.458182 
L 150.0876 144.366272 
L 150.4224 144.12 
L 150.7572 144.029896 
L 151.092 144.094345 
L 151.4268 143.698144 
L 152.0964 144.132696 
L 152.4312 144.195918 
L 152.766 144.410034 
L 153.7704 143.395973 
L 154.1052 143.460602 
L 155.1096 142.469404 
L 155.4444 142.241584 
L 156.114 141.497705 
L 156.4488 141.567059 
L 156.7836 141.490554 
L 157.1184 141.124675 
L 157.4532 141.050097 
L 157.788 141.264 
L 158.1228 141.33299 
L 158.4576 141.115385 
L 159.1272 140.968662 
L 159.7968 141.388861 
L 160.4664 140.680755 
L 161.136 141.0975 
L 161.4708 141.16486 
L 161.8056 141.509068 
L 162.1404 141.436533 
L 162.4752 141.64 
L 162.81 141.430154 
L 163.1448 141.358528 
L 163.8144 141.760976 
L 164.1492 141.824681 
L 164.8188 142.490393 
L 165.1536 142.551325 
L 165.4884 142.343784 
L 165.8232 142.672096 
L 166.158 142.465433 
L 166.8276 142.320712 
L 167.4972 142.967788 
L 167.832 142.894588 
L 168.1668 142.56 
L 168.5016 142.488421 
L 168.8364 142.807697 
L 169.1712 142.735814 
L 169.506 143.052522 
L 169.8408 142.722312 
L 170.1756 142.779942 
L 170.8452 143.277937 
L 171.18 143.0784 
L 171.5148 143.388718 
L 171.8496 143.316818 
L 172.5192 142.922034 
L 173.5236 143.463529 
L 174.1932 143.073426 
L 174.528 143.128 
L 175.1976 142.866298 
L 175.5324 142.920992 
L 175.8672 142.852747 
L 176.202 143.151781 
L 177.2064 142.219565 
L 177.876 142.812973 
L 178.2108 142.50566 
L 178.5456 142.44 
L 179.8848 141.824681 
L 180.2196 141.880106 
L 180.5544 141.699048 
L 180.8892 141.872296 
L 181.8936 141.685445 
L 182.5632 141.91125 
L 182.898 141.617455 
L 183.2328 141.672124 
L 183.5676 141.611163 
L 183.9024 141.320412 
L 184.2372 141.375424 
L 184.572 141.315692 
L 185.2416 140.969388 
L 185.5764 141.024733 
L 185.9112 140.739898 
L 186.5808 140.963636 
L 186.9156 140.681108 
L 187.2504 140.960804 
L 187.5852 140.903459 
L 187.92 141.1812 
L 188.2548 141.234913 
L 188.9244 141.009231 
L 189.9288 141.279606 
L 190.2636 141.441966 
L 190.9332 141.000293 
L 191.6028 141.431825 
L 191.9376 141.158447 
L 193.9464 142.642679 
L 194.2812 142.584057 
L 194.616 142.738286 
L 194.9508 142.573682 
L 195.6204 142.774468 
L 195.9552 142.610943 
L 196.6248 143.124507 
L 196.9596 143.170398 
L 197.2944 142.903178 
L 197.6292 143.157483 
L 198.6336 142.673333 
L 199.3032 142.971429 
L 199.638 142.811586 
L 199.9728 142.959633 
L 200.3076 142.698398 
L 200.6424 142.846027 
L 200.9772 142.789613 
L 201.312 142.530545 
L 201.6468 142.677551 
L 201.9816 142.6219 
L 202.3164 142.364966 
L 202.6512 142.31027 
L 204.66 143.1776 
L 204.9948 143.022971 
L 205.3296 143.16531 
L 205.9992 142.759824 
L 206.334 142.999912 
L 207.0036 142.988534 
L 207.3384 143.129083 
L 208.3428 142.675575 
L 209.0124 143.147819 
L 209.3472 143.19 
L 209.682 142.944 
L 210.0168 143.178026 
L 213.3648 142.650756 
L 214.0344 142.828117 
L 215.3736 142.900581 
L 216.0432 142.613554 
L 216.7128 142.788148 
L 217.3824 143.144262 
L 217.7172 143.366871 
L 218.052 143.406367 
L 219.3912 142.930202 
L 220.0608 143.1 
L 220.3956 143.319115 
L 220.7304 143.178795 
L 221.0652 143.307415 
L 221.7348 143.028503 
L 222.0696 143.067729 
L 222.7392 143.5 
L 223.074 143.272871 
L 223.4088 143.223083 
L 223.7436 143.349586 
L 224.4132 142.899489 
L 224.748 143.025882 
L 225.0828 142.802348 
L 225.4176 143.015625 
L 227.0916 142.429091 
L 228.096 142.202769 
L 228.4308 142.413512 
L 228.7656 142.195862 
L 229.4352 142.103817 
L 229.77 142.228114 
L 230.1048 142.182205 
L 231.1092 141.623592 
L 231.444 141.831849 
L 231.7788 141.787119 
L 232.4484 142.200675 
L 232.7832 142.155506 
L 233.4528 142.315522 
L 234.4572 142.263451 
L 234.792 142.466667 
L 235.4616 142.459041 
L 235.7964 142.660773 
L 236.1312 142.615588 
L 236.466 142.734385 
L 237.1356 142.562633 
L 237.8052 142.717377 
L 238.14 142.510255 
L 238.4748 142.627949 
L 238.8096 142.502609 
L 239.1444 142.619892 
L 239.4792 142.41444 
L 239.814 142.370595 
L 240.1488 142.487482 
L 241.1532 142.356494 
L 241.488 142.153714 
L 241.8228 142.269947 
L 242.1576 142.147473 
L 242.4924 142.263304 
L 242.8272 142.141277 
L 243.4968 142.292862 
L 244.1664 141.893239 
L 245.8404 142.074974 
L 246.1752 141.955401 
L 247.5144 142.176332 
L 248.184 141.862345 
L 248.5188 141.898244 
L 249.1884 142.275952 
L 249.858 142.269538 
L 250.8624 141.690612 
L 251.1972 141.802105 
L 251.532 141.610576 
L 252.5364 141.491535 
L 253.5408 141.748188 
L 253.8756 141.783317 
L 256.554 140.879603 
L 257.8932 141.096355 
L 259.5672 141.563257 
L 259.902 141.379902 
L 260.2368 141.414545 
L 260.5716 141.593776 
L 261.576 141.768 
L 262.5804 142.227159 
L 262.9152 142.045385 
L 263.25 142.221312 
L 263.9196 142.215502 
L 265.2588 141.850269 
L 265.5936 142.024557 
L 266.598 141.770835 
L 266.9328 141.803774 
L 268.6068 141.200874 
L 268.9416 141.025794 
L 269.2764 141.128958 
L 269.946 140.84986 
L 270.2808 140.676409 
L 270.6156 140.641484 
L 270.9504 140.744444 
L 271.2852 140.709522 
L 271.62 140.537354 
L 272.2896 140.536933 
L 272.9592 140.809541 
L 273.9636 140.298082 
L 274.6332 140.569347 
L 274.968 140.4 
L 275.3028 140.501301 
L 275.9724 140.231674 
L 277.3116 140.433463 
L 277.9812 140.099731 
L 278.9856 140.067857 
L 280.9944 140.268319 
L 281.3292 140.104153 
L 281.664 140.137412 
L 281.9988 139.973921 
L 282.3336 140.007273 
L 282.6684 139.90981 
L 283.0032 140.008421 
L 283.338 139.846073 
L 283.6728 140.009563 
L 284.0076 139.977642 
L 284.3424 139.816047 
L 284.6772 139.978868 
L 285.012 139.882435 
L 285.6816 140.012948 
L 286.3512 140.271354 
L 287.0208 140.4 
L 287.3556 140.496069 
L 287.6904 140.336046 
L 288.0252 140.304206 
L 288.36 140.463771 
L 288.6948 140.36816 
L 289.3644 140.558748 
L 290.034 140.305021 
L 290.3688 140.463229 
L 291.0384 140.463051 
L 291.3732 140.368519 
L 292.0428 140.494177 
L 293.0472 140.462521 
L 293.382 140.618517 
L 293.7168 140.524693 
L 294.3864 140.648691 
L 295.056 140.524 
L 295.3908 140.678613 
L 296.3952 140.338343 
L 296.73 140.184497 
L 297.0648 140.338512 
L 297.3996 140.185089 
L 299.0736 140.4 
L 299.7432 140.217548 
L 300.078 140.248163 
L 300.4128 140.157391 
L 303.0912 140.34 
L 303.426 140.250201 
L 304.0956 140.42988 
L 304.7652 140.548999 
L 305.4348 140.37028 
L 306.1044 140.548207 
L 307.7784 140.164433 
L 308.448 140.282526 
L 308.7828 140.194691 
L 309.4524 140.429253 
L 309.7872 140.283141 
L 310.4568 140.458277 
L 311.1264 140.574375 
L 311.4612 140.545124 
L 312.8004 140.833118 
L 313.47 140.6592 
L 314.1396 140.830888 
L 315.144 141.086769 
L 315.8136 140.970844 
L 316.4832 141.140204 
L 317.4876 140.995578 
L 317.8224 140.853198 
L 318.492 141.02157 
L 319.4964 140.934779 
L 320.166 140.989585 
L 321.1704 141.071278 
L 321.84 140.958 
L 322.1748 141.096629 
L 323.1792 140.955224 
L 324.8532 140.979382 
L 325.188 140.840889 
L 325.8576 140.949754 
L 326.5272 140.783882 
L 326.862 140.810798 
L 327.1968 140.673529 
L 328.536 140.726634 
L 329.5404 140.589842 
L 329.8752 140.562524 
L 330.21 140.6976 
L 331.2144 140.346087 
L 333.8928 140.239809 
L 334.2276 140.32 
L 335.232 140.028 
L 335.5668 140.108062 
L 336.2364 139.89694 
L 337.2408 140.188936 
L 338.58 139.769788 
L 339.5844 140.112169 
L 340.5888 140.4 
L 341.2584 140.191888 
L 341.5932 140.322049 
L 341.928 140.192372 
L 342.5976 140.192854 
L 343.2672 139.986667 
L 343.9368 139.884527 
L 344.9412 139.603774 
L 346.2804 139.607423 
L 346.6152 139.531716 
L 346.95 139.660251 
L 347.2848 139.533699 
L 347.9544 139.6882 
L 349.2936 139.438367 
L 350.298 139.769492 
L 351.3024 139.495135 
L 352.6416 139.949596 
L 352.9764 139.825129 
L 353.646 139.976045 
L 353.9808 139.901786 
L 354.3156 139.97699 
L 354.6504 139.902895 
L 354.9852 140.027586 
L 356.3244 139.831495 
L 356.6592 139.955575 
L 357.9984 139.957533 
L 359.0028 140.032492 
L 359.6724 139.886616 
L 360.0072 140.009278 
L 361.6812 139.452797 
L 362.3508 139.406384 
L 363.3552 139.723636 
L 364.3596 139.460971 
L 364.6944 139.534138 
L 365.6988 139.177315 
L 366.7032 139.5397 
L 369.3816 139.310064 
L 369.7164 139.192874 
L 370.0512 139.217797 
L 370.386 139.100952 
L 371.7252 139.294584 
L 372.06 139.272253 
L 372.3948 139.390789 
L 374.4036 139.35047 
L 374.7384 139.468058 
L 375.408 139.3305 
L 375.7428 139.261935 
L 377.082 139.451689 
L 378.0864 139.616033 
L 378.4212 139.732012 
L 378.756 139.617649 
L 380.43 139.965046 
L 381.4344 139.715337 
L 382.4388 139.740183 
L 383.1084 139.877762 
L 383.4432 139.991707 
L 384.4476 139.83465 
L 385.7868 139.881978 
L 386.1216 139.815 
L 386.4564 139.883021 
L 387.126 139.749467 
L 388.4652 139.439279 
L 388.8 139.55184 
L 388.8 139.55184 
" style="fill:none;stroke:#55a868;stroke-linecap:round;stroke-width:1.75;"/>
   </g>
   <g id="patch_3">
    <path d="M 54 28.8 
L 388.8 28.8 
" style="fill:none;"/>
   </g>
   <g id="patch_4">
    <path d="M 54 252 
L 54 28.8 
" style="fill:none;"/>
   </g>
   <g id="patch_5">
    <path d="M 54 252 
L 388.8 252 
" style="fill:none;"/>
   </g>
   <g id="patch_6">
    <path d="M 388.8 252 
L 388.8 28.8 
" style="fill:none;"/>
   </g>
   <g id="text_15">
    <!-- Average dice roll by number of rolls -->
    <defs>
     <path d="M 6.59375 0 
L 6.59375 51.859375 
L 14.5 51.859375 
L 14.5 44.484375 
Q 20.21875 53.03125 31 53.03125 
Q 35.6875 53.03125 39.625 51.34375 
Q 43.5625 49.65625 45.515625 46.921875 
Q 47.46875 44.1875 48.25 40.4375 
Q 48.734375 37.984375 48.734375 31.890625 
L 48.734375 0 
L 39.9375 0 
L 39.9375 31.546875 
Q 39.9375 36.921875 38.90625 39.578125 
Q 37.890625 42.234375 35.28125 43.8125 
Q 32.671875 45.40625 29.15625 45.40625 
Q 23.53125 45.40625 19.453125 41.84375 
Q 15.375 38.28125 15.375 28.328125 
L 15.375 0 
z
" id="ArialMT-6e"/>
     <path d="M 40.234375 0 
L 40.234375 6.546875 
Q 35.296875 -1.171875 25.734375 -1.171875 
Q 19.53125 -1.171875 14.328125 2.25 
Q 9.125 5.671875 6.265625 11.796875 
Q 3.421875 17.921875 3.421875 25.875 
Q 3.421875 33.640625 6 39.96875 
Q 8.59375 46.296875 13.765625 49.65625 
Q 18.953125 53.03125 25.34375 53.03125 
Q 30.03125 53.03125 33.6875 51.046875 
Q 37.359375 49.078125 39.65625 45.90625 
L 39.65625 71.578125 
L 48.390625 71.578125 
L 48.390625 0 
z
M 12.453125 25.875 
Q 12.453125 15.921875 16.640625 10.984375 
Q 20.84375 6.0625 26.5625 6.0625 
Q 32.328125 6.0625 36.34375 10.765625 
Q 40.375 15.484375 40.375 25.140625 
Q 40.375 35.796875 36.265625 40.765625 
Q 32.171875 45.75 26.171875 45.75 
Q 20.3125 45.75 16.375 40.96875 
Q 12.453125 36.1875 12.453125 25.875 
" id="ArialMT-64"/>
     <path d="M 40.4375 19 
L 49.078125 17.875 
Q 47.65625 8.9375 41.8125 3.875 
Q 35.984375 -1.171875 27.484375 -1.171875 
Q 16.84375 -1.171875 10.375 5.78125 
Q 3.90625 12.75 3.90625 25.734375 
Q 3.90625 34.125 6.6875 40.421875 
Q 9.46875 46.734375 15.15625 49.875 
Q 20.84375 53.03125 27.546875 53.03125 
Q 35.984375 53.03125 41.359375 48.75 
Q 46.734375 44.484375 48.25 36.625 
L 39.703125 35.296875 
Q 38.484375 40.53125 35.375 43.15625 
Q 32.28125 45.796875 27.875 45.796875 
Q 21.234375 45.796875 17.078125 41.03125 
Q 12.9375 36.28125 12.9375 25.984375 
Q 12.9375 15.53125 16.9375 10.796875 
Q 20.953125 6.0625 27.390625 6.0625 
Q 32.5625 6.0625 36.03125 9.234375 
Q 39.5 12.40625 40.4375 19 
" id="ArialMT-63"/>
     <path d="M 6.203125 -19.96875 
L 5.21875 -11.71875 
Q 8.109375 -12.5 10.25 -12.5 
Q 13.1875 -12.5 14.9375 -11.515625 
Q 16.703125 -10.546875 17.828125 -8.796875 
Q 18.65625 -7.46875 20.515625 -2.25 
Q 20.75 -1.515625 21.296875 -0.09375 
L 1.609375 51.859375 
L 11.078125 51.859375 
L 21.875 21.828125 
Q 23.96875 16.109375 25.640625 9.8125 
Q 27.15625 15.875 29.25 21.625 
L 40.328125 51.859375 
L 49.125 51.859375 
L 29.390625 -0.875 
Q 26.21875 -9.421875 24.46875 -12.640625 
Q 22.125 -17 19.09375 -19.015625 
Q 16.0625 -21.046875 11.859375 -21.046875 
Q 9.328125 -21.046875 6.203125 -19.96875 
" id="ArialMT-79"/>
    </defs>
    <g style="fill:#262626;" transform="translate(127.3640625 23.8)scale(0.12 -0.12)">
     <use xlink:href="#ArialMT-41"/>
     <use x="66.68359375" xlink:href="#ArialMT-76"/>
     <use x="116.68359375" xlink:href="#ArialMT-65"/>
     <use x="172.298828125" xlink:href="#ArialMT-72"/>
     <use x="205.599609375" xlink:href="#ArialMT-61"/>
     <use x="261.21484375" xlink:href="#ArialMT-67"/>
     <use x="316.830078125" xlink:href="#ArialMT-65"/>
     <use x="372.4453125" xlink:href="#ArialMT-20"/>
     <use x="400.228515625" xlink:href="#ArialMT-64"/>
     <use x="455.84375" xlink:href="#ArialMT-69"/>
     <use x="478.060546875" xlink:href="#ArialMT-63"/>
     <use x="528.060546875" xlink:href="#ArialMT-65"/>
     <use x="583.67578125" xlink:href="#ArialMT-20"/>
     <use x="611.458984375" xlink:href="#ArialMT-72"/>
     <use x="644.759765625" xlink:href="#ArialMT-6f"/>
     <use x="700.375" xlink:href="#ArialMT-6c"/>
     <use x="722.591796875" xlink:href="#ArialMT-6c"/>
     <use x="744.80859375" xlink:href="#ArialMT-20"/>
     <use x="772.591796875" xlink:href="#ArialMT-62"/>
     <use x="828.20703125" xlink:href="#ArialMT-79"/>
     <use x="878.20703125" xlink:href="#ArialMT-20"/>
     <use x="905.990234375" xlink:href="#ArialMT-6e"/>
     <use x="961.60546875" xlink:href="#ArialMT-75"/>
     <use x="1017.220703125" xlink:href="#ArialMT-6d"/>
     <use x="1100.521484375" xlink:href="#ArialMT-62"/>
     <use x="1156.13671875" xlink:href="#ArialMT-65"/>
     <use x="1211.751953125" xlink:href="#ArialMT-72"/>
     <use x="1245.052734375" xlink:href="#ArialMT-20"/>
     <use x="1272.8359375" xlink:href="#ArialMT-6f"/>
     <use x="1328.451171875" xlink:href="#ArialMT-66"/>
     <use x="1356.234375" xlink:href="#ArialMT-20"/>
     <use x="1384.017578125" xlink:href="#ArialMT-72"/>
     <use x="1417.318359375" xlink:href="#ArialMT-6f"/>
     <use x="1472.93359375" xlink:href="#ArialMT-6c"/>
     <use x="1495.150390625" xlink:href="#ArialMT-6c"/>
     <use x="1517.3671875" xlink:href="#ArialMT-73"/>
    </g>
   </g>
   <g id="legend_1">
    <g id="line2d_39">
     <path d="M 264.535937 41.457812 
L 284.535937 41.457812 
" style="fill:none;stroke:#4c72b0;stroke-linecap:round;stroke-width:1.75;"/>
    </g>
    <g id="line2d_40"/>
    <g id="text_16">
     <!-- Theoretical mean -->
     <defs>
      <path d="M 25.921875 0 
L 25.921875 63.140625 
L 2.34375 63.140625 
L 2.34375 71.578125 
L 59.078125 71.578125 
L 59.078125 63.140625 
L 35.40625 63.140625 
L 35.40625 0 
z
" id="ArialMT-54"/>
      <path d="M 6.59375 0 
L 6.59375 71.578125 
L 15.375 71.578125 
L 15.375 45.90625 
Q 21.53125 53.03125 30.90625 53.03125 
Q 36.671875 53.03125 40.921875 50.75 
Q 45.171875 48.484375 47 44.484375 
Q 48.828125 40.484375 48.828125 32.859375 
L 48.828125 0 
L 40.046875 0 
L 40.046875 32.859375 
Q 40.046875 39.453125 37.1875 42.453125 
Q 34.328125 45.453125 29.109375 45.453125 
Q 25.203125 45.453125 21.75 43.421875 
Q 18.3125 41.40625 16.84375 37.9375 
Q 15.375 34.46875 15.375 28.375 
L 15.375 0 
z
" id="ArialMT-68"/>
     </defs>
     <g style="fill:#262626;" transform="translate(292.5359375 44.9578125)scale(0.1 -0.1)">
      <use xlink:href="#ArialMT-54"/>
      <use x="61.083984375" xlink:href="#ArialMT-68"/>
      <use x="116.69921875" xlink:href="#ArialMT-65"/>
      <use x="172.314453125" xlink:href="#ArialMT-6f"/>
      <use x="227.9296875" xlink:href="#ArialMT-72"/>
      <use x="261.23046875" xlink:href="#ArialMT-65"/>
      <use x="316.845703125" xlink:href="#ArialMT-74"/>
      <use x="344.62890625" xlink:href="#ArialMT-69"/>
      <use x="366.845703125" xlink:href="#ArialMT-63"/>
      <use x="416.845703125" xlink:href="#ArialMT-61"/>
      <use x="472.4609375" xlink:href="#ArialMT-6c"/>
      <use x="494.677734375" xlink:href="#ArialMT-20"/>
      <use x="522.4609375" xlink:href="#ArialMT-6d"/>
      <use x="605.76171875" xlink:href="#ArialMT-65"/>
      <use x="661.376953125" xlink:href="#ArialMT-61"/>
      <use x="716.9921875" xlink:href="#ArialMT-6e"/>
     </g>
    </g>
    <g id="line2d_41">
     <path d="M 264.535937 55.73125 
L 284.535937 55.73125 
" style="fill:none;stroke:#55a868;stroke-linecap:round;stroke-width:1.75;"/>
    </g>
    <g id="line2d_42"/>
    <g id="text_17">
     <!-- Observed averages -->
     <defs>
      <path d="M 4.828125 34.859375 
Q 4.828125 52.6875 14.390625 62.765625 
Q 23.96875 72.859375 39.109375 72.859375 
Q 49.03125 72.859375 56.984375 68.109375 
Q 64.9375 63.375 69.109375 54.90625 
Q 73.296875 46.4375 73.296875 35.6875 
Q 73.296875 24.8125 68.890625 16.21875 
Q 64.5 7.625 56.4375 3.203125 
Q 48.390625 -1.21875 39.0625 -1.21875 
Q 28.953125 -1.21875 20.984375 3.65625 
Q 13.03125 8.546875 8.921875 16.984375 
Q 4.828125 25.4375 4.828125 34.859375 
M 14.59375 34.71875 
Q 14.59375 21.78125 21.546875 14.328125 
Q 28.515625 6.890625 39.015625 6.890625 
Q 49.703125 6.890625 56.609375 14.40625 
Q 63.53125 21.921875 63.53125 35.75 
Q 63.53125 44.484375 60.578125 51 
Q 57.625 57.515625 51.921875 61.109375 
Q 46.234375 64.703125 39.15625 64.703125 
Q 29.109375 64.703125 21.84375 57.78125 
Q 14.59375 50.875 14.59375 34.71875 
" id="ArialMT-4f"/>
     </defs>
     <g style="fill:#262626;" transform="translate(292.5359375 59.23125)scale(0.1 -0.1)">
      <use xlink:href="#ArialMT-4f"/>
      <use x="77.783203125" xlink:href="#ArialMT-62"/>
      <use x="133.3984375" xlink:href="#ArialMT-73"/>
      <use x="183.3984375" xlink:href="#ArialMT-65"/>
      <use x="239.013671875" xlink:href="#ArialMT-72"/>
      <use x="272.314453125" xlink:href="#ArialMT-76"/>
      <use x="322.314453125" xlink:href="#ArialMT-65"/>
      <use x="377.9296875" xlink:href="#ArialMT-64"/>
      <use x="433.544921875" xlink:href="#ArialMT-20"/>
      <use x="461.328125" xlink:href="#ArialMT-61"/>
      <use x="516.943359375" xlink:href="#ArialMT-76"/>
      <use x="566.943359375" xlink:href="#ArialMT-65"/>
      <use x="622.55859375" xlink:href="#ArialMT-72"/>
      <use x="655.859375" xlink:href="#ArialMT-61"/>
      <use x="711.474609375" xlink:href="#ArialMT-67"/>
      <use x="767.08984375" xlink:href="#ArialMT-65"/>
      <use x="822.705078125" xlink:href="#ArialMT-73"/>
     </g>
    </g>
   </g>
  </g>
 </g>
 <defs>
  <clipPath id="pe2f160f949">
   <rect height="223.2" width="334.8" x="54.0" y="28.8"/>
  </clipPath>
 </defs>
</svg>
