<?xml version="1.0" encoding="UTF-8" standalone="no"?>
<svg
   xmlns:dc="http://purl.org/dc/elements/1.1/"
   xmlns:cc="http://creativecommons.org/ns#"
   xmlns:rdf="http://www.w3.org/1999/02/22-rdf-syntax-ns#"
   xmlns:svg="http://www.w3.org/2000/svg"
   xmlns="http://www.w3.org/2000/svg"
   xmlns:sodipodi="http://sodipodi.sourceforge.net/DTD/sodipodi-0.dtd"
   xmlns:inkscape="http://www.inkscape.org/namespaces/inkscape"
   version="1.1"
   id="svg2"
   xml:space="preserve"
   width="1000"
   height="525"
   viewBox="0 0 999.99997 524.99999"
   sodipodi:docname="chemistry_table.svg"
   inkscape:version="1.0.1 (3bc2e813f5, 2020-09-07)"
   inkscape:export-filename="C:\Users\keega\Documents\cannlytics\cannlytics-website\cannlytics_website\static\cannlytics_website\images\illustrations\chemistry_table.png"
   inkscape:export-xdpi="96"
   inkscape:export-ydpi="96"><metadata
     id="metadata8"><rdf:RDF><cc:Work
         rdf:about=""><dc:format>image/svg+xml</dc:format><dc:type
           rdf:resource="http://purl.org/dc/dcmitype/StillImage" /><dc:title /></cc:Work></rdf:RDF></metadata><defs
     id="defs6" /><sodipodi:namedview
     pagecolor="#323443"
     bordercolor="#666666"
     borderopacity="1"
     objecttolerance="10"
     gridtolerance="10"
     guidetolerance="10"
     inkscape:pageopacity="0"
     inkscape:pageshadow="2"
     inkscape:window-width="1920"
     inkscape:window-height="1120"
     id="namedview4"
     showgrid="false"
     inkscape:zoom="0.71154085"
     inkscape:cx="473.63523"
     inkscape:cy="278.16531"
     inkscape:window-x="-11"
     inkscape:window-y="-11"
     inkscape:window-maximized="1"
     inkscape:current-layer="g12"
     inkscape:document-rotation="0" /><g
     id="g10"
     inkscape:groupmode="layer"
     inkscape:label="ink_ext_XXXXXX"
     transform="matrix(1.3333333,0,0,-1.3333333,-55.498132,807.29865)"><g
       id="g12"
       transform="scale(0.1)"><path
         d="m 6841.7081,3955.8 c 0,-33.83 -1.25,-67.39 -3.44,-100.69 5.64,-0.71 11.28,-1.35 16.9,-2.07 2.22,34.06 3.49,68.31 3.49,102.76 0,412.97 -160.82,801.22 -452.83,1093.23 -292.01,292.01 -680.25,452.83 -1093.23,452.83 -192.4,0 -380.07,-34.92 -557.96,-103.79 -148.56,198.19 -342.97,362.51 -562.64,475.46 -232.3,119.44 -483.44,179.99 -746.46,179.99 -191.46,0 -378.95,-32.79 -557.3,-97.46 -172.34,-62.49 -332.09,-153.17 -474.82,-269.52 -284.97,-232.3 -485.15,-556.52 -564.09,-913.37 -448.65,-150.41 -749.759,-568.8 -749.759,-1042.64 0,-42.75 2.539,-84.93 7.312,-126.43 5.723,-0.19 11.438,-0.45 17.149,-0.68 -4.899,41.71 -7.504,84.1 -7.504,127.11 0,468.14 298.472,881.29 742.702,1028.07 l 4.59,1.52 1.03,4.72 c 160.66,736.89 825.44,1271.73 1580.69,1271.73 509.34,0 995.07,-244.41 1299.36,-653.8 l 3.86,-5.2 6.03,2.37 c 177.69,69.65 365.37,104.97 557.81,104.97 843.15,0 1529.11,-685.96 1529.11,-1529.11"
         style="fill:#51aee5;fill-opacity:1;fill-rule:nonzero;stroke:none"
         id="path38" /><path
         d="m 3602.9381,5883.99 c 0,3.66 0.31,7.25 0.77,10.8 -45.81,3.8 -92.04,5.74 -138.63,5.74 -191.45,0 -378.95,-32.79 -557.3,-97.46 -159.48,-57.84 -308.16,-139.86 -442.57,-243.97 3.58,-5.4 7.02,-10.91 10.32,-16.5 276.84,214.5 622.46,340.97 989.55,340.97 46.31,0 92.41,-2.03 138.19,-6.01 -0.16,2.13 -0.33,4.27 -0.33,6.43"
         style="fill:#51aee5;fill-opacity:1;fill-rule:nonzero;stroke:none"
         id="path40" /><path
         d="m 4021.9381,5803.4 c -79.86,29.04 -161.57,51.63 -244.9,67.68 -0.93,-6.02 -2.46,-11.84 -4.59,-17.42 83.33,-16.3 165.02,-39.19 244.39,-68.12 1.08,6.18 2.78,12.16 5.1,17.86"
         style="fill:#51aee5;fill-opacity:1;fill-rule:nonzero;stroke:none"
         id="path42" /><path
         d="m 4211.5381,5720.54 c -9.59,4.92 -19.22,9.73 -28.87,14.46 -2.59,-5.63 -5.78,-10.93 -9.46,-15.87 38.7,-18.87 76.69,-39.21 113.81,-61.09 2.83,5.33 5.78,10.57 8.86,15.74 -27.67,16.4 -55.76,32.06 -84.34,46.76"
         style="fill:#51aee5;fill-opacity:1;fill-rule:nonzero;stroke:none"
         id="path44" /><path
         d="m 1356.9981,4156.3 c -16.19,-28.64 -31.3,-58.15 -45.08,-88.58 -17.66,-38.94 -32.75,-78.39 -45.53,-118.17 5.11,-2.56 10.23,-5.14 15.33,-7.7 12.75,40.01 27.88,79.71 45.64,118.88 12.31,27.16 25.66,53.6 39.92,79.32 -4,5 -7.42,10.46 -10.28,16.25"
         style="fill:#51aee5;fill-opacity:1;fill-rule:nonzero;stroke:none"
         id="path46" /><path
         d="m 1601.1981,4452.1 c -59.35,-50.48 -113.56,-107.56 -161.54,-170.49 6.56,-0.31 12.95,-1.34 19.08,-3.07 45.47,58.59 96.41,111.96 151.98,159.41 -3.28,4.65 -6.46,9.36 -9.52,14.15"
         style="fill:#51aee5;fill-opacity:1;fill-rule:nonzero;stroke:none"
         id="path48" /><path
         d="m 5610.7581,5776.44 c -36.42,2.55 -73.09,3.89 -109.98,3.89 -102.55,0 -203.73,-10.02 -302.83,-29.71 -0.04,-5.83 -0.21,-11.64 -0.52,-17.4 99.24,19.99 200.61,30.15 303.35,30.15 34.31,0 68.37,-1.15 102.12,-3.39 2.05,5.79 4.7,11.28 7.86,16.46"
         style="fill:#51aee5;fill-opacity:1;fill-rule:nonzero;stroke:none"
         id="path50" /><path
         d="m 6443.7481,5459.71 c -198.31,153.25 -428.8,254.78 -674.7,297.55 1.85,-5.83 3.05,-11.91 3.63,-18.16 245.56,-44.26 470.9,-147.4 660.92,-294.15 2.87,5.26 6.29,10.19 10.15,14.76"
         style="fill:#51aee5;fill-opacity:1;fill-rule:nonzero;stroke:none"
         id="path52" /><path
         d="m 6594.0081,5327.5 c -6.09,6.09 -12.24,12.09 -18.41,18.07 -3.98,-4.44 -8.38,-8.47 -13.16,-12.03 205.43,-198.49 355.61,-453.81 424.81,-740.41 4.91,4.11 9.9,8.11 15.01,11.98 -66.46,271.16 -205.79,519.92 -408.25,722.39"
         style="fill:#51aee5;fill-opacity:1;fill-rule:nonzero;stroke:none"
         id="path54" /><path
         d="m 5007.2781,4464.24 c 0.08,4.16 0.64,8.19 1.61,12.06 0.99,3.99 2.41,7.82 4.25,11.4 1.89,3.63 4.16,7.02 6.81,10.1 2.63,3.09 5.6,5.89 8.9,8.31 3.25,2.39 6.76,4.46 10.54,6.09 3.67,1.59 7.58,2.82 11.64,3.59 3.9,0.74 7.97,0.97 12.16,0.86 4.18,-0.1 8.27,-0.68 12.22,-1.73 4.01,-1.05 7.9,-2.49 11.54,-4.42 3.65,-1.93 7.06,-4.3 10.19,-7.01 3.12,-2.68 5.99,-5.69 8.46,-9.02 2.45,-3.28 4.5,-6.89 6.16,-10.72 1.63,-3.72 2.86,-7.68 3.64,-11.8 0.74,-3.96 1.07,-8.09 0.92,-12.33 -0.16,-4 -0.82,-8.04 -2,-12 -1.14,-3.83 -2.81,-7.57 -4.82,-11.16 -1.97,-3.5 -4.3,-6.86 -7,-9.93 -2.66,-3.02 -5.69,-5.75 -8.98,-8.19 -3.23,-2.39 -6.7,-4.51 -10.47,-6.18 -3.65,-1.61 -7.53,-2.8 -11.61,-3.59 -3.87,-0.73 -7.92,-1.11 -12.12,-0.97 -3.94,0.13 -8.01,0.73 -12.04,1.89 -3.81,1.08 -7.58,2.72 -11.24,4.69 -3.51,1.9 -6.93,4.16 -10.05,6.83 -3.05,2.62 -5.9,5.56 -8.36,8.86 -2.4,3.2 -4.42,6.75 -6.07,10.56 -1.56,3.63 -2.79,7.51 -3.52,11.66 -0.69,3.83 -0.91,7.89 -0.76,12.15"
         style="fill:#4490d4;fill-opacity:1;fill-rule:nonzero;stroke:none"
         id="path56" /><path
         d="m 4366.0781,3779.93 c -0.27,-3.95 0.24,-7.91 1.4,-11.69 1.15,-3.73 2.9,-7.33 5.21,-10.58 2.27,-3.19 5.12,-5.99 8.29,-8.4 3.1,-2.37 6.56,-4.34 10.32,-5.67 3.64,-1.29 7.54,-1.96 11.6,-1.99 4.12,-0.05 8.02,0.57 11.64,1.71 3.84,1.23 7.34,3.07 10.48,5.35 3.22,2.34 6.07,5.1 8.41,8.22 2.39,3.19 4.27,6.72 5.57,10.39 1.33,3.76 2.02,7.69 2.04,11.59 0.03,3.93 -0.6,7.87 -1.86,11.64 -1.23,3.72 -3.04,7.28 -5.39,10.5 -2.29,3.16 -5.12,5.95 -8.35,8.32 -3.11,2.28 -6.6,4.16 -10.47,5.42 -3.6,1.16 -7.5,1.79 -11.65,1.84 -4.97,0.05 -9.74,-0.93 -14.1,-2.75 -4.47,-1.86 -8.56,-4.58 -11.97,-7.97 -3.42,-3.39 -6.21,-7.43 -8.14,-11.88 -1.9,-4.34 -2.96,-9.11 -3.03,-14.05 m 37.84,48.19 c 4.17,0.2 8.46,-0.32 12.71,-1.5 4.02,-1.12 7.98,-2.87 11.74,-5.12 3.62,-2.16 7.11,-4.71 10.17,-7.8 2.97,-3 5.57,-6.46 7.76,-10.23 2.09,-3.63 3.81,-7.58 4.92,-11.84 1.05,-3.99 1.6,-8.25 1.59,-12.73 -0.01,-4.24 -0.55,-8.55 -1.67,-12.75 -1.09,-4.11 -2.76,-8.12 -4.88,-11.89 -2.09,-3.71 -4.66,-7.18 -7.71,-10.28 -2.95,-3.01 -6.31,-5.68 -10.14,-7.85 -3.61,-2.06 -7.58,-3.68 -11.94,-4.78 -3.93,-0.99 -8.19,-1.55 -12.75,-1.6 -4.56,-0.06 -8.92,0.4 -13.01,1.43 -4.35,1.08 -8.42,2.77 -12.13,4.9 -3.83,2.19 -7.32,4.89 -10.36,7.99 -3.03,3.13 -5.65,6.68 -7.76,10.52 -2.1,3.8 -3.66,7.91 -4.71,12.2 -1.02,4.19 -1.51,8.54 -1.43,12.99 0.07,4.54 0.7,8.76 1.76,12.72 1.17,4.31 2.88,8.24 4.98,11.83 2.24,3.78 4.94,7.13 7.94,10.06 3.14,3.06 6.56,5.72 10.22,7.77 3.83,2.17 7.89,3.7 11.94,4.72 4.31,1.08 8.61,1.51 12.76,1.24"
         style="fill:#ee5e23;fill-opacity:1;fill-rule:nonzero;stroke:none"
         id="path58" /><path
         d="m 3920.8581,4679.63 c 4.09,-0.03 8.02,0.55 11.68,1.68 3.83,1.18 7.35,3.03 10.53,5.29 3.22,2.3 6.08,5.04 8.4,8.24 2.31,3.14 4.13,6.68 5.37,10.5 1.18,3.64 1.81,7.55 1.85,11.64 0.03,4.06 -0.62,7.97 -1.81,11.64 -1.2,3.81 -2.92,7.39 -5.22,10.56 -2.31,3.2 -5.22,5.93 -8.42,8.26 -3.16,2.29 -6.66,4.16 -10.48,5.37 -3.66,1.18 -7.58,1.75 -11.65,1.73 -4.94,-0.03 -9.71,-1.03 -14.09,-2.87 -4.48,-1.88 -8.51,-4.63 -11.95,-7.99 -3.46,-3.37 -6.37,-7.32 -8.3,-11.75 -1.92,-4.34 -2.98,-9.12 -3,-14.08 -0.01,-4.23 0.64,-8.13 1.71,-11.71 1.17,-3.97 2.86,-7.57 5.04,-10.7 2.31,-3.35 5.18,-6.13 8.26,-8.45 3.24,-2.45 6.79,-4.31 10.43,-5.55 3.88,-1.32 7.86,-1.97 11.65,-1.81 m 0.11,86.42 c 4.1,0.31 8.42,-0.09 12.77,-1.16 4.05,-0.99 8.15,-2.48 12.01,-4.63 3.66,-2.04 7.14,-4.65 10.29,-7.71 3.01,-2.92 5.7,-6.3 7.93,-10.12 2.09,-3.57 3.79,-7.53 4.95,-11.88 1.04,-3.94 1.7,-8.19 1.79,-12.75 0.11,-4.47 -0.5,-8.82 -1.52,-12.99 -1.05,-4.29 -2.54,-8.43 -4.66,-12.22 -2.13,-3.83 -4.82,-7.3 -7.92,-10.41 -3.05,-3.06 -6.51,-5.77 -10.37,-7.95 -3.72,-2.11 -7.8,-3.71 -12.18,-4.82 -4.07,-1.03 -8.42,-1.64 -12.98,-1.66 -4.39,-0.02 -8.64,0.66 -12.7,1.76 -4.2,1.11 -8.16,2.78 -11.84,4.92 -3.72,2.17 -7.18,4.75 -10.19,7.78 -3.02,3.04 -5.58,6.51 -7.73,10.25 -2.12,3.68 -3.85,7.62 -4.96,11.82 -1.06,4.07 -1.61,8.36 -1.58,12.75 0.03,4.52 0.66,8.77 1.68,12.74 1.09,4.32 2.65,8.33 4.69,11.95 2.15,3.84 4.86,7.19 7.8,10.18 3.1,3.11 6.45,5.83 10.1,7.95 3.78,2.21 7.82,3.81 11.87,4.87 4.28,1.12 8.58,1.58 12.75,1.33"
         style="fill:#4490d4;fill-opacity:1;fill-rule:nonzero;stroke:none"
         id="path60" /><path
         d="m 3686.5481,3638.36 c 5.08,0.03 9.89,-1.32 14.08,-3.67 4.31,-2.43 7.92,-5.9 10.44,-10.08 2.5,-4.12 3.9,-8.91 3.81,-14.01 -0.1,-5.19 -1.29,-10 -3.48,-14.1 -2.32,-4.33 -5.74,-7.93 -10.11,-10.37 -3.95,-2.22 -8.67,-3.51 -14.07,-3.65 -5.17,-0.1 -9.99,1.09 -14.15,3.34 -4.34,2.36 -7.92,5.86 -10.4,10.12 -2.38,4.06 -3.73,8.86 -3.71,14.04 0.04,5.12 1.19,9.96 3.41,14.16 2.25,4.22 5.6,7.83 10.13,10.33 3.85,2.15 8.53,3.52 14.05,3.89"
         style="fill:#4490d4;fill-opacity:1;fill-rule:nonzero;stroke:none"
         id="path62" /><path
         d="m 3098.0981,4037.88 c 0.02,5.27 1.3,10.03 3.55,14.06 2.43,4.31 5.99,7.75 10.36,10.07 4.07,2.15 8.86,3.32 14.13,3.24 5.16,-0.08 9.95,-1.42 14.04,-3.76 4.29,-2.47 7.81,-6.04 10.18,-10.32 2.3,-4.13 3.5,-8.94 3.33,-14.11 -0.17,-5.11 -1.45,-9.94 -3.8,-14.06 -2.42,-4.26 -5.94,-7.77 -10.39,-10.14 -4,-2.13 -8.75,-3.34 -14.17,-3.32 -5.27,0.02 -10.05,1.35 -14.08,3.67 -4.3,2.49 -7.75,6.11 -10.04,10.48 -2.19,4.16 -3.33,9.01 -3.11,14.19"
         style="fill:#68419e;fill-opacity:1;fill-rule:nonzero;stroke:none"
         id="path64" /><path
         d="m 4681.5981,5294.35 c 0.05,5.27 1.32,10.04 3.58,14.06 2.42,4.31 5.97,7.75 10.35,10.07 4.08,2.15 8.85,3.32 14.13,3.24 5.15,-0.08 9.95,-1.42 14.03,-3.76 4.29,-2.47 7.81,-6.04 10.19,-10.32 2.28,-4.14 3.49,-8.94 3.33,-14.11 -0.18,-5.11 -1.46,-9.94 -3.8,-14.06 -2.42,-4.25 -5.95,-7.76 -10.39,-10.14 -4,-2.13 -8.76,-3.34 -14.17,-3.32 -5.28,0.03 -10.04,1.35 -14.08,3.67 -4.31,2.49 -7.76,6.12 -10.04,10.48 -2.2,4.16 -3.33,9.01 -3.13,14.19"
         style="fill:#ee5e23;fill-opacity:1;fill-rule:nonzero;stroke:none"
         id="path66" /><path
         d="m 5174.9681,4366.36 c 5.33,-0.17 10.1,-1.39 14.14,-3.49 4.45,-2.33 8.02,-5.76 10.5,-9.97 2.37,-4 3.73,-8.72 3.94,-13.98 0.22,-5.16 -0.93,-9.98 -3.19,-14.14 -2.34,-4.3 -5.83,-7.92 -10.1,-10.42 -4.06,-2.39 -8.84,-3.78 -14,-3.9 -5.23,-0.12 -10.03,1.04 -14.14,3.22 -4.38,2.3 -7.97,5.73 -10.47,10 -2.34,4.02 -3.65,8.79 -3.75,14 -0.1,5.36 0.98,10.13 3.07,14.19 2.26,4.37 5.69,7.92 10.03,10.41 3.96,2.28 8.69,3.68 13.97,4.08"
         style="fill:#4490d4;fill-opacity:1;fill-rule:nonzero;stroke:none"
         id="path68" /><path
         d="m 2234.7281,4453.29 c 5.32,-0.18 10.09,-1.39 14.13,-3.49 4.46,-2.33 8.02,-5.76 10.51,-9.98 2.37,-3.99 3.72,-8.71 3.94,-13.97 0.21,-5.16 -0.94,-9.99 -3.2,-14.15 -2.34,-4.3 -5.82,-7.91 -10.09,-10.42 -4.06,-2.38 -8.85,-3.77 -14.01,-3.89 -5.21,-0.13 -10.03,1.04 -14.14,3.21 -4.37,2.3 -7.97,5.74 -10.45,10 -2.35,4.03 -3.67,8.79 -3.76,14.01 -0.1,5.35 0.97,10.13 3.07,14.18 2.27,4.38 5.69,7.93 10.03,10.42 3.95,2.27 8.68,3.67 13.97,4.08"
         style="fill:#4490d4;fill-opacity:1;fill-rule:nonzero;stroke:none"
         id="path70" /><path
         d="m 3349.0281,4533.89 c -0.09,4.06 -1.31,7.9 -3.33,11.22 -2.05,3.39 -4.9,6.28 -8.31,8.28 -3.36,1.97 -7.24,3.06 -11.3,3.07 -4.24,0 -8.25,-1.19 -11.72,-3.25 -3.53,-2.12 -6.52,-5.11 -8.55,-8.67 -2.01,-3.51 -3.11,-7.57 -2.99,-11.81 0.12,-4.28 1.44,-8.24 3.56,-11.61 2.19,-3.47 5.29,-6.3 8.96,-8.2 3.53,-1.83 7.57,-2.83 11.86,-2.64 4.03,0.18 7.82,1.55 11.09,3.68 3.28,2.15 6.04,5.11 7.93,8.59 1.86,3.41 2.89,7.29 2.8,11.34 m -23.09,34.48 c 4.75,-0.01 9.28,-0.94 13.41,-2.67 4.27,-1.78 8.09,-4.43 11.31,-7.67 3.21,-3.23 5.83,-7.06 7.6,-11.35 1.7,-4.13 2.64,-8.67 2.64,-13.41 -0.01,-4.78 -0.97,-9.3 -2.64,-13.42 -1.76,-4.31 -4.32,-8.17 -7.55,-11.38 -3.22,-3.23 -7.07,-5.83 -11.38,-7.57 -4.13,-1.67 -8.66,-2.6 -13.44,-2.59 -4.76,0.02 -9.28,1.02 -13.39,2.72 -4.29,1.77 -8.17,4.33 -11.39,7.55 -3.22,3.23 -5.79,7.1 -7.56,11.39 -1.69,4.13 -2.65,8.66 -2.65,13.42 0,4.77 0.95,9.3 2.65,13.42 1.77,4.3 4.39,8.13 7.62,11.35 3.22,3.22 7.07,5.81 11.36,7.57 4.13,1.7 8.65,2.64 13.41,2.64"
         style="fill:#4490d4;fill-opacity:1;fill-rule:nonzero;stroke:none"
         id="path72" /><path
         d="m 3140.1481,4439.44 c 3.98,-0.07 7.43,-1.52 9.88,-3.95 2.48,-2.46 3.94,-5.9 3.98,-9.88 0.04,-3.8 -1.42,-7.32 -3.84,-9.93 -2.46,-2.63 -5.89,-4.31 -9.67,-4.45 -3.97,-0.13 -7.71,1.57 -10.41,4.33 -2.66,2.73 -4.33,6.49 -4.2,10.49 0.14,4 1.71,7.38 4.25,9.75 2.51,2.36 5.99,3.7 10.01,3.64"
         style="fill:#68419e;fill-opacity:1;fill-rule:nonzero;stroke:none"
         id="path74" /><path
         d="m 2137.5881,4205.04 c 3.99,-0.07 7.43,-1.52 9.9,-3.96 2.47,-2.45 3.94,-5.89 3.98,-9.87 0.03,-3.8 -1.43,-7.32 -3.85,-9.93 -2.46,-2.64 -5.88,-4.32 -9.67,-4.45 -3.97,-0.13 -7.71,1.56 -10.4,4.33 -2.67,2.73 -4.34,6.49 -4.2,10.49 0.13,3.99 1.7,7.38 4.24,9.76 2.51,2.34 6,3.69 10,3.63"
         style="fill:#68419e;fill-opacity:1;fill-rule:nonzero;stroke:none"
         id="path76" /><path
         d="m 5333.8481,4138.23 c 3.99,-0.06 7.44,-1.51 9.89,-3.95 2.47,-2.46 3.94,-5.9 3.98,-9.88 0.04,-3.8 -1.42,-7.33 -3.85,-9.93 -2.44,-2.64 -5.89,-4.31 -9.66,-4.44 -3.98,-0.14 -7.72,1.56 -10.41,4.32 -2.66,2.72 -4.33,6.49 -4.2,10.49 0.14,3.99 1.7,7.39 4.24,9.76 2.52,2.35 6,3.69 10.01,3.63"
         style="fill:#68419e;fill-opacity:1;fill-rule:nonzero;stroke:none"
         id="path78" /><path
         d="m 611.13509,2118.46 c 1327.14301,0 2654.28301,0 3981.42301,0 935.96,0 1871.93,0 2807.9,0 53.5,0 53.5,82.96 0,82.96 -78.36,0 -156.71,0 -235.07,0 -53.51,0 -53.51,-82.96 0,-82.96 78.36,0 156.71,0 235.07,0 53.5,0 53.5,82.96 0,82.96 -1327.14,0 -2654.29,0 -3981.43,0 -935.96,0 -1871.93,0 -2807.89301,0 -53.508,0 -53.508,-82.96 0,-82.96 v 0"
         style="fill:#51aee5;fill-opacity:1;fill-rule:nonzero;stroke:none"
         id="path80" /><path
         d="m 2430.4681,3522.43 c 35.72,5.86 66.16,-24.59 60.29,-60.29 -3.54,-21.64 -20.98,-39.06 -42.61,-42.62 -35.72,-5.86 -66.16,24.59 -60.3,60.29 3.55,21.62 20.99,39.07 42.62,42.62"
         style="fill:#8dd141;fill-opacity:1;fill-rule:nonzero;stroke:none"
         id="path82" /><path
         d="m 2439.3181,3516.69 c -2.57,0 -5.18,-0.22 -7.8,-0.65 -18.85,-3.08 -34.18,-18.41 -37.28,-37.28 -2.44,-14.94 2.19,-29.55 12.74,-40.1 10.56,-10.57 25.17,-15.19 40.12,-12.75 18.86,3.08 34.18,18.42 37.28,37.28 2.45,14.92 -2.2,29.55 -12.75,40.1 -8.71,8.71 -20.18,13.4 -32.31,13.4 z m -0.08,-104.4 c -15.54,0 -30.24,6.02 -41.41,17.21 -13.53,13.54 -19.5,32.27 -16.36,51.37 3.98,24.26 23.7,43.98 47.95,47.95 l 1.05,-6.39 -1.05,6.39 c 19.12,3.12 37.84,-2.83 51.37,-16.37 13.54,-13.54 19.5,-32.27 16.36,-51.37 -3.98,-24.25 -23.69,-43.96 -47.95,-47.97 -3.34,-0.54 -6.68,-0.82 -9.96,-0.82"
         style="fill:#4ba946;fill-opacity:1;fill-rule:nonzero;stroke:none"
         id="path84" /><path
         d="m 2503.1981,3565.99 c 15.56,2.36 28.76,-10.83 26.38,-26.39 -1.48,-9.71 -9.4,-17.62 -19.1,-19.1 -15.56,-2.41 -28.77,10.82 -26.38,26.38 1.49,9.69 9.4,17.62 19.1,19.11"
         style="fill:#8dd141;fill-opacity:1;fill-rule:nonzero;stroke:none"
         id="path86" /><path
         d="m 2504.1781,3559.58 c -6.88,-1.06 -12.63,-6.8 -13.68,-13.69 -0.82,-5.35 0.88,-10.59 4.64,-14.36 3.77,-3.77 8.99,-5.45 14.37,-4.65 6.87,1.08 12.62,6.82 13.68,13.7 0.81,5.37 -0.88,10.58 -4.66,14.37 -3.76,3.75 -8.99,5.45 -14.35,4.63 z m 2.63,-45.86 c -7.81,0 -15.22,3.05 -20.83,8.65 -6.71,6.74 -9.73,16 -8.28,25.49 1.91,12.52 12,22.6 24.52,24.51 v 0 c 9.45,1.49 18.76,-1.56 25.47,-8.28 6.72,-6.72 9.74,-16 8.3,-25.47 -1.92,-12.52 -12.01,-22.62 -24.53,-24.53 -1.56,-0.23 -3.12,-0.37 -4.65,-0.37"
         style="fill:#4ba946;fill-opacity:1;fill-rule:nonzero;stroke:none"
         id="path88" /><path
         d="m 2457.3481,3633.11 c 8.72,1.33 16.12,-6.07 14.79,-14.78 -0.84,-5.45 -5.28,-9.88 -10.71,-10.7 -8.72,-1.35 -16.12,6.05 -14.78,14.78 0.83,5.43 5.26,9.86 10.7,10.7"
         style="fill:#8dd141;fill-opacity:1;fill-rule:nonzero;stroke:none"
         id="path90" /><path
         d="m 2458.3281,3626.71 c -2.66,-0.41 -4.88,-2.62 -5.29,-5.28 -0.32,-2.1 0.34,-4.14 1.8,-5.62 1.47,-1.45 3.51,-2.09 5.61,-1.8 2.65,0.43 4.87,2.64 5.29,5.3 0.32,2.09 -0.34,4.14 -1.8,5.6 -1.47,1.47 -3.51,2.11 -5.61,1.8 z m 1.03,-25.72 c -5.13,0 -9.98,1.99 -13.67,5.68 -4.42,4.41 -6.4,10.51 -5.44,16.72 1.25,8.22 7.87,14.86 16.11,16.13 0.01,0 0.01,0 0.01,0 6.25,0.96 12.31,-1.05 16.72,-5.45 4.41,-4.41 6.4,-10.51 5.44,-16.74 -1.26,-8.22 -7.9,-14.86 -16.13,-16.11 -1.01,-0.16 -2.03,-0.23 -3.04,-0.23"
         style="fill:#4ba946;fill-opacity:1;fill-rule:nonzero;stroke:none"
         id="path92" /><path
         d="m 2385.0781,3564.44 c 8.72,1.35 16.13,-6.05 14.79,-14.78 -0.83,-5.43 -5.28,-9.89 -10.71,-10.71 -8.72,-1.32 -16.12,6.08 -14.79,14.79 0.84,5.43 5.28,9.88 10.71,10.7"
         style="fill:#8dd141;fill-opacity:1;fill-rule:nonzero;stroke:none"
         id="path94" /><path
         d="m 2385.0781,3564.44 h 0.06 z m 2.02,-6.31 c -0.34,0 -0.68,-0.04 -1.04,-0.07 v 0 c -2.65,-0.41 -4.87,-2.64 -5.28,-5.3 -0.33,-2.09 0.33,-4.14 1.8,-5.6 1.46,-1.47 3.47,-2.11 5.6,-1.8 2.65,0.41 4.89,2.64 5.3,5.29 0.31,2.09 -0.34,4.12 -1.81,5.59 -1.22,1.23 -2.85,1.89 -4.57,1.89 z m -0.01,-25.8 c -5.12,0 -9.98,1.98 -13.67,5.67 -4.41,4.41 -6.4,10.5 -5.45,16.74 1.27,8.22 7.91,14.86 16.13,16.11 6.22,0.96 12.32,-1.02 16.72,-5.43 4.42,-4.43 6.41,-10.51 5.45,-16.74 -1.26,-8.24 -7.89,-14.86 -16.13,-16.11 -1.02,-0.18 -2.04,-0.24 -3.05,-0.24"
         style="fill:#4ba946;fill-opacity:1;fill-rule:nonzero;stroke:none"
         id="path96" /><path
         d="m 2414.4281,3731.68 c 18.7,2.87 34.59,-13.01 31.72,-31.72 -1.79,-11.66 -11.31,-21.18 -22.96,-22.97 -18.71,-2.86 -34.59,13.01 -31.73,31.72 1.79,11.66 11.32,21.19 22.97,22.97"
         style="fill:#8dd141;fill-opacity:1;fill-rule:nonzero;stroke:none"
         id="path98" /><path
         d="m 2414.4281,3731.68 h 0.06 z m 4.36,-6.14 c -1.11,0 -2.25,-0.09 -3.38,-0.26 v 0 c -8.82,-1.35 -16.2,-8.73 -17.54,-17.55 -1.06,-6.85 1.11,-13.56 5.94,-18.39 4.83,-4.83 11.56,-6.99 18.39,-5.95 8.82,1.36 16.2,8.74 17.56,17.55 1.04,6.86 -1.12,13.56 -5.96,18.39 -4.03,4.04 -9.37,6.21 -15.01,6.21 z m -0.02,-55.36 c -9.04,0 -17.62,3.51 -24.11,10.01 -7.78,7.77 -11.28,18.52 -9.6,29.5 2.21,14.49 13.89,26.17 28.39,28.39 10.98,1.68 21.74,-1.81 29.51,-9.59 7.78,-7.78 11.27,-18.53 9.59,-29.51 -2.21,-14.49 -13.89,-26.17 -28.39,-28.39 -1.8,-0.27 -3.61,-0.41 -5.39,-0.41"
         style="fill:#4ba946;fill-opacity:1;fill-rule:nonzero;stroke:none"
         id="path100" /><path
         d="m 1456.8681,3695.25 c -13.12,2.15 -24.29,-9.03 -22.14,-22.13 1.3,-7.94 7.71,-14.34 15.65,-15.64 13.1,-2.15 24.28,9.02 22.12,22.12 -1.3,7.95 -7.7,14.34 -15.63,15.65"
         style="fill:#fae952;fill-opacity:1;fill-rule:nonzero;stroke:none"
         id="path102" /><path
         d="m 1453.6281,3689.04 c -3.38,0 -6.57,-1.3 -8.98,-3.72 -2.92,-2.92 -4.21,-7 -3.53,-11.16 0.86,-5.21 5.1,-9.44 10.31,-10.28 4.14,-0.7 8.23,0.59 11.16,3.52 2.92,2.93 4.2,6.99 3.52,11.15 -0.85,5.22 -5.08,9.45 -10.3,10.31 -0.72,0.11 -1.46,0.18 -2.18,0.18 z m 0.03,-38.3 c -1.44,0 -2.88,0.11 -4.33,0.35 -10.61,1.74 -19.24,10.37 -20.98,20.98 -1.37,8.33 1.24,16.5 7.15,22.41 5.91,5.91 14.1,8.51 22.41,7.16 v 0 c 10.62,-1.75 19.24,-10.37 20.99,-20.99 1.37,-8.33 -1.24,-16.5 -7.16,-22.41 -4.88,-4.88 -11.3,-7.5 -18.08,-7.5"
         style="fill:#f89e2a;fill-opacity:1;fill-rule:nonzero;stroke:none"
         id="path104" /><path
         d="m 1513.5881,3664.95 c -35.1,5.75 -65.01,-24.16 -59.25,-59.26 3.47,-21.25 20.63,-38.4 41.87,-41.89 35.1,-5.74 65.02,24.16 59.26,59.26 -3.48,21.26 -20.63,38.4 -41.88,41.89"
         style="fill:#fae952;fill-opacity:1;fill-rule:nonzero;stroke:none"
         id="path106" /><path
         d="m 1504.8881,3659.17 c -11.89,0 -23.14,-4.59 -31.67,-13.11 -10.34,-10.35 -14.9,-24.68 -12.5,-39.31 3.03,-18.5 18.06,-33.52 36.55,-36.57 14.64,-2.4 28.96,2.17 39.31,12.5 10.35,10.36 14.9,24.67 12.5,39.34 -3.03,18.48 -18.06,33.5 -36.54,36.54 v 0 c -2.56,0.42 -5.12,0.61 -7.65,0.61 z m 0.08,-102.56 c -3.24,0 -6.52,0.25 -9.8,0.8 -23.9,3.93 -43.31,23.34 -47.22,47.23 -3.09,18.81 2.78,37.24 16.11,50.58 13.34,13.32 31.77,19.21 50.58,16.12 v 0 c 23.88,-3.92 43.3,-23.35 47.22,-47.23 3.09,-18.81 -2.79,-37.25 -16.12,-50.59 -11,-10.99 -25.47,-16.91 -40.77,-16.91"
         style="fill:#f89e2a;fill-opacity:1;fill-rule:nonzero;stroke:none"
         id="path108" /><path
         d="m 1369.0681,3668.08 c -22.39,3.67 -41.46,-15.4 -37.79,-37.78 2.23,-13.55 13.15,-24.49 26.71,-26.72 22.38,-3.67 41.46,15.41 37.79,37.8 -2.23,13.55 -13.16,24.48 -26.71,26.7"
         style="fill:#fae952;fill-opacity:1;fill-rule:nonzero;stroke:none"
         id="path110" /><path
         d="m 1363.5281,3662.05 c -6.97,0 -13.55,-2.67 -18.55,-7.68 -6.04,-6.06 -8.72,-14.44 -7.31,-23.03 1.78,-10.8 10.56,-19.59 21.37,-21.37 8.59,-1.41 16.98,1.25 23.03,7.32 6.05,6.06 8.73,14.44 7.31,23.03 -1.77,10.81 -10.55,19.6 -21.36,21.36 v 0 c -1.5,0.25 -3.02,0.37 -4.49,0.37 z m 0.05,-65.4 c -2.18,0 -4.42,0.18 -6.64,0.55 -16.21,2.65 -29.39,15.84 -32.05,32.05 -2.09,12.73 1.9,25.25 10.94,34.28 9.04,9.04 21.55,13.04 34.29,10.94 v 0 c 16.21,-2.66 29.39,-15.84 32.05,-32.06 2.09,-12.75 -1.9,-25.23 -10.94,-34.28 -7.46,-7.46 -17.28,-11.48 -27.65,-11.48"
         style="fill:#f89e2a;fill-opacity:1;fill-rule:nonzero;stroke:none"
         id="path112" /><path
         d="m 1357.7581,3799.88 c -16.7,2.56 -30.87,-11.61 -28.32,-28.31 1.6,-10.4 10.1,-18.91 20.5,-20.5 16.71,-2.56 30.87,11.61 28.31,28.31 -1.6,10.4 -10.1,18.91 -20.49,20.5"
         style="fill:#fae952;fill-opacity:1;fill-rule:nonzero;stroke:none"
         id="path114" /><path
         d="m 1353.8681,3793.71 c -4.86,0 -9.45,-1.88 -12.92,-5.35 -4.14,-4.15 -6,-9.91 -5.11,-15.81 1.17,-7.58 7.5,-13.91 15.08,-15.07 5.9,-0.89 11.66,0.96 15.82,5.11 4.15,4.15 6.02,9.91 5.11,15.81 -1.16,7.59 -7.5,13.92 -15.07,15.09 -0.97,0.14 -1.95,0.22 -2.91,0.22 z m 0.02,-49.41 c -1.63,0 -3.27,0.12 -4.93,0.38 -13.23,2.01 -23.89,12.67 -25.92,25.91 -1.54,10.01 1.66,19.83 8.75,26.93 7.11,7.1 16.91,10.31 26.95,8.76 v 0 c 13.23,-2.02 23.88,-12.68 25.91,-25.92 1.55,-10.02 -1.66,-19.83 -8.75,-26.93 -5.93,-5.93 -13.76,-9.13 -22.01,-9.13"
         style="fill:#f89e2a;fill-opacity:1;fill-rule:nonzero;stroke:none"
         id="path116" /><path
         d="m 1393.4981,3900.33 c -8.73,1.32 -16.13,-6.07 -14.79,-14.79 0.83,-5.44 5.27,-9.87 10.71,-10.71 8.71,-1.33 16.12,6.07 14.78,14.78 -0.84,5.44 -5.27,9.89 -10.7,10.72"
         style="fill:#fae952;fill-opacity:1;fill-rule:nonzero;stroke:none"
         id="path118" /><path
         d="m 1391.4781,3894 c -1.72,0 -3.36,-0.65 -4.56,-1.88 -1.47,-1.47 -2.13,-3.5 -1.81,-5.6 0.4,-2.66 2.63,-4.88 5.29,-5.29 2.09,-0.33 4.14,0.34 5.6,1.81 1.46,1.45 2.11,3.5 1.8,5.6 -0.4,2.66 -2.62,4.88 -5.28,5.29 -0.35,0.05 -0.69,0.07 -1.04,0.07 z m 0.01,-25.8 c -1.01,0 -2.03,0.08 -3.06,0.23 -8.22,1.27 -14.86,7.89 -16.13,16.12 -0.94,6.22 1.04,12.32 5.45,16.73 4.41,4.41 10.53,6.39 16.73,5.45 v 0 c 8.23,-1.27 14.87,-7.9 16.12,-16.13 0.95,-6.22 -1.03,-12.31 -5.45,-16.73 -3.69,-3.68 -8.53,-5.67 -13.66,-5.67"
         style="fill:#f89e2a;fill-opacity:1;fill-rule:nonzero;stroke:none"
         id="path120" /><path
         d="m 1513.2081,3762.01 c -8.72,1.33 -16.12,-6.06 -14.78,-14.79 0.83,-5.42 5.27,-9.87 10.7,-10.7 8.73,-1.34 16.12,6.06 14.79,14.78 -0.82,5.43 -5.27,9.88 -10.71,10.71"
         style="fill:#fae952;fill-opacity:1;fill-rule:nonzero;stroke:none"
         id="path122" /><path
         d="m 1511.1881,3755.69 c -1.73,0 -3.34,-0.66 -4.56,-1.88 -1.46,-1.47 -2.12,-3.51 -1.8,-5.6 0.4,-2.66 2.63,-4.89 5.28,-5.29 2.1,-0.32 4.14,0.33 5.6,1.8 1.48,1.46 2.13,3.51 1.81,5.61 -0.41,2.65 -2.64,4.87 -5.28,5.28 v 0 c -0.36,0.05 -0.71,0.08 -1.05,0.08 z m 0.01,-25.81 c -1.01,0 -2.03,0.08 -3.05,0.24 -8.23,1.25 -14.86,7.89 -16.12,16.12 -0.95,6.22 1.03,12.31 5.44,16.72 4.41,4.42 10.52,6.41 16.72,5.45 8.24,-1.26 14.87,-7.88 16.12,-16.13 0.96,-6.21 -1.02,-12.31 -5.43,-16.72 -3.68,-3.68 -8.55,-5.68 -13.68,-5.68"
         style="fill:#f89e2a;fill-opacity:1;fill-rule:nonzero;stroke:none"
         id="path124" /><path
         d="m 1411.6381,3562.02 c -11.88,2.25 -22.12,-7.97 -19.87,-19.86 1.25,-6.62 6.66,-12.03 13.27,-13.26 11.88,-2.27 22.12,7.96 19.87,19.84 -1.25,6.64 -6.65,12.03 -13.27,13.28"
         style="fill:#fae952;fill-opacity:1;fill-rule:nonzero;stroke:none"
         id="path126" /><path
         d="m 1408.3381,3555.87 c -2.77,0 -5.38,-1.08 -7.36,-3.05 -2.48,-2.48 -3.52,-5.94 -2.85,-9.47 0.76,-4.01 4.1,-7.35 8.11,-8.11 3.54,-0.68 6.98,0.37 9.46,2.85 2.47,2.49 3.52,5.92 2.84,9.46 -0.75,4 -4.08,7.36 -8.11,8.1 v 0 c -0.7,0.14 -1.39,0.22 -2.09,0.22 z m -0.07,-33.77 c -1.46,0 -2.95,0.14 -4.45,0.43 -9.25,1.76 -16.65,9.16 -18.42,18.42 -1.45,7.69 0.94,15.54 6.43,21.01 5.47,5.49 13.34,7.87 21.02,6.43 v 0 c 9.26,-1.76 16.67,-9.16 18.41,-18.42 1.47,-7.7 -0.93,-15.55 -6.41,-21.04 -4.41,-4.41 -10.39,-6.83 -16.58,-6.83"
         style="fill:#f89e2a;fill-opacity:1;fill-rule:nonzero;stroke:none"
         id="path128" /><path
         d="m 1466.1781,3839.35 c -18.7,2.88 -34.58,-13.01 -31.72,-31.71 1.79,-11.66 11.32,-21.19 22.97,-22.97 18.71,-2.86 34.59,13.01 31.72,31.72 -1.78,11.66 -11.31,21.18 -22.97,22.96"
         style="fill:#fae952;fill-opacity:1;fill-rule:nonzero;stroke:none"
         id="path130" /><path
         d="m 1461.8181,3833.22 c -5.64,0 -10.98,-2.18 -15.01,-6.21 -4.83,-4.83 -7,-11.53 -5.95,-18.39 1.35,-8.82 8.73,-16.2 17.55,-17.55 6.87,-1.07 13.56,1.12 18.39,5.95 4.83,4.83 7,11.54 5.95,18.39 -1.35,8.82 -8.73,16.19 -17.55,17.55 -1.14,0.17 -2.26,0.26 -3.38,0.26 z m 0.02,-55.36 c -1.78,0 -3.58,0.13 -5.39,0.41 -14.49,2.22 -26.17,13.89 -28.39,28.39 -1.68,10.98 1.82,21.73 9.6,29.51 7.77,7.77 18.53,11.29 29.5,9.59 v 0 c 14.49,-2.22 26.17,-13.89 28.39,-28.39 1.68,-10.97 -1.82,-21.73 -9.59,-29.5 -6.49,-6.5 -15.07,-10.01 -24.12,-10.01"
         style="fill:#f89e2a;fill-opacity:1;fill-rule:nonzero;stroke:none"
         id="path132" /><path
         d="m 1398.2281,3739.86 c -8.5,1.3 -15.73,-5.92 -14.43,-14.42 0.82,-5.3 5.14,-9.63 10.45,-10.43 8.49,-1.31 15.71,5.91 14.4,14.41 -0.81,5.29 -5.13,9.62 -10.42,10.44"
         style="fill:#fae952;fill-opacity:1;fill-rule:nonzero;stroke:none"
         id="path134" /><path
         d="m 1396.2381,3733.53 c -1.63,0 -3.16,-0.63 -4.33,-1.79 -1.38,-1.39 -2.01,-3.33 -1.71,-5.32 0.39,-2.48 2.54,-4.63 5.02,-5.01 1.99,-0.32 3.94,0.31 5.33,1.7 1.38,1.4 2,3.33 1.71,5.33 -0.38,2.48 -2.54,4.63 -5.02,5.02 -0.34,0.05 -0.66,0.07 -1,0.07 z m 0.02,-25.16 c -0.99,0 -2,0.08 -2.99,0.24 -8.1,1.23 -14.63,7.76 -15.87,15.84 -0.94,6.12 1.02,12.12 5.36,16.45 4.33,4.34 10.31,6.31 16.44,5.35 h 0.01 c 8.09,-1.24 14.61,-7.76 15.84,-15.85 0.94,-6.11 -1.01,-12.11 -5.35,-16.45 -3.62,-3.62 -8.41,-5.58 -13.44,-5.58"
         style="fill:#f89e2a;fill-opacity:1;fill-rule:nonzero;stroke:none"
         id="path136" /><path
         d="m 1987.0381,3612.68 c -15.78,2.6 -29.23,-10.85 -26.64,-26.62 1.56,-9.57 9.27,-17.26 18.83,-18.84 15.77,-2.58 29.22,10.86 26.63,26.64 -1.56,9.55 -9.27,17.26 -18.82,18.82"
         style="fill:#f14e27;fill-opacity:1;fill-rule:nonzero;stroke:none"
         id="path138" /><path
         d="m 1983.1381,3606.53 c -4.42,0 -8.58,-1.7 -11.73,-4.84 -3.83,-3.85 -5.52,-9.16 -4.62,-14.59 1.11,-6.82 6.67,-12.36 13.48,-13.5 5.42,-0.88 10.75,0.8 14.58,4.65 3.83,3.81 5.52,9.12 4.62,14.57 -1.11,6.82 -6.66,12.36 -13.48,13.48 -0.96,0.15 -1.91,0.23 -2.85,0.23 z m 0.03,-46.11 c -1.65,0 -3.31,0.14 -5,0.41 -12.21,2.01 -22.16,11.93 -24.17,24.18 -1.56,9.61 1.44,19.02 8.26,25.84 6.8,6.8 16.22,9.8 25.83,8.22 12.22,-1.99 22.16,-11.93 24.17,-24.16 1.57,-9.61 -1.44,-19.02 -8.24,-25.84 -5.64,-5.62 -13.03,-8.65 -20.85,-8.65"
         style="fill:#c12f23;fill-opacity:1;fill-rule:nonzero;stroke:none"
         id="path140" /><path
         d="m 1901.0281,3589.29 c -33.4,5.46 -61.86,-23.01 -56.38,-56.39 3.32,-20.24 19.63,-36.54 39.85,-39.86 33.39,-5.47 61.86,22.98 56.37,56.38 -3.31,20.24 -19.62,36.55 -39.84,39.87"
         style="fill:#f14e27;fill-opacity:1;fill-rule:nonzero;stroke:none"
         id="path142" /><path
         d="m 1892.7481,3583.49 c -11.23,0 -21.85,-4.34 -29.91,-12.41 -9.77,-9.76 -14.07,-23.3 -11.81,-37.13 2.87,-17.46 17.06,-31.66 34.52,-34.53 13.82,-2.26 27.36,2.05 37.14,11.82 9.77,9.76 14.06,23.3 11.79,37.13 -2.85,17.46 -17.05,31.66 -34.5,34.51 v 0 c -2.43,0.41 -4.84,0.61 -7.23,0.61 z m 0.08,-97.6 c -3.11,0 -6.24,0.25 -9.37,0.76 -22.87,3.77 -41.45,22.34 -45.2,45.19 -2.95,18.01 2.67,35.65 15.42,48.4 12.75,12.76 30.4,18.38 48.39,15.41 v 0 c 22.87,-3.73 41.45,-22.32 45.2,-45.17 2.95,-18.01 -2.67,-35.65 -15.42,-48.4 -10.53,-10.53 -24.38,-16.19 -39.02,-16.19"
         style="fill:#c12f23;fill-opacity:1;fill-rule:nonzero;stroke:none"
         id="path144" /><path
         d="m 1867.7181,3738.66 c -20.09,3.07 -37.15,-13.99 -34.08,-34.09 1.92,-12.52 12.16,-22.75 24.68,-24.67 20.1,-3.08 37.16,13.98 34.08,34.08 -1.91,12.52 -12.15,22.76 -24.68,24.68"
         style="fill:#f14e27;fill-opacity:1;fill-rule:nonzero;stroke:none"
         id="path146" /><path
         d="m 1863.0281,3732.53 c -6.18,0 -12.03,-2.38 -16.46,-6.8 -5.3,-5.3 -7.68,-12.66 -6.53,-20.18 1.49,-9.67 9.58,-17.78 19.25,-19.25 7.52,-1.14 14.87,1.22 20.19,6.52 5.29,5.3 7.68,12.65 6.53,20.18 -1.49,9.67 -9.58,17.77 -19.26,19.25 v 0 c -1.26,0.2 -2.5,0.28 -3.72,0.28 z m 0.03,-59.47 c -1.89,0 -3.8,0.14 -5.72,0.44 -15.37,2.35 -27.75,14.72 -30.1,30.09 -1.78,11.64 1.93,23.05 10.18,31.3 8.24,8.23 19.65,11.95 31.29,10.16 v 0 c 15.36,-2.35 27.73,-14.73 30.09,-30.09 1.79,-11.65 -1.92,-23.05 -10.17,-31.29 -6.89,-6.89 -15.98,-10.61 -25.57,-10.61"
         style="fill:#c12f23;fill-opacity:1;fill-rule:nonzero;stroke:none"
         id="path148" /><path
         d="m 1895.2081,3828.5 c -10.49,1.62 -19.4,-7.29 -17.79,-17.79 1,-6.54 6.35,-11.89 12.89,-12.89 10.5,-1.61 19.41,7.3 17.79,17.8 -1,6.54 -6.34,11.88 -12.89,12.88"
         style="fill:#f14e27;fill-opacity:1;fill-rule:nonzero;stroke:none"
         id="path150" /><path
         d="m 1892.7681,3822.22 c -2.41,0 -4.69,-0.93 -6.41,-2.65 -2.07,-2.07 -3,-4.94 -2.54,-7.88 0.57,-3.75 3.72,-6.9 7.47,-7.47 2.95,-0.44 5.81,0.47 7.87,2.54 2.07,2.06 3,4.94 2.54,7.88 -0.56,3.75 -3.71,6.9 -7.46,7.46 v 0 c -0.5,0.08 -0.98,0.12 -1.47,0.12 z m 0.02,-31.06 c -1.14,0 -2.3,0.08 -3.46,0.26 -9.35,1.43 -16.87,8.95 -18.31,18.31 -1.09,7.06 1.17,13.98 6.19,19 5,5.01 11.95,7.27 19,6.17 9.34,-1.42 16.87,-8.95 18.3,-18.29 1.09,-7.07 -1.18,-14 -6.18,-19 -4.18,-4.2 -9.71,-6.45 -15.54,-6.45"
         style="fill:#c12f23;fill-opacity:1;fill-rule:nonzero;stroke:none"
         id="path152" /><path
         d="m 2011.1681,3697.75 c -21.32,3.26 -39.42,-14.84 -36.16,-36.17 2.04,-13.28 12.89,-24.13 26.18,-26.18 21.34,-3.26 39.43,14.84 36.17,36.16 -2.04,13.29 -12.89,24.15 -26.19,26.19"
         style="fill:#f14e27;fill-opacity:1;fill-rule:nonzero;stroke:none"
         id="path154" /><path
         d="m 2006.1981,3691.66 c -6.67,0 -12.98,-2.58 -17.74,-7.35 -5.72,-5.71 -8.29,-13.64 -7.04,-21.74 1.59,-10.44 10.32,-19.18 20.76,-20.76 8.1,-1.25 16.03,1.32 21.75,7.02 5.7,5.71 8.27,13.65 7.03,21.75 -1.6,10.44 -10.33,19.17 -20.77,20.77 -1.33,0.21 -2.68,0.31 -3.99,0.31 z m 0.02,-63.14 c -1.98,0 -3.99,0.16 -6.01,0.47 -16.14,2.48 -29.13,15.48 -31.6,31.62 -1.87,12.22 2.02,24.19 10.68,32.86 8.66,8.66 20.65,12.56 32.87,10.67 v 0 c 16.13,-2.47 29.13,-15.46 31.6,-31.6 1.87,-12.22 -2.03,-24.21 -10.68,-32.86 -7.24,-7.25 -16.78,-11.16 -26.86,-11.16"
         style="fill:#c12f23;fill-opacity:1;fill-rule:nonzero;stroke:none"
         id="path156" /><path
         d="m 1932.5981,3452.31 c -14.32,2.72 -26.64,-9.61 -23.93,-23.92 1.51,-7.97 8.02,-14.48 15.97,-15.98 14.32,-2.71 26.64,9.59 23.92,23.93 -1.5,7.97 -8,14.45 -15.96,15.97"
         style="fill:#f14e27;fill-opacity:1;fill-rule:nonzero;stroke:none"
         id="path158" /><path
         d="m 1928.6081,3446.2 c -3.67,0 -7.14,-1.41 -9.78,-4.06 -3.31,-3.28 -4.68,-7.87 -3.79,-12.56 1,-5.33 5.45,-9.79 10.81,-10.8 4.7,-0.9 9.26,0.49 12.56,3.79 3.29,3.3 4.69,7.87 3.8,12.56 -1.02,5.35 -5.46,9.8 -10.81,10.82 h -0.01 c -0.92,0.17 -1.86,0.25 -2.78,0.25 z m -0.06,-40.62 c -1.7,0 -3.41,0.15 -5.11,0.48 -10.63,2 -19.11,10.49 -21.13,21.12 -1.67,8.82 1.08,17.85 7.36,24.14 6.29,6.27 15.31,9.02 24.13,7.34 10.62,-2.01 19.11,-10.49 21.13,-21.11 1.67,-8.85 -1.08,-17.87 -7.36,-24.14 -5.07,-5.06 -11.92,-7.83 -19.02,-7.83"
         style="fill:#c12f23;fill-opacity:1;fill-rule:nonzero;stroke:none"
         id="path160" /><path
         d="m 1971.7181,3810.57 c -16.41,2.52 -30.36,-11.42 -27.84,-27.83 1.57,-10.23 9.92,-18.59 20.15,-20.15 16.42,-2.51 30.35,11.42 27.82,27.83 -1.55,10.22 -9.91,18.59 -20.13,20.15"
         style="fill:#f14e27;fill-opacity:1;fill-rule:nonzero;stroke:none"
         id="path162" /><path
         d="m 1967.8881,3804.39 c -4.74,0 -9.22,-1.83 -12.61,-5.22 -4.06,-4.06 -5.88,-9.68 -5,-15.45 1.14,-7.4 7.33,-13.6 14.73,-14.74 5.75,-0.86 11.4,0.95 15.46,5.01 4.05,4.06 5.88,9.69 4.99,15.45 -1.13,7.4 -7.32,13.6 -14.73,14.73 v 0 c -0.96,0.16 -1.9,0.22 -2.84,0.22 z m 0.01,-48.58 c -1.6,0 -3.22,0.13 -4.85,0.38 -13.06,2 -23.58,12.52 -25.57,25.57 -1.51,9.88 1.63,19.57 8.64,26.57 7.01,7.01 16.7,10.15 26.57,8.64 v 0 c 13.06,-2 23.58,-12.51 25.57,-25.57 1.52,-9.88 -1.63,-19.56 -8.63,-26.56 -5.85,-5.86 -13.58,-9.03 -21.73,-9.03"
         style="fill:#c12f23;fill-opacity:1;fill-rule:nonzero;stroke:none"
         id="path164" /><path
         d="m 1916.4381,3666.39 c -10.23,1.57 -18.92,-7.12 -17.35,-17.35 0.97,-6.38 6.18,-11.59 12.56,-12.57 10.23,-1.56 18.92,7.13 17.35,17.36 -0.98,6.37 -6.18,11.58 -12.56,12.56"
         style="fill:#f14e27;fill-opacity:1;fill-rule:nonzero;stroke:none"
         id="path166" /><path
         d="m 1914.0681,3660.09 c -2.33,0 -4.51,-0.89 -6.16,-2.54 -1.97,-1.96 -2.86,-4.72 -2.43,-7.54 0.55,-3.58 3.56,-6.58 7.15,-7.13 2.81,-0.43 5.57,0.45 7.54,2.43 1.98,1.97 2.86,4.72 2.43,7.53 -0.55,3.6 -3.55,6.6 -7.13,7.14 h -0.01 c -0.47,0.08 -0.93,0.11 -1.39,0.11 z m 0,-30.28 c -1.12,0 -2.25,0.08 -3.4,0.28 -9.18,1.4 -16.58,8.79 -17.98,17.97 -1.07,6.94 1.15,13.74 6.07,18.66 4.92,4.91 11.72,7.15 18.65,6.07 9.19,-1.4 16.59,-8.8 17.99,-17.99 1.06,-6.93 -1.15,-13.74 -6.07,-18.66 -4.12,-4.1 -9.54,-6.33 -15.26,-6.33"
         style="fill:#c12f23;fill-opacity:1;fill-rule:nonzero;stroke:none"
         id="path168" /><path
         d="m 1558.9581,3357.47 h -267.37 c -9.65,0 -17.48,-7.81 -17.48,-17.46 v -20.96 c 0,-9.65 7.83,-17.48 17.48,-17.48 h 22.3 v -850.98 c 0,-59.84 47.84,-108.41 107.34,-109.78 v 0 c 0.87,-0.02 1.72,-0.14 2.58,-0.14 60.72,0 109.93,49.22 109.93,109.92 v 850.98 h 25.22 c 9.65,0 17.48,7.83 17.48,17.48 v 20.96 c 0,9.65 -7.83,17.46 -17.48,17.46"
         style="fill:#ffffff;fill-opacity:1;fill-rule:nonzero;stroke:none"
         id="path170" /><path
         d="m 1291.5881,3342.61 c -1.43,0 -2.61,-1.18 -2.61,-2.6 v -20.96 c 0,-1.42 1.18,-2.6 2.61,-2.6 h 37.17 v -865.86 c 0,-51.15 41.64,-93.73 92.82,-94.92 0.62,-0.02 1.25,-0.06 1.88,-0.09 0.02,0 0.04,0 0.06,0 52.73,0 95.34,42.63 95.34,95.01 v 865.86 h 40.1 c 1.43,0 2.6,1.18 2.6,2.6 v 20.96 c 0,1.42 -1.17,2.6 -2.6,2.6 z m 132.22,-1016.8 c -0.83,0 -1.64,0.04 -2.46,0.1 -67.66,1.58 -122.34,57.52 -122.34,124.68 v 836.12 h -7.42 c -17.84,0 -32.35,14.51 -32.35,32.34 v 20.96 c 0,17.83 14.51,32.34 32.35,32.34 h 267.37 c 17.84,0 32.35,-14.51 32.35,-32.34 v -20.96 c 0,-17.83 -14.51,-32.34 -32.35,-32.34 h -10.35 v -836.12 c 0,-68.8 -55.98,-124.78 -124.8,-124.78"
         style="fill:#469edd;fill-opacity:1;fill-rule:nonzero;stroke:none"
         id="path172" /><path
         d="m 1349.3581,2766.02 v -301.77 c 0,-45.14 32.41,-81.78 72.71,-82.84 v 0 c 0.59,0 1.16,-0.09 1.74,-0.09 41.13,0 74.45,37.13 74.45,82.93 v 301.77 h -148.9"
         style="fill:#fae952;fill-opacity:1;fill-rule:nonzero;stroke:none"
         id="path174" /><path
         d="m 1355.8281,2759.56 v -295.31 c 0,-41.16 29.79,-75.41 66.41,-76.35 l 1.12,-0.06 c 0.02,0 0.03,0 0.05,0 37.92,0 68.38,34.26 68.38,76.41 v 295.31 z m 67.98,-384.71 c -0.5,0 -0.98,0.02 -1.48,0.06 -44.74,1.19 -79.44,40.39 -79.44,89.34 v 308.26 h 161.86 v -308.26 c 0,-49.3 -36.31,-89.4 -80.94,-89.4"
         style="fill:#f89e2a;fill-opacity:1;fill-rule:nonzero;stroke:none"
         id="path176" /><path
         d="m 2072.3381,3357.47 h -267.36 c -9.65,0 -17.48,-7.81 -17.48,-17.46 v -20.96 c 0,-9.65 7.83,-17.48 17.48,-17.48 h 22.29 v -850.98 c 0,-59.84 47.84,-108.41 107.36,-109.78 v 0 c 0.85,-0.02 1.7,-0.14 2.57,-0.14 60.71,0 109.92,49.22 109.92,109.92 v 850.98 h 25.22 c 9.65,0 17.47,7.83 17.47,17.48 v 20.96 c 0,9.65 -7.82,17.46 -17.47,17.46"
         style="fill:#ffffff;fill-opacity:1;fill-rule:nonzero;stroke:none"
         id="path178" /><path
         d="m 1804.9781,3342.61 c -1.44,0 -2.6,-1.18 -2.6,-2.6 v -20.96 c 0,-1.42 1.16,-2.6 2.6,-2.6 h 37.17 v -865.86 c 0,-51.15 41.63,-93.73 92.82,-94.92 0.61,-0.02 1.24,-0.06 1.87,-0.09 0.02,0 0.04,0 0.05,0 52.75,0 95.37,42.63 95.37,95.01 v 865.86 h 40.08 c 1.43,0 2.61,1.18 2.61,2.6 v 20.96 c 0,1.42 -1.18,2.6 -2.61,2.6 z m 132.22,-1016.8 c -0.83,0 -1.65,0.04 -2.46,0.1 -67.67,1.58 -122.34,57.5 -122.34,124.68 v 836.12 h -7.42 c -17.84,0 -32.35,14.51 -32.35,32.34 v 20.96 c 0,17.83 14.51,32.34 32.35,32.34 h 267.36 c 17.84,0 32.35,-14.51 32.35,-32.34 v -20.96 c 0,-17.83 -14.51,-32.34 -32.35,-32.34 h -10.34 v -836.12 c 0,-68.8 -55.99,-124.78 -124.8,-124.78"
         style="fill:#469edd;fill-opacity:1;fill-rule:nonzero;stroke:none"
         id="path180" /><path
         d="m 1868.1981,3015.93 v -558.36 c 0,-40.73 30.04,-73.77 67.38,-74.73 v 0 c 0.54,0 1.07,-0.08 1.62,-0.08 38.1,0 68.98,33.5 68.98,74.81 v 558.36 h -137.98"
         style="fill:#f14e27;fill-opacity:1;fill-rule:nonzero;stroke:none"
         id="path182" /><path
         d="m 1874.6881,3009.44 v -551.87 c 0,-36.78 27.38,-67.41 61.06,-68.24 l 1.07,-0.06 c 0.01,0 0.02,0 0.04,0 34.83,0 62.85,30.64 62.85,68.3 v 551.87 z m 62.51,-633.16 c -0.47,0 -0.94,0.04 -1.39,0.08 -41.7,1.05 -74.07,36.72 -74.07,81.21 v 558.36 c 0,3.57 2.89,6.48 6.47,6.48 h 137.97 c 3.59,0 6.48,-2.91 6.48,-6.48 v -558.36 c 0,-44.83 -33.85,-81.29 -75.46,-81.29"
         style="fill:#c12f23;fill-opacity:1;fill-rule:nonzero;stroke:none"
         id="path184" /><path
         d="m 2585.7181,3357.47 h -267.36 c -9.65,0 -17.47,-7.81 -17.47,-17.46 v -20.96 c 0,-9.65 7.82,-17.48 17.47,-17.48 h 22.29 v -850.98 c 0,-59.84 47.85,-108.41 107.35,-109.78 v 0 c 0.87,-0.02 1.71,-0.14 2.58,-0.14 60.71,0 109.93,49.22 109.93,109.92 v 850.98 h 25.21 c 9.66,0 17.48,7.83 17.48,17.48 v 20.96 c 0,9.65 -7.82,17.46 -17.48,17.46"
         style="fill:#ffffff;fill-opacity:1;fill-rule:nonzero;stroke:none"
         id="path186" /><path
         d="m 2318.3581,3342.61 c -1.43,0 -2.59,-1.18 -2.59,-2.6 v -20.96 c 0,-1.42 1.16,-2.6 2.59,-2.6 h 37.16 v -865.86 c 0,-51.15 41.65,-93.73 92.83,-94.92 0.61,-0.02 1.25,-0.06 1.87,-0.09 0.02,0 0.04,0 0.06,0 52.75,0 95.35,42.63 95.35,95.01 v 865.86 h 40.09 c 1.44,0 2.6,1.18 2.6,2.6 v 20.96 c 0,1.42 -1.16,2.6 -2.6,2.6 z m 132.22,-1016.8 c -0.83,0 -1.64,0.04 -2.46,0.1 -67.67,1.58 -122.34,57.52 -122.34,124.68 v 836.12 h -7.42 c -17.83,0 -32.34,14.51 -32.34,32.34 v 20.96 c 0,17.83 14.51,32.34 32.34,32.34 h 267.36 c 17.84,0 32.35,-14.51 32.35,-32.34 v -20.96 c 0,-17.83 -14.51,-32.34 -32.35,-32.34 h -10.34 v -836.12 c 0,-68.8 -55.99,-124.78 -124.8,-124.78"
         style="fill:#469edd;fill-opacity:1;fill-rule:nonzero;stroke:none"
         id="path188" /><path
         d="m 2372.7481,2766.02 v -291.38 c 0,-47.74 34.52,-86.49 77.44,-87.58 v 0 c 0.62,-0.02 1.22,-0.12 1.85,-0.12 43.79,0 79.29,39.28 79.29,87.7 v 291.38 h -158.58"
         style="fill:#8dd141;fill-opacity:1;fill-rule:nonzero;stroke:none"
         id="path190" /><path
         d="m 2379.2381,2759.56 v -284.92 c 0,-43.71 31.89,-80.1 71.11,-81.12 l 1.16,-0.05 c 0.02,0 0.04,0 0.06,0 40.65,0 73.28,36.42 73.28,81.17 v 284.92 z m 72.8,-379.08 c -0.51,0 -1.02,0.02 -1.51,0.06 -47.47,1.25 -84.25,42.57 -84.25,94.1 v 291.38 c 0,3.58 2.9,6.49 6.47,6.49 h 158.58 c 3.57,0 6.47,-2.91 6.47,-6.49 v -291.38 c 0,-51.92 -38.46,-94.16 -85.76,-94.16"
         style="fill:#4ba946;fill-opacity:1;fill-rule:nonzero;stroke:none"
         id="path192" /><path
         d="m 2756.6081,3138.97 c 0,-13.36 -11.74,-24.2 -26.22,-24.2 h -1602.694 c -14.488,0 -26.227,10.84 -26.227,24.2 v 6.9 c 0,13.36 11.739,24.18 26.227,24.18 h 1602.694 c 14.48,0 26.22,-10.82 26.22,-24.18 v -6.9"
         style="fill:#4c4564;fill-opacity:1;fill-rule:nonzero;stroke:none"
         id="path194" /><path
         d="m 1218.2081,2234.7 h -44.56 v 907.71 h 44.56 V 2234.7"
         style="fill:#4c4564;fill-opacity:1;fill-rule:nonzero;stroke:none"
         id="path196" /><path
         d="m 2692.7081,2234.7 h -44.55 v 907.71 h 44.55 V 2234.7"
         style="fill:#4c4564;fill-opacity:1;fill-rule:nonzero;stroke:none"
         id="path198" /><path
         d="m 2809.4281,2217.37 c 0,-13.38 -11.74,-24.2 -26.22,-24.2 h -1700.061 c -14.477,0 -26.215,10.82 -26.215,24.2 v 27.6 c 0,13.36 11.738,24.2 26.215,24.2 h 1700.061 c 14.48,0 26.22,-10.84 26.22,-24.2 v -27.6"
         style="fill:#4c4564;fill-opacity:1;fill-rule:nonzero;stroke:none"
         id="path200" /><path
         d="m 5612.3381,3853.15 c -2.31,0 -4.63,0.03 -6.95,0.1 -38.78,1.08 -104.81,17.94 -106.34,74.27 -0.59,21.86 6.65,40.7 21.55,56 22.59,23.22 62.44,37.08 106.59,37.08 33.5,0 64.27,-8.07 84.4,-22.15 22.84,-15.98 40.45,-40.19 53.75,-73.96 -32.1,-45.37 -87.71,-71.34 -153,-71.34 z m -68.37,364.89 c -14.12,-51.93 -68.03,-75.18 -115.2,-75.18 -37.22,0 -70.96,13.54 -90.25,36.22 -15.76,18.5 -21.75,42.78 -17.32,70.22 8.3,51.29 52.34,93.36 117.83,112.53 19.17,5.61 39.49,8.5 60.41,8.57 1.58,-1.57 3.16,-3.18 4.71,-4.84 37.66,-40.1 53.28,-98.01 39.82,-147.52 z m 265.42,-355.81 c -4.22,21.5 -9.08,40.31 -14.8,57.4 29.37,49 42.43,113.61 35.83,177.67 -13.9,135.02 -110.71,248.66 -246.64,289.5 -23.06,6.92 -47.55,10.78 -72.83,11.46 -16.47,15.64 -34.77,27.35 -54.4,34.82 -20.09,7.65 -42,11.52 -65.13,11.52 -64.71,0 -129.55,-29.24 -184.44,-57.85 -77.42,-40.35 -157.13,-97.01 -236.9,-168.39 -4.36,-3.9 -5.77,-9.33 -3.78,-14.55 2.21,-5.78 8.02,-9.82 14.12,-9.82 3.49,0 6.79,1.3 9.53,3.76 82.83,74.11 209.32,176.66 350.88,211.37 46.36,11.37 89.28,6.84 124.89,-13.16 -85.95,-11.07 -148.94,-58.54 -169.79,-128.82 -12.02,-40.57 -2.03,-84.68 26.08,-115.1 22.38,-24.24 57.12,-37.04 100.47,-37.04 13.67,0 27.95,1.26 42.41,3.76 63.19,10.9 89.91,47.97 101.22,77.14 19.76,51.03 8.06,118.78 -28.94,171.73 41.14,-6.09 83.4,-22.09 122.9,-46.62 124.49,-77.3 178.65,-243.67 121.33,-368.28 -20.7,43.56 -50,72.81 -87.27,87 -19.17,7.31 -41.28,11.16 -63.92,11.16 -63.25,0 -136.14,-30.42 -156.39,-98.39 -8.65,-29.06 -5.25,-54.27 10.14,-74.91 28.58,-38.32 92.05,-51.98 141.91,-51.98 12.21,0 23.7,0.8 34.15,2.39 46.24,7.01 86.05,29.41 115.69,64.95 12.83,-46.97 16.85,-98.74 20.12,-140.81 l 1.19,-15.12 c 9.08,-111.73 7.93,-225.22 6.9,-325.36 -0.03,-3.91 1.28,-7.34 3.82,-9.9 2.62,-2.64 6.42,-4.16 10.4,-4.16 7.09,0 14.34,4.8 14.43,13.96 l 0.37,34.28 c 1.61,137.79 3.27,280.27 -23.55,416.39"
         style="fill:#51aee5;fill-opacity:1;fill-rule:nonzero;stroke:none"
         id="path202" /><path
         d="m 5387.0881,2231.8 c -1.49,-4.03 -2.57,-10.3 2.95,-14.03 l 854.34,6.51 c 2.51,1.77 6.06,4.94 6.85,8.51 0.62,2.74 -0.54,6.1 -3.44,9.96 -17.59,23.46 -353.83,510.35 -368.12,531.06 l -2.09,3.02 v 567.7 h 27.47 c 6.49,0 11.79,5.29 11.79,11.78 v 33.36 c 0,6.48 -5.3,11.75 -11.79,11.75 h -174.61 c -6.49,0 -11.77,-5.27 -11.77,-11.75 v -33.36 c 0,-6.49 5.28,-11.78 11.77,-11.78 h 29.43 v -571.95 l -2.07,-3.01 z m -2.45,-37.6 -2.37,1.07 c -22.66,10.24 -22.21,33.64 -16.38,46.86 l 1.07,1.93 369.38,535.84 V 3321 h -5.9 c -19.46,0 -35.31,15.83 -35.31,35.31 v 33.36 c 0,19.47 15.85,35.31 35.31,35.31 h 174.61 c 19.47,0 35.31,-15.84 35.31,-35.31 v -33.36 c 0,-19.48 -15.84,-35.31 -35.31,-35.31 h -3.93 v -536.82 c 29.07,-42.09 348.89,-505.16 365.51,-527.31 9.08,-12.11 9.1,-22.73 7.51,-29.51 -3.76,-16.15 -19.33,-24.43 -21.09,-25.33 l -2.46,-1.25 -2.77,-0.02 -863.18,-6.56"
         style="fill:#51aee5;fill-opacity:1;fill-rule:nonzero;stroke:none"
         id="path204" /><path
         d="m 5830.6581,2671.72 c 0,-6.58 -5.33,-11.94 -11.93,-11.94 -6.59,0 -11.94,5.36 -11.94,11.94 0,6.6 5.35,11.95 11.94,11.95 6.6,0 11.93,-5.35 11.93,-11.95"
         style="fill:#65696d;fill-opacity:1;fill-rule:nonzero;stroke:none"
         id="path206" /><path
         d="m 5840.1881,2760.23 c 0,-8.36 -6.76,-15.11 -15.11,-15.11 -8.35,0 -15.11,6.75 -15.11,15.11 0,8.34 6.76,15.1 15.11,15.1 8.35,0 15.11,-6.76 15.11,-15.1"
         style="fill:#65696d;fill-opacity:1;fill-rule:nonzero;stroke:none"
         id="path208" /><path
         d="m 5837.0881,2970.68 c 0,-10.13 -8.22,-18.36 -18.36,-18.36 -10.13,0 -18.35,8.23 -18.35,18.36 0,10.14 8.22,18.34 18.35,18.34 10.14,0 18.36,-8.2 18.36,-18.34"
         style="fill:#65696d;fill-opacity:1;fill-rule:nonzero;stroke:none"
         id="path210" /><path
         d="m 6195.4081,2263.53 -220.78,315.94 c 0.03,0.37 0.12,0.7 0.12,1.06 0,14 -11.35,25.37 -25.37,25.37 -1.86,0 -3.67,-0.24 -5.43,-0.63 -2.25,8.58 -8.63,15.41 -16.93,18.3 -2.61,10.59 -12.11,18.48 -23.5,18.48 -13.41,0 -24.28,-10.88 -24.28,-24.28 0,-2.67 0.53,-5.19 1.32,-7.6 -2.13,0.69 -4.36,1.16 -6.72,1.16 -2.97,0 -5.77,-0.59 -8.37,-1.66 -3.81,6.34 -10.68,10.64 -18.62,10.64 -2.88,0 -5.62,-0.58 -8.13,-1.62 -3.18,7.95 -10.91,13.59 -19.99,13.59 -11.89,0 -21.53,-9.64 -21.53,-21.54 0,-1.05 0.15,-2.07 0.31,-3.08 -3.47,7.46 -10.97,12.65 -19.72,12.65 -7.06,0 -13.26,-3.42 -17.23,-8.61 -3.91,2.3 -8.4,3.73 -13.27,3.73 -10.19,0 -18.93,-5.9 -23.26,-14.4 -2.16,0.49 -4.37,0.82 -6.68,0.82 -2.01,0 -3.96,-0.23 -5.86,-0.58 -3.94,6.07 -10.77,10.1 -18.55,10.1 -12.24,0 -22.17,-9.93 -22.17,-22.17 0,-2.17 0.41,-4.22 1,-6.21 -29.96,-42.39 -204.31,-289.24 -219.26,-315.53 -16.35,-28.77 15.69,-28.79 15.69,-28.79 0,0 684.7,0.66 712.16,0.02 27.47,-0.66 15.05,24.84 15.05,24.84"
         style="fill:#65696d;fill-opacity:1;fill-rule:nonzero;stroke:none"
         id="path212" /><path
         d="m 5468.1981,2236.42 v 0 c -0.61,0 -15.3,0.1 -20.69,9.38 -3.33,5.72 -2.32,13.38 3.03,22.77 15.22,26.78 195.15,281.47 218.76,314.85 -0.55,2.09 -0.79,3.94 -0.79,5.78 0,13.47 10.95,24.43 24.43,24.43 7.77,0 14.98,-3.67 19.59,-9.9 3.47,0.55 6.71,0.53 10.31,-0.14 5.13,8.75 14.35,14.08 24.45,14.08 4.42,0 8.68,-1.03 12.72,-3.08 4.57,5.1 10.94,7.99 17.78,7.99 6.7,0 13.02,-2.85 17.5,-7.64 1.98,11.13 11.74,19.61 23.44,19.61 9.04,0 17.14,-5.04 21.18,-13.03 9.82,3.03 20.6,-0.8 26.48,-9.1 3.54,1.15 7.14,1.52 11.01,0.88 -0.29,1.52 -0.44,2.99 -0.44,4.47 0,14.63 11.92,26.55 26.56,26.55 11.79,0 22.08,-7.78 25.39,-19.03 7.85,-3.1 13.9,-9.47 16.63,-17.42 16.79,2.54 31.46,-10.82 31.47,-27.34 0,-0.16 -0.01,-0.32 -0.02,-0.47 l 220.28,-315.24 c 0.43,-0.8 6.25,-12.99 1.05,-21.31 -2.95,-4.7 -8.65,-7.09 -16.93,-7.09 v 0 h -1.08 c -7.99,0.2 -72.84,0.3 -192.75,0.3 -211.14,0 -519.36,-0.3 -519.36,-0.3"
         style="fill:#c12f23;fill-opacity:1;fill-rule:nonzero;stroke:none"
         id="path214" /><path
         d="m 7120.7981,2712.46 c 0,15.51 -12.57,28.07 -28.07,28.07 h -423.06 c -15.49,0 -28.06,-12.56 -28.06,-28.07 0,-13.65 9.76,-24.98 22.66,-27.5 v -385.84 c 0,-50.08 40.58,-90.66 90.65,-90.66 h 252.55 c 50.08,0 90.65,40.58 90.65,90.66 v 385.84 c 12.91,2.5 22.68,13.85 22.68,27.5"
         style="fill:#ffffff;fill-opacity:1;fill-rule:nonzero;stroke:none"
         id="path216" /><path
         d="m 6669.6681,2724.33 c -6.55,0 -11.87,-5.33 -11.87,-11.87 0,-5.64 4.03,-10.55 9.57,-11.62 l 13.09,-2.56 v -399.16 c 0,-41.07 33.41,-74.47 74.46,-74.47 h 252.55 c 41.06,0 74.47,33.4 74.47,74.47 v 399.16 l 13.09,2.56 c 5.56,1.07 9.58,5.98 9.58,11.62 0,6.54 -5.32,11.87 -11.88,11.87 z m 337.8,-532.07 h -252.55 c -58.9,0 -106.84,47.95 -106.84,106.86 v 374.75 c -13.66,7.65 -22.66,22.26 -22.66,38.59 0,24.39 19.85,44.26 44.25,44.26 h 423.06 c 24.41,0 44.25,-19.87 44.25,-44.26 0,-16.33 -8.99,-30.96 -22.66,-38.59 v -374.75 c 0,-58.91 -47.93,-106.86 -106.85,-106.86"
         style="fill:#51aee5;fill-opacity:1;fill-rule:nonzero;stroke:none"
         id="path218" /><path
         d="m 7051.1881,2252.17 h -339.96 v 252.54 h 339.96 v -252.54"
         style="fill:#f89e2a;fill-opacity:1;fill-rule:nonzero;stroke:none"
         id="path220" /><path
         d="m 6718.2681,2652.83 c 28.59,0 57.2,0 85.8,0 9.4,0 9.4,14.57 0,14.57 -28.6,0 -57.21,0 -85.8,0 -9.4,0 -9.4,-14.57 0,-14.57 v 0"
         style="fill:#51aee5;fill-opacity:1;fill-rule:nonzero;stroke:none"
         id="path222" /><path
         d="m 6718.2681,2610.74 c 44.79,0 89.57,0 134.37,0 9.39,0 9.39,14.57 0,14.57 -44.8,0 -89.58,0 -134.37,0 -9.4,0 -9.4,-14.57 0,-14.57 v 0"
         style="fill:#51aee5;fill-opacity:1;fill-rule:nonzero;stroke:none"
         id="path224" /><path
         d="m 6718.2681,2562.19 c 63.67,0 127.34,0 191.03,0 9.39,0 9.39,14.55 0,14.55 -63.69,0 -127.36,0 -191.03,0 -9.4,0 -9.4,-14.55 0,-14.55 v 0"
         style="fill:#51aee5;fill-opacity:1;fill-rule:nonzero;stroke:none"
         id="path226" /><path
         d="m 6945.9581,2809.59 c 0,-16.35 -13.26,-29.61 -29.61,-29.61 -16.36,0 -29.61,13.26 -29.61,29.61 0,16.37 13.25,29.63 29.61,29.63 16.35,0 29.61,-13.26 29.61,-29.63"
         style="fill:#51aee5;fill-opacity:1;fill-rule:nonzero;stroke:none"
         id="path228" /><path
         d="m 6811.1181,2911.05 c 0,-27.59 -22.37,-49.94 -49.96,-49.94 -27.58,0 -49.94,22.35 -49.94,49.94 0,27.58 22.36,49.95 49.94,49.95 27.59,0 49.96,-22.37 49.96,-49.95"
         style="fill:#51aee5;fill-opacity:1;fill-rule:nonzero;stroke:none"
         id="path230" /><path
         d="m 6946.5481,3068.61 c 0,-16.68 -13.51,-30.21 -30.2,-30.21 -16.69,0 -30.23,13.53 -30.23,30.21 0,16.7 13.54,30.22 30.23,30.22 16.69,0 30.2,-13.52 30.2,-30.22"
         style="fill:#51aee5;fill-opacity:1;fill-rule:nonzero;stroke:none"
         id="path232" /><path
         d="m 7022.4581,3797.6 v -11.2 l 113.49,-66.67 -1.5,-196.65 -171.03,-97.03 -169.56,99.62 1.49,196.64 120.75,68.49 v 11.12 l -130.37,-73.97 -1.58,-207.79 179.19,-105.26 180.74,102.54 1.57,207.8 -123.19,72.36"
         style="fill:#51aee5;fill-opacity:1;fill-rule:nonzero;stroke:none"
         id="path234" /><path
         d="m 6812.7781,3529.48 h -9.68 v 182.51 h 9.68 v -182.51"
         style="fill:#51aee5;fill-opacity:1;fill-rule:nonzero;stroke:none"
         id="path236" /><path
         d="m 7127.5681,3728.08 -5.06,8.24 211.04,130.11 5.06,-8.24 -211.04,-130.11"
         style="fill:#51aee5;fill-opacity:1;fill-rule:nonzero;stroke:none"
         id="path238" /><path
         d="m 7142.0681,3697.87 -5.06,8.24 211.05,130.1 5.05,-8.23 -211.04,-130.11"
         style="fill:#51aee5;fill-opacity:1;fill-rule:nonzero;stroke:none"
         id="path240" /><path
         d="m 6580.4881,3395.25 -5.06,8.25 211.04,130.1 5.07,-8.23 -211.05,-130.12"
         style="fill:#51aee5;fill-opacity:1;fill-rule:nonzero;stroke:none"
         id="path242" /><path
         d="m 6968.0581,3866.43 -1.53,169.79 9.67,0.05 1.52,-169.79 -9.66,-0.05"
         style="fill:#51aee5;fill-opacity:1;fill-rule:nonzero;stroke:none"
         id="path244" /><path
         d="m 6951.6881,4065.23 c -4.03,-2.01 -12.09,-4.03 -22.42,-4.03 -23.93,0 -41.95,15.12 -41.95,42.95 0,26.59 18.02,44.6 44.34,44.6 10.58,0 17.25,-2.27 20.16,-3.79 l -2.66,-8.94 c -4.16,2.02 -10.07,3.53 -17.13,3.53 -19.89,0 -33.13,-12.72 -33.13,-35.01 0,-20.78 11.97,-34.14 32.64,-34.14 6.66,0 13.46,1.39 17.87,3.53 l 2.28,-8.7"
         style="fill:#51aee5;fill-opacity:1;fill-rule:nonzero;stroke:none"
         id="path246" /><path
         d="m 6976.4181,4147.36 v -35.52 h 41.06 v 35.52 h 11.08 v -84.9 h -11.08 v 39.8 h -41.06 v -39.8 h -10.97 v 84.9 h 10.97"
         style="fill:#51aee5;fill-opacity:1;fill-rule:nonzero;stroke:none"
         id="path248" /><path
         d="m 7042.1881,4037.82 c 1.71,-1.09 5.62,-2.8 9.77,-2.8 7.7,0 10.05,4.91 9.99,8.57 -0.07,6.18 -5.63,8.84 -11.41,8.84 h -3.33 v 4.48 h 3.33 c 4.35,0 9.85,2.24 9.85,7.47 0,3.54 -2.25,6.67 -7.73,6.67 -3.55,0 -6.95,-1.57 -8.85,-2.92 l -1.56,4.34 c 2.31,1.69 6.78,3.4 11.54,3.4 8.71,0 12.65,-5.16 12.65,-10.53 0,-4.55 -2.72,-8.43 -8.15,-10.39 v -0.15 c 5.43,-1.08 9.83,-5.16 9.83,-11.34 0,-7.07 -5.48,-13.26 -16.08,-13.26 -4.96,0 -9.31,1.57 -11.48,3 l 1.63,4.62"
         style="fill:#51aee5;fill-opacity:1;fill-rule:nonzero;stroke:none"
         id="path250" /><path
         d="m 7377.5481,3407.46 169.78,1.53 0.06,-9.67 -169.79,-1.53 -0.05,9.67"
         style="fill:#51aee5;fill-opacity:1;fill-rule:nonzero;stroke:none"
         id="path252" /><path
         d="m 7645.0181,3373.81 c -4.03,-2.02 -12.1,-4.05 -22.41,-4.05 -23.95,0 -41.97,15.14 -41.97,42.97 0,26.58 18.02,44.59 44.35,44.59 10.58,0 17.27,-2.26 20.16,-3.77 l -2.65,-8.96 c -4.16,2.03 -10.08,3.53 -17.14,3.53 -19.9,0 -33.11,-12.71 -33.11,-35.02 0,-20.77 11.96,-34.12 32.62,-34.12 6.67,0 13.47,1.38 17.88,3.52 l 2.27,-8.69"
         style="fill:#51aee5;fill-opacity:1;fill-rule:nonzero;stroke:none"
         id="path254" /><path
         d="m 7669.7481,3455.94 v -35.52 h 41.06 v 35.52 h 11.08 v -84.91 h -11.08 v 39.82 h -41.06 v -39.82 h -10.94 v 84.91 h 10.94"
         style="fill:#51aee5;fill-opacity:1;fill-rule:nonzero;stroke:none"
         id="path256" /><path
         d="m 7735.5181,3346.39 c 1.7,-1.08 5.64,-2.8 9.79,-2.8 7.67,0 10.05,4.91 9.97,8.58 -0.05,6.18 -5.62,8.83 -11.4,8.83 h -3.32 v 4.49 h 3.32 c 4.34,0 9.84,2.24 9.84,7.48 0,3.52 -2.24,6.66 -7.73,6.66 -3.54,0 -6.95,-1.56 -8.83,-2.93 l -1.57,4.34 c 2.3,1.7 6.79,3.4 11.54,3.4 8.7,0 12.65,-5.15 12.65,-10.53 0,-4.56 -2.72,-8.42 -8.16,-10.4 v -0.13 c 5.44,-1.09 9.85,-5.18 9.85,-11.35 0,-7.06 -5.49,-13.25 -16.1,-13.25 -4.96,0 -9.32,1.56 -11.48,3 l 1.63,4.61"
         style="fill:#51aee5;fill-opacity:1;fill-rule:nonzero;stroke:none"
         id="path258" /><path
         d="m 6500.5981,3262.45 c -4.02,-2 -12.08,-4.03 -22.42,-4.03 -23.92,0 -41.94,15.11 -41.94,42.95 0,26.58 18.02,44.61 44.35,44.61 10.57,0 17.24,-2.27 20.14,-3.79 l -2.64,-8.95 c -4.15,2.02 -10.08,3.54 -17.13,3.54 -19.91,0 -33.13,-12.72 -33.13,-35.02 0,-20.78 11.95,-34.13 32.62,-34.13 6.68,0 13.49,1.37 17.89,3.52 l 2.26,-8.7"
         style="fill:#51aee5;fill-opacity:1;fill-rule:nonzero;stroke:none"
         id="path260" /><path
         d="m 6525.3381,3344.59 v -35.53 h 41.06 v 35.53 h 11.09 v -84.9 h -11.09 v 39.8 h -41.06 v -39.8 h -10.97 v 84.9 h 10.97"
         style="fill:#51aee5;fill-opacity:1;fill-rule:nonzero;stroke:none"
         id="path262" /><path
         d="m 6591.0981,3235.04 c 1.7,-1.09 5.65,-2.79 9.79,-2.79 7.67,0 10.05,4.9 9.98,8.56 -0.06,6.18 -5.63,8.84 -11.41,8.84 h -3.33 v 4.48 h 3.33 c 4.35,0 9.85,2.24 9.85,7.47 0,3.54 -2.24,6.66 -7.75,6.66 -3.52,0 -6.93,-1.56 -8.82,-2.91 l -1.56,4.34 c 2.31,1.7 6.79,3.4 11.54,3.4 8.71,0 12.65,-5.16 12.65,-10.53 0,-4.55 -2.71,-8.43 -8.16,-10.39 v -0.14 c 5.45,-1.09 9.86,-5.18 9.86,-11.35 0,-7.07 -5.52,-13.26 -16.11,-13.26 -4.96,0 -9.31,1.56 -11.48,3 l 1.62,4.62"
         style="fill:#51aee5;fill-opacity:1;fill-rule:nonzero;stroke:none"
         id="path264" /><path
         d="m 7380.7581,3876.11 c 0,-16.71 9.04,-31.66 24.93,-31.66 16,0 25.05,14.73 25.05,32.47 0,15.54 -8.11,31.78 -24.93,31.78 -16.7,0 -25.05,-15.43 -25.05,-32.59 z m 60.65,1.27 c 0,-26.9 -16.36,-41.17 -36.3,-41.17 -20.65,0 -35.14,16.01 -35.14,39.67 0,24.81 15.42,41.05 36.3,41.05 21.34,0 35.14,-16.35 35.14,-39.55"
         style="fill:#51aee5;fill-opacity:1;fill-rule:nonzero;stroke:none"
         id="path266" /><path
         d="m 6937.8381,3757.72 v 91.49 h 12.9 l 29.31,-46.29 c 6.8,-10.73 12.09,-20.36 16.43,-29.73 l 0.27,0.13 c -1.09,12.23 -1.36,23.36 -1.36,37.61 v 38.28 h 11.13 v -91.49 h -11.94 l -29.05,46.42 c -6.37,10.18 -12.48,20.63 -17.09,30.55 l -0.42,-0.15 c 0.68,-11.53 0.94,-22.53 0.94,-37.73 v -39.09 h -11.12"
         style="fill:#51aee5;fill-opacity:1;fill-rule:nonzero;stroke:none"
         id="path268" /><path
         d="m 7314.9281,3351.01 -9.78,-5.45 -2.92,-131.6 -172.45,-94.5 -168.07,102.06 4.36,196.61 172.43,94.52 118.67,-72.07 9.69,5.42 -128.12,77.81 -182.22,-99.9 -4.59,-207.75 177.62,-107.86 182.23,99.88 3.15,142.83"
         style="fill:#51aee5;fill-opacity:1;fill-rule:nonzero;stroke:none"
         id="path270" /><path
         d="m 6978.6181,3403.48 -4.7,8.43 159.36,88.93 4.71,-8.43 -159.37,-88.93"
         style="fill:#51aee5;fill-opacity:1;fill-rule:nonzero;stroke:none"
         id="path272" /><path
         d="m 7265.7281,3358.45 0.35,78.95 11.13,-0.07 25.12,-40.05 c 5.82,-9.27 10.35,-17.61 14.05,-25.72 l 0.24,0.12 c -0.88,10.55 -1.07,20.15 -1.01,32.44 l 0.13,33.05 9.61,-0.05 -0.36,-78.95 -10.3,0.06 -24.88,40.16 c -5.47,8.82 -10.7,17.85 -14.64,26.43 l -0.36,-0.13 c 0.55,-9.94 0.74,-19.44 0.68,-32.56 l -0.17,-33.72 -9.59,0.04"
         style="fill:#51aee5;fill-opacity:1;fill-rule:nonzero;stroke:none"
         id="path274" /><path
         d="m 3822.6281,4014.72 c 122.08,0 236.79,-31.43 336.62,-86.52 36.27,-19.6 71.06,-42.61 103.83,-69.02 l 533.81,424.5 -9.68,12.18 c -9,11.31 -7.12,27.76 4.19,36.76 11.3,8.99 27.76,7.12 36.75,-4.19 l 104.22,-131.05 105.36,-132.92 -54.1,-15.61 -533.41,-424.18 c 31.53,-64.5 52.08,-132.48 62.18,-201.47 0.01,-0.06 0.02,-0.1 0.02,-0.17 1.31,-8.87 2.45,-17.74 3.39,-26.64 2.97,-26.1 4.64,-52.6 4.64,-79.48 0,-385.41 -312.43,-697.83 -697.82,-697.83 -385.39,0 -697.81,312.42 -697.81,697.83 0,385.39 312.42,697.81 697.81,697.81"
         style="fill:#ffffff;fill-opacity:1;fill-rule:nonzero;stroke:none"
         id="path276" /><path
         d="m 4492.0581,3420.21 c -9.99,68.29 -30.28,134.03 -60.3,195.43 l -7.26,14.83 546.34,434.47 3.19,2.52 28.56,8.25 -86.31,108.87 -104.21,131.05 c -1.46,1.85 -3.39,2.12 -4.4,2.12 -0.88,0 -2.2,-0.21 -3.48,-1.22 -1.5,-1.19 -1.95,-2.7 -2.08,-3.75 -0.13,-1.06 -0.01,-2.62 1.18,-4.13 l 22.48,-28.27 -562.78,-447.53 -12.81,10.33 c -31.26,25.2 -65.15,47.72 -100.86,67.02 -99.55,54.93 -212.5,83.96 -326.69,83.96 -373.44,0 -677.26,-303.81 -677.26,-677.25 0,-373.45 303.82,-677.26 677.26,-677.26 373.45,0 677.28,303.81 677.28,677.26 0,24.83 -1.52,50.8 -4.53,77.29 -0.88,8.22 -1.93,16.58 -3.24,25.55 z m -1387.8,-103.3 c 0,396.11 322.27,718.36 718.37,718.36 121.11,0 240.93,-30.8 346.39,-88.99 32.89,-17.78 64.45,-38.22 93.98,-60.9 l 505.21,401.75 c -5.71,8.99 -8.16,19.58 -6.94,30.3 1.42,12.41 7.58,23.51 17.34,31.28 8.24,6.54 18.55,10.15 29.06,10.15 14.33,0 27.66,-6.43 36.58,-17.64 l 104.23,-131.08 124.41,-156.93 -79.65,-22.97 -517.46,-411.51 c 27.97,-60.8 47.09,-125.39 56.91,-192.27 l 0.07,-0.46 c 1.4,-9.61 2.54,-18.58 3.48,-27.29 3.16,-27.91 4.77,-55.41 4.77,-81.8 0,-396.11 -322.27,-718.38 -718.38,-718.38 -396.1,0 -718.37,322.27 -718.37,718.38"
         style="fill:#51aee5;fill-opacity:1;fill-rule:nonzero;stroke:none"
         id="path278" /><path
         d="m 3221.3781,3347.73 h 1202.5 c 1.05,-14.53 1.77,-29.16 1.77,-43.94 0,-333.03 -269.99,-603.03 -603.02,-603.03 -190.43,0 -360.14,88.38 -470.65,226.23 -82.75,103.24 -132.36,234.18 -132.36,376.8 0,14.78 0.72,29.41 1.76,43.94"
         style="fill:#8dd141;fill-opacity:1;fill-rule:nonzero;stroke:none"
         id="path280" /><path
         d="m 3243.1981,3324.61 c -0.31,-7.35 -0.46,-14.2 -0.46,-20.82 0,-133.17 44.01,-258.46 127.28,-362.33 110.84,-138.26 275.81,-217.55 452.61,-217.55 319.75,0 579.9,260.11 579.9,579.88 0,6.64 -0.15,13.49 -0.47,20.82 z m 90.74,-412.07 c -89.91,112.17 -137.44,247.46 -137.44,391.25 0,13.79 0.58,28.28 1.82,45.6 l 1.54,21.47 h 1245.54 l 1.54,-21.47 c 1.24,-17.28 1.83,-31.77 1.83,-45.6 0,-345.26 -280.88,-626.13 -626.14,-626.13 -190.91,0 -369.02,85.6 -488.69,234.88"
         style="fill:#51aee5;fill-opacity:1;fill-rule:nonzero;stroke:none"
         id="path282" /><path
         d="m 4874.5881,4270.25 60.4,47.28 57.33,-73.23 57.32,-73.24 -60.41,-47.28 -59.47,-46.55 -57.33,73.23 -57.32,73.24 59.48,46.55"
         style="fill:#845333;fill-opacity:1;fill-rule:nonzero;stroke:none"
         id="path284" /><path
         d="m 4931.4781,4288.68 -87.52,-68.5 89.3,-114.11 87.52,68.51 z m -145.22,-61.46 152.26,119.16 139.97,-178.84 -152.26,-119.17 -139.97,178.85"
         style="fill:#51aee5;fill-opacity:1;fill-rule:nonzero;stroke:none"
         id="path286" /><path
         d="m 3056.8781,2947.56 h 1623.72 v 90.99 h -1623.72 v -90.99"
         style="fill:#65696d;fill-opacity:1;fill-rule:nonzero;stroke:none"
         id="path288" /><path
         d="m 4717.6681,2203.59 -222.48,785.84 -84.87,-24.04 215.69,-761.8 h 91.66"
         style="fill:#65696d;fill-opacity:1;fill-rule:nonzero;stroke:none"
         id="path290" /><path
         d="m 3019.2781,2203.59 215.68,761.8 -84.86,24.04 -222.49,-785.84 h 91.67"
         style="fill:#65696d;fill-opacity:1;fill-rule:nonzero;stroke:none"
         id="path292" /><path
         d="m 3843.5681,2203.59 v 743.97 h -108.04 v -743.97 h 108.04"
         style="fill:#65696d;fill-opacity:1;fill-rule:nonzero;stroke:none"
         id="path294" /></g></g></svg>
