<?xml version="1.0" encoding="UTF-8" standalone="no"?>
<svg
   xmlns:dc="http://purl.org/dc/elements/1.1/"
   xmlns:cc="http://creativecommons.org/ns#"
   xmlns:rdf="http://www.w3.org/1999/02/22-rdf-syntax-ns#"
   xmlns:svg="http://www.w3.org/2000/svg"
   xmlns="http://www.w3.org/2000/svg"
   xmlns:sodipodi="http://sodipodi.sourceforge.net/DTD/sodipodi-0.dtd"
   xmlns:inkscape="http://www.inkscape.org/namespaces/inkscape"
   version="1.1"
   id="svg2"
   xml:space="preserve"
   width="1060.5217"
   height="816.61755"
   viewBox="0 0 1060.5217 816.61755"
   sodipodi:docname="presentation-cover.svg"
   inkscape:version="1.0.1 (3bc2e813f5, 2020-09-07)"
   inkscape:export-filename="C:\Users\keega\OneDrive\Cannlytics\whitepapers\Market Basket Analysis\market-basket-analysis-whitepaper\images\market-basket-analysis-cover.png"
   inkscape:export-xdpi="96"
   inkscape:export-ydpi="96"><metadata
     id="metadata8"><rdf:RDF><cc:Work
         rdf:about=""><dc:format>image/svg+xml</dc:format><dc:type
           rdf:resource="http://purl.org/dc/dcmitype/StillImage" /><dc:title /></cc:Work></rdf:RDF></metadata><defs
     id="defs6"><clipPath
       clipPathUnits="userSpaceOnUse"
       id="clipPath34"><path
         d="M 0,0 H 595.27557 V 841.88977 H 0 Z"
         id="path32" /></clipPath><clipPath
       clipPathUnits="userSpaceOnUse"
       id="clipPath146"><path
         d="M 0,0 H 2058.2578 V 503.0625 H 0 Z"
         id="path144" /></clipPath><clipPath
       clipPathUnits="userSpaceOnUse"
       id="clipPath322"><path
         d="M 0,0 H 239.99994 V 99 H 0 Z"
         id="path320" /></clipPath><clipPath
       clipPathUnits="userSpaceOnUse"
       id="clipPath326"><path
         d="m 3.078,62.719 c 2.352,3.027 8.598,7.32 16.277,4.5 0.278,-0.102 0.547,-0.211 0.809,-0.328 0,0 -0.383,-4.133 -3.625,-7.801 C 13.297,55.422 9.227,53.609 6.914,50.949 4.605,48.285 3.234,45.438 3.234,41.59 -2.602,51.344 0.801,59.789 3.078,62.719"
         id="path324" /></clipPath><linearGradient
       x1="317.0575"
       y1="468.43301"
       x2="580.33899"
       y2="468.43301"
       gradientUnits="userSpaceOnUse"
       gradientTransform="matrix(0.076582,0,0,-0.076582,-24.280891,90.738495)"
       spreadMethod="pad"
       id="linearGradient336"><stop
         style="stop-opacity:1;stop-color:#65b045"
         offset="0"
         id="stop328" /><stop
         style="stop-opacity:1;stop-color:#65b045"
         offset="0.179775"
         id="stop330" /><stop
         style="stop-opacity:1;stop-color:#cddd4d"
         offset="0.663635"
         id="stop332" /><stop
         style="stop-opacity:1;stop-color:#cddd4d"
         offset="1"
         id="stop334" /></linearGradient><clipPath
       clipPathUnits="userSpaceOnUse"
       id="clipPath340"><path
         d="m 3.246,54.098 c 0,7.015 5.688,12.703 12.703,12.703 1.43,0 2.809,-0.235 4.09,-0.672 C 19.77,64.766 18.934,61.801 16.539,59.09 13.297,55.422 9.227,53.609 6.914,50.949 6.09,49.992 5.383,49.016 4.813,47.977 c -1,1.816 -1.567,3.902 -1.567,6.121"
         id="path338" /></clipPath><linearGradient
       x1="359.427"
       y1="435.46701"
       x2="578.745"
       y2="435.46701"
       gradientUnits="userSpaceOnUse"
       gradientTransform="matrix(0.076582,0,0,-0.076582,-24.280891,90.738495)"
       spreadMethod="pad"
       id="linearGradient350"><stop
         style="stop-opacity:1;stop-color:#65b045"
         offset="0"
         id="stop342" /><stop
         style="stop-opacity:1;stop-color:#65b045"
         offset="0.179775"
         id="stop344" /><stop
         style="stop-opacity:1;stop-color:#cddd4d"
         offset="0.663635"
         id="stop346" /><stop
         style="stop-opacity:1;stop-color:#cddd4d"
         offset="1"
         id="stop348" /></linearGradient><clipPath
       clipPathUnits="userSpaceOnUse"
       id="clipPath354"><path
         d="m 2.508,42.883 c 0.172,5.07 3.152,8.832 7.242,11.656 5.906,3.738 9.395,7.414 10.414,12.352 0,0 -0.383,-4.133 -3.625,-7.801 -3.242,-3.668 -7.312,-5.481 -9.625,-8.141 -2.309,-2.664 -3.68,-5.511 -3.68,-9.359 -0.261,0.433 -0.5,0.867 -0.726,1.293"
         id="path352" /></clipPath><linearGradient
       x1="349.82901"
       y1="476.5835"
       x2="580.33899"
       y2="476.5835"
       gradientUnits="userSpaceOnUse"
       gradientTransform="matrix(0.076582,0,0,-0.076582,-24.280891,90.738495)"
       spreadMethod="pad"
       id="linearGradient362"><stop
         style="stop-opacity:1;stop-color:#1b5f2f"
         offset="0"
         id="stop356" /><stop
         style="stop-opacity:1;stop-color:#1b5f2f"
         offset="0.005618"
         id="stop358" /><stop
         style="stop-opacity:1;stop-color:#90c73e"
         offset="1"
         id="stop360" /></linearGradient><clipPath
       clipPathUnits="userSpaceOnUse"
       id="clipPath366"><path
         d="m 8.055,49.672 c 2.152,2.703 5.609,4.027 8.304,6.168 2.922,2.316 4.403,6.324 4.512,9.363 3.43,-7.058 0.285,-12.031 -4.793,-17.262 C 11.273,42.992 7.527,38.477 9.965,31.789 5.824,36.699 3.063,43.406 8.055,49.672"
         id="path364" /></clipPath><linearGradient
       x1="0"
       y1="0"
       x2="1"
       y2="0"
       gradientUnits="userSpaceOnUse"
       gradientTransform="matrix(2.543976,46.976319,-46.976319,2.543976,11.972956,17.656644)"
       spreadMethod="pad"
       id="linearGradient374"><stop
         style="stop-opacity:1;stop-color:#f79c00"
         offset="0"
         id="stop368" /><stop
         style="stop-opacity:1;stop-color:#ff5b00"
         offset="0.542105"
         id="stop370" /><stop
         style="stop-opacity:1;stop-color:#ffae00"
         offset="1"
         id="stop372" /></linearGradient><clipPath
       clipPathUnits="userSpaceOnUse"
       id="clipPath378"><path
         d="m 13.352,42.219 c 1.636,3.043 4.8,4.965 7.07,7.554 2.457,2.801 3.195,7.012 2.762,10.02 4.636,-6.332 2.433,-11.785 -1.625,-17.84 -3.844,-5.73 -6.723,-10.844 -3.125,-16.984 -4.954,4.086 -8.871,10.191 -5.082,17.25"
         id="path376" /></clipPath><linearGradient
       x1="0"
       y1="0"
       x2="1"
       y2="0"
       gradientUnits="userSpaceOnUse"
       gradientTransform="matrix(-5.904882,46.673105,-46.673105,-5.904882,22.937884,11.421335)"
       spreadMethod="pad"
       id="linearGradient386"><stop
         style="stop-opacity:1;stop-color:#f79c00"
         offset="0"
         id="stop380" /><stop
         style="stop-opacity:1;stop-color:#ff5b00"
         offset="0.542105"
         id="stop382" /><stop
         style="stop-opacity:1;stop-color:#ffae00"
         offset="1"
         id="stop384" /></linearGradient><clipPath
       clipPathUnits="userSpaceOnUse"
       id="clipPath390"><path
         d="m 16.785,65.371 c 0.156,1.617 3.266,0.707 1.059,-0.527 -0.094,-0.055 -0.211,-0.078 -0.34,-0.078 -0.356,0 -0.758,0.207 -0.719,0.605"
         id="path388" /></clipPath><radialGradient
       fx="0"
       fy="0"
       cx="0"
       cy="0"
       r="1"
       gradientUnits="userSpaceOnUse"
       gradientTransform="matrix(0.624641,0,0,0.624641,17.892402,65.44396)"
       spreadMethod="pad"
       id="radialGradient396"><stop
         style="stop-opacity:1;stop-color:#ffffff"
         offset="0"
         id="stop392" /><stop
         style="stop-opacity:1;stop-color:#a6ce38"
         offset="1"
         id="stop394" /></radialGradient><clipPath
       clipPathUnits="userSpaceOnUse"
       id="clipPath400"><path
         d="M 0,34.414 H 47.598 V 99 H 0 Z"
         id="path398" /></clipPath><clipPath
       clipPathUnits="userSpaceOnUse"
       id="clipPath404"><path
         d="M 0,0 H 240 V 99 H 0 Z"
         id="path402" /></clipPath><clipPath
       clipPathUnits="userSpaceOnUse"
       id="clipPath408"><path
         d="m 15.352,62.445 c 0.156,1.618 3.265,0.707 1.058,-0.527 -0.094,-0.051 -0.215,-0.078 -0.34,-0.078 -0.355,0 -0.757,0.207 -0.718,0.605"
         id="path406" /></clipPath><radialGradient
       fx="0"
       fy="0"
       cx="0"
       cy="0"
       r="1"
       gradientUnits="userSpaceOnUse"
       gradientTransform="matrix(0.624641,0,0,0.624641,16.458302,62.518395)"
       spreadMethod="pad"
       id="radialGradient414"><stop
         style="stop-opacity:1;stop-color:#ffffff"
         offset="0"
         id="stop410" /><stop
         style="stop-opacity:1;stop-color:#a6ce38"
         offset="1"
         id="stop412" /></radialGradient><clipPath
       clipPathUnits="userSpaceOnUse"
       id="clipPath418"><path
         d="M 0,31.488 H 46.164 V 99 H 0 Z"
         id="path416" /></clipPath><clipPath
       clipPathUnits="userSpaceOnUse"
       id="clipPath422"><path
         d="M 0,0 H 240 V 99 H 0 Z"
         id="path420" /></clipPath><clipPath
       clipPathUnits="userSpaceOnUse"
       id="clipPath426"><path
         d="m 13.457,66.23 c 0.156,1.618 3.266,0.708 1.059,-0.527 -0.09,-0.051 -0.211,-0.078 -0.336,-0.078 -0.356,0 -0.762,0.207 -0.723,0.605"
         id="path424" /></clipPath><radialGradient
       fx="0"
       fy="0"
       cx="0"
       cy="0"
       r="1"
       gradientUnits="userSpaceOnUse"
       gradientTransform="matrix(0.624641,0,0,0.624641,14.56529,66.30442)"
       spreadMethod="pad"
       id="radialGradient432"><stop
         style="stop-opacity:1;stop-color:#ffffff"
         offset="0"
         id="stop428" /><stop
         style="stop-opacity:1;stop-color:#a6ce38"
         offset="1"
         id="stop430" /></radialGradient><clipPath
       clipPathUnits="userSpaceOnUse"
       id="clipPath436"><path
         d="M 0,35.273 H 44.273 V 99 H 0 Z"
         id="path434" /></clipPath><clipPath
       clipPathUnits="userSpaceOnUse"
       id="clipPath440"><path
         d="M 0,0 H 240 V 99 H 0 Z"
         id="path438" /></clipPath><clipPath
       clipPathUnits="userSpaceOnUse"
       id="clipPath444"><path
         d="m 12.367,62.902 c 0.156,1.618 3.266,0.711 1.059,-0.527 -0.09,-0.051 -0.211,-0.078 -0.336,-0.078 -0.356,0 -0.762,0.207 -0.723,0.605"
         id="path442" /></clipPath><radialGradient
       fx="0"
       fy="0"
       cx="0"
       cy="0"
       r="1"
       gradientUnits="userSpaceOnUse"
       gradientTransform="matrix(0.624641,0,0,0.624641,13.475373,62.977307)"
       spreadMethod="pad"
       id="radialGradient450"><stop
         style="stop-opacity:1;stop-color:#ffffff"
         offset="0"
         id="stop446" /><stop
         style="stop-opacity:1;stop-color:#a6ce38"
         offset="1"
         id="stop448" /></radialGradient><clipPath
       clipPathUnits="userSpaceOnUse"
       id="clipPath454"><path
         d="M 0,31.945 H 43.184 V 99 H 0 Z"
         id="path452" /></clipPath><clipPath
       clipPathUnits="userSpaceOnUse"
       id="clipPath458"><path
         d="M 0,0 H 240 V 99 H 0 Z"
         id="path456" /></clipPath><clipPath
       clipPathUnits="userSpaceOnUse"
       id="clipPath462"><path
         d="m 12.828,59.691 c 0.156,1.618 3.266,0.707 1.059,-0.527 -0.094,-0.051 -0.215,-0.078 -0.34,-0.078 -0.356,0 -0.758,0.207 -0.719,0.605"
         id="path460" /></clipPath><radialGradient
       fx="0"
       fy="0"
       cx="0"
       cy="0"
       r="1"
       gradientUnits="userSpaceOnUse"
       gradientTransform="matrix(0.624641,0,0,0.624641,13.934285,59.764922)"
       spreadMethod="pad"
       id="radialGradient468"><stop
         style="stop-opacity:1;stop-color:#ffffff"
         offset="0"
         id="stop464" /><stop
         style="stop-opacity:1;stop-color:#a6ce38"
         offset="1"
         id="stop466" /></radialGradient><clipPath
       clipPathUnits="userSpaceOnUse"
       id="clipPath472"><path
         d="M 0,28.734 H 43.641 V 99 H 0 Z"
         id="path470" /></clipPath><clipPath
       clipPathUnits="userSpaceOnUse"
       id="clipPath476"><path
         d="M 0,0 H 240 V 99 H 0 Z"
         id="path474" /></clipPath><clipPath
       clipPathUnits="userSpaceOnUse"
       id="clipPath480"><path
         d="m 9.441,60.152 c 0.157,1.618 3.266,0.707 1.059,-0.531 -0.09,-0.051 -0.211,-0.074 -0.336,-0.074 -0.355,0 -0.762,0.203 -0.723,0.605"
         id="path478" /></clipPath><radialGradient
       fx="0"
       fy="0"
       cx="0"
       cy="0"
       r="1"
       gradientUnits="userSpaceOnUse"
       gradientTransform="matrix(0.624641,0,0,0.624641,10.549809,60.223834)"
       spreadMethod="pad"
       id="radialGradient486"><stop
         style="stop-opacity:1;stop-color:#ffffff"
         offset="0"
         id="stop482" /><stop
         style="stop-opacity:1;stop-color:#a6ce38"
         offset="1"
         id="stop484" /></radialGradient><clipPath
       clipPathUnits="userSpaceOnUse"
       id="clipPath490"><path
         d="M 0,29.195 H 40.258 V 99 H 0 Z"
         id="path488" /></clipPath><clipPath
       clipPathUnits="userSpaceOnUse"
       id="clipPath494"><path
         d="M 0,0 H 240 V 99 H 0 Z"
         id="path492" /></clipPath><clipPath
       clipPathUnits="userSpaceOnUse"
       id="clipPath498"><path
         d="m 8.695,62.902 c 0.16,1.618 3.266,0.711 1.059,-0.527 -0.09,-0.051 -0.211,-0.078 -0.336,-0.078 -0.355,0 -0.762,0.207 -0.723,0.605"
         id="path496" /></clipPath><radialGradient
       fx="0"
       fy="0"
       cx="0"
       cy="0"
       r="1"
       gradientUnits="userSpaceOnUse"
       gradientTransform="matrix(0.624641,0,0,0.624641,9.804076,62.977307)"
       spreadMethod="pad"
       id="radialGradient504"><stop
         style="stop-opacity:1;stop-color:#ffffff"
         offset="0"
         id="stop500" /><stop
         style="stop-opacity:1;stop-color:#a6ce38"
         offset="1"
         id="stop502" /></radialGradient><clipPath
       clipPathUnits="userSpaceOnUse"
       id="clipPath508"><path
         d="M 0,31.945 H 39.512 V 99 H 0 Z"
         id="path506" /></clipPath><clipPath
       clipPathUnits="userSpaceOnUse"
       id="clipPath512"><path
         d="M 0,0 H 240 V 99 H 0 Z"
         id="path510" /></clipPath><clipPath
       clipPathUnits="userSpaceOnUse"
       id="clipPath516"><path
         d="m 9.156,65.656 c 0.157,1.617 3.266,0.707 1.059,-0.527 -0.094,-0.051 -0.215,-0.078 -0.34,-0.078 -0.355,0 -0.758,0.207 -0.719,0.605"
         id="path514" /></clipPath><radialGradient
       fx="0"
       fy="0"
       cx="0"
       cy="0"
       r="1"
       gradientUnits="userSpaceOnUse"
       gradientTransform="matrix(0.624641,0,0,0.624641,10.262989,65.730779)"
       spreadMethod="pad"
       id="radialGradient522"><stop
         style="stop-opacity:1;stop-color:#ffffff"
         offset="0"
         id="stop518" /><stop
         style="stop-opacity:1;stop-color:#a6ce38"
         offset="1"
         id="stop520" /></radialGradient><clipPath
       clipPathUnits="userSpaceOnUse"
       id="clipPath526"><path
         d="M 0,34.699 H 39.969 V 99 H 0 Z"
         id="path524" /></clipPath><clipPath
       clipPathUnits="userSpaceOnUse"
       id="clipPath530"><path
         d="M 0,0 H 240 V 99 H 0 Z"
         id="path528" /></clipPath><clipPath
       clipPathUnits="userSpaceOnUse"
       id="clipPath534"><path
         d="m 5.426,63.02 c 0.156,1.617 3.265,0.707 1.058,-0.528 -0.089,-0.054 -0.211,-0.078 -0.336,-0.078 -0.355,0 -0.761,0.203 -0.722,0.606"
         id="path532" /></clipPath><radialGradient
       fx="0"
       fy="0"
       cx="0"
       cy="0"
       r="1"
       gradientUnits="userSpaceOnUse"
       gradientTransform="matrix(0.624641,0,0,0.624641,6.534328,63.092035)"
       spreadMethod="pad"
       id="radialGradient540"><stop
         style="stop-opacity:1;stop-color:#ffffff"
         offset="0"
         id="stop536" /><stop
         style="stop-opacity:1;stop-color:#a6ce38"
         offset="1"
         id="stop538" /></radialGradient><clipPath
       clipPathUnits="userSpaceOnUse"
       id="clipPath544"><path
         d="M 0,32.063 H 36.242 V 99.001 H 0 Z"
         id="path542" /></clipPath><clipPath
       clipPathUnits="userSpaceOnUse"
       id="clipPath548"><path
         d="M 0,0 H 240 V 99 H 0 Z"
         id="path546" /></clipPath><clipPath
       clipPathUnits="userSpaceOnUse"
       id="clipPath552"><path
         d="m 5.484,59.691 c 0.157,1.618 3.266,0.707 1.059,-0.527 -0.094,-0.051 -0.211,-0.078 -0.34,-0.078 -0.355,0 -0.758,0.207 -0.719,0.605"
         id="path550" /></clipPath><radialGradient
       fx="0"
       fy="0"
       cx="0"
       cy="0"
       r="1"
       gradientUnits="userSpaceOnUse"
       gradientTransform="matrix(0.624641,0,0,0.624641,6.591692,59.764922)"
       spreadMethod="pad"
       id="radialGradient558"><stop
         style="stop-opacity:1;stop-color:#ffffff"
         offset="0"
         id="stop554" /><stop
         style="stop-opacity:1;stop-color:#a6ce38"
         offset="1"
         id="stop556" /></radialGradient><clipPath
       clipPathUnits="userSpaceOnUse"
       id="clipPath562"><path
         d="M 0,28.734 H 36.297 V 99 H 0 Z"
         id="path560" /></clipPath><clipPath
       clipPathUnits="userSpaceOnUse"
       id="clipPath566"><path
         d="M 0,0 H 240 V 99 H 0 Z"
         id="path564" /></clipPath><clipPath
       clipPathUnits="userSpaceOnUse"
       id="clipPath570"><path
         d="m 8.352,56.938 c 0.156,1.617 3.265,0.707 1.058,-0.528 -0.09,-0.051 -0.211,-0.078 -0.336,-0.078 -0.355,0 -0.761,0.207 -0.722,0.606"
         id="path568" /></clipPath><radialGradient
       fx="0"
       fy="0"
       cx="0"
       cy="0"
       r="1"
       gradientUnits="userSpaceOnUse"
       gradientTransform="matrix(0.624641,0,0,0.624641,9.459893,57.01145)"
       spreadMethod="pad"
       id="radialGradient576"><stop
         style="stop-opacity:1;stop-color:#ffffff"
         offset="0"
         id="stop572" /><stop
         style="stop-opacity:1;stop-color:#a6ce38"
         offset="1"
         id="stop574" /></radialGradient><clipPath
       clipPathUnits="userSpaceOnUse"
       id="clipPath580"><path
         d="M 0,25.98 H 39.168 V 99 H 0 Z"
         id="path578" /></clipPath><clipPath
       clipPathUnits="userSpaceOnUse"
       id="clipPath584"><path
         d="M 0,0 H 240 V 99 H 0 Z"
         id="path582" /></clipPath><clipPath
       clipPathUnits="userSpaceOnUse"
       id="clipPath588"><path
         d="m 1.984,59.406 c 0.157,1.617 3.266,0.707 1.059,-0.531 -0.094,-0.051 -0.211,-0.074 -0.336,-0.074 -0.355,0 -0.762,0.203 -0.723,0.605"
         id="path586" /></clipPath><radialGradient
       fx="0"
       fy="0"
       cx="0"
       cy="0"
       r="1"
       gradientUnits="userSpaceOnUse"
       gradientTransform="matrix(0.624641,0,0,0.624641,3.092487,59.478102)"
       spreadMethod="pad"
       id="radialGradient594"><stop
         style="stop-opacity:1;stop-color:#ffffff"
         offset="0"
         id="stop590" /><stop
         style="stop-opacity:1;stop-color:#a6ce38"
         offset="1"
         id="stop592" /></radialGradient><clipPath
       clipPathUnits="userSpaceOnUse"
       id="clipPath598"><path
         d="M 0,28.449 H 32.801 V 99 H 0 Z"
         id="path596" /></clipPath><clipPath
       clipPathUnits="userSpaceOnUse"
       id="clipPath602"><path
         d="M 0,0 H 240 V 99 H 0 Z"
         id="path600" /></clipPath><clipPath
       clipPathUnits="userSpaceOnUse"
       id="clipPath606"><path
         d="m 4.336,56.02 c 0.156,1.617 3.266,0.707 1.059,-0.528 -0.09,-0.051 -0.211,-0.078 -0.336,-0.078 -0.356,0 -0.762,0.207 -0.723,0.606"
         id="path604" /></clipPath><radialGradient
       fx="0"
       fy="0"
       cx="0"
       cy="0"
       r="1"
       gradientUnits="userSpaceOnUse"
       gradientTransform="matrix(0.624641,0,0,0.624641,5.444412,56.093626)"
       spreadMethod="pad"
       id="radialGradient612"><stop
         style="stop-opacity:1;stop-color:#ffffff"
         offset="0"
         id="stop608" /><stop
         style="stop-opacity:1;stop-color:#a6ce38"
         offset="1"
         id="stop610" /></radialGradient><clipPath
       clipPathUnits="userSpaceOnUse"
       id="clipPath616"><path
         d="M 0,25.063 H 35.152 V 99.001 H 0 Z"
         id="path614" /></clipPath><clipPath
       clipPathUnits="userSpaceOnUse"
       id="clipPath620"><path
         d="M 0,0 H 240 V 99 H 0 Z"
         id="path618" /></clipPath><clipPath
       clipPathUnits="userSpaceOnUse"
       id="clipPath624"><path
         d="m 1.012,55.504 c 0.156,1.617 3.265,0.707 1.054,-0.527 -0.089,-0.051 -0.211,-0.079 -0.336,-0.079 -0.355,0 -0.757,0.207 -0.718,0.606"
         id="path622" /></clipPath><radialGradient
       fx="0"
       fy="0"
       cx="0"
       cy="0"
       r="1"
       gradientUnits="userSpaceOnUse"
       gradientTransform="matrix(0.624641,0,0,0.624641,2.117299,55.57735)"
       spreadMethod="pad"
       id="radialGradient630"><stop
         style="stop-opacity:1;stop-color:#ffffff"
         offset="0"
         id="stop626" /><stop
         style="stop-opacity:1;stop-color:#a6ce38"
         offset="1"
         id="stop628" /></radialGradient><clipPath
       clipPathUnits="userSpaceOnUse"
       id="clipPath634"><path
         d="M 0,24.547 H 31.824 V 99 H 0 Z"
         id="path632" /></clipPath><clipPath
       clipPathUnits="userSpaceOnUse"
       id="clipPath638"><path
         d="M 0,0 H 240 V 99 H 0 Z"
         id="path636" /></clipPath><clipPath
       clipPathUnits="userSpaceOnUse"
       id="clipPath642"><path
         d="m 1.469,52.004 c 0.156,1.617 3.265,0.707 1.058,-0.527 -0.093,-0.051 -0.211,-0.079 -0.339,-0.079 -0.356,0 -0.758,0.207 -0.719,0.606"
         id="path640" /></clipPath><radialGradient
       fx="0"
       fy="0"
       cx="0"
       cy="0"
       r="1"
       gradientUnits="userSpaceOnUse"
       gradientTransform="matrix(0.624641,0,0,0.624641,2.576211,52.078145)"
       spreadMethod="pad"
       id="radialGradient648"><stop
         style="stop-opacity:1;stop-color:#ffffff"
         offset="0"
         id="stop644" /><stop
         style="stop-opacity:1;stop-color:#a6ce38"
         offset="1"
         id="stop646" /></radialGradient><clipPath
       clipPathUnits="userSpaceOnUse"
       id="clipPath652"><path
         d="M 0,21.047 H 32.281 V 97.629 H 0 Z"
         id="path650" /></clipPath><clipPath
       clipPathUnits="userSpaceOnUse"
       id="clipPath656"><path
         d="M 0,0 H 240 V 99 H 0 Z"
         id="path654" /></clipPath><clipPath
       clipPathUnits="userSpaceOnUse"
       id="clipPath660"><path
         d="m 5.141,53.438 c 0.156,1.617 3.265,0.71 1.058,-0.528 -0.094,-0.051 -0.211,-0.078 -0.34,-0.078 -0.355,0 -0.757,0.207 -0.718,0.606"
         id="path658" /></clipPath><radialGradient
       fx="0"
       fy="0"
       cx="0"
       cy="0"
       r="1"
       gradientUnits="userSpaceOnUse"
       gradientTransform="matrix(0.624641,0,0,0.624641,6.247508,53.512245)"
       spreadMethod="pad"
       id="radialGradient666"><stop
         style="stop-opacity:1;stop-color:#ffffff"
         offset="0"
         id="stop662" /><stop
         style="stop-opacity:1;stop-color:#a6ce38"
         offset="1"
         id="stop664" /></radialGradient><clipPath
       clipPathUnits="userSpaceOnUse"
       id="clipPath670"><path
         d="M 0,22.48 H 35.953 V 99 H 0 Z"
         id="path668" /></clipPath><clipPath
       clipPathUnits="userSpaceOnUse"
       id="clipPath674"><path
         d="M 0,0 H 240 V 99 H 0 Z"
         id="path672" /></clipPath><clipPath
       clipPathUnits="userSpaceOnUse"
       id="clipPath678"><path
         d="m 1.41,48.449 c 0.156,1.617 3.266,0.707 1.059,-0.527 -0.09,-0.055 -0.211,-0.078 -0.336,-0.078 -0.356,0 -0.762,0.203 -0.723,0.605"
         id="path676" /></clipPath><radialGradient
       fx="0"
       fy="0"
       cx="0"
       cy="0"
       r="1"
       gradientUnits="userSpaceOnUse"
       gradientTransform="matrix(0.624641,0,0,0.624641,2.518847,48.521576)"
       spreadMethod="pad"
       id="radialGradient684"><stop
         style="stop-opacity:1;stop-color:#ffffff"
         offset="0"
         id="stop680" /><stop
         style="stop-opacity:1;stop-color:#a6ce38"
         offset="1"
         id="stop682" /></radialGradient><clipPath
       clipPathUnits="userSpaceOnUse"
       id="clipPath688"><path
         d="M 0,17.492 H 32.227 V 94.074 H 0 Z"
         id="path686" /></clipPath><clipPath
       clipPathUnits="userSpaceOnUse"
       id="clipPath692"><path
         d="M 0,0 H 240 V 99 H 0 Z"
         id="path690" /></clipPath></defs><sodipodi:namedview
     pagecolor="#ffffff"
     bordercolor="#666666"
     borderopacity="1"
     objecttolerance="10"
     gridtolerance="10"
     guidetolerance="10"
     inkscape:pageopacity="0"
     inkscape:pageshadow="2"
     inkscape:window-width="1920"
     inkscape:window-height="1094"
     id="namedview4"
     showgrid="false"
     inkscape:zoom="0.51626831"
     inkscape:cx="508.48162"
     inkscape:cy="409.14741"
     inkscape:window-x="-11"
     inkscape:window-y="-11"
     inkscape:window-maximized="1"
     inkscape:current-layer="g10"
     inkscape:document-rotation="0" /><g
     id="g10"
     inkscape:groupmode="layer"
     inkscape:label="article"
     transform="matrix(1.3333333,0,0,-1.3333333,124.52176,936.61757)"><rect
       style="fill:#ffffff;fill-opacity:1;stroke-width:2.83465;stop-color:#000000"
       id="rect1469"
       width="612"
       height="792"
       x="-702"
       y="-702"
       transform="matrix(0,-1,-1,0,0,0)" /><g
       id="g12"
       transform="matrix(0,1,1,0,615.65931,162.46338)"><g
         id="g14"><g
           id="g16"><g
             id="g18"><g
               id="g20" /><g
               id="g22"
               transform="translate(-72.003,-709.057)"><g
                 id="g24"><g
                   id="g26"
                   transform="scale(1.0281,0.94078)"><g
                     id="g28"><g
                       id="g30" /><g
                       id="g132"><g
                         clip-path="url(#clipPath34)"
                         id="g130"><g
                           transform="matrix(1,0,0,-1,0,841.88977)"
                           id="g128"><g
                             id="g126"><path
                               d="m 446.375,754.27 18.184,10.265 v -20.93 z"
                               style="fill:#c8e207;fill-opacity:1;fill-rule:nonzero;stroke:none"
                               id="path36" /><path
                               d="M 508.215,732.336 490.031,721.215 V 743 Z"
                               style="fill:#71c210;fill-opacity:1;fill-rule:nonzero;stroke:none"
                               id="path38" /><path
                               d="m 541.879,713.746 v -22.144 l -18.188,11.023"
                               style="fill:#71c210;fill-opacity:1;fill-rule:nonzero;stroke:none"
                               id="path40" /><path
                               d="m 490.867,694.176 18.184,10.504 v -21.125 z"
                               style="fill:#a1d923;fill-opacity:1;fill-rule:nonzero;stroke:none"
                               id="path42" /><path
                               d="m 455.137,714.578 v -21.637 l 18.187,11.016 z"
                               style="fill:#22a242;fill-opacity:1;fill-rule:nonzero;stroke:none"
                               id="path44" /><path
                               d="m 409.25,725.34 18.188,-10.574 v 21.593 z"
                               style="fill:#42b01f;fill-opacity:1;fill-rule:nonzero;stroke:none"
                               id="path46" /><path
                               d="m 395.039,811.734 18.184,-11.445 v 22.328 z"
                               style="fill:#58b219;fill-opacity:1;fill-rule:nonzero;stroke:none"
                               id="path48" /><path
                               d="m 389.066,764.012 18.184,9.324 -18.184,11.445 z"
                               style="fill:#99ce49;fill-opacity:1;fill-rule:nonzero;stroke:none"
                               id="path50" /><path
                               d="m 499.664,661.137 -19.027,11.16 v -22.324 z"
                               style="fill:#2c9b19;fill-opacity:1;fill-rule:nonzero;stroke:none"
                               id="path52" /><path
                               d="m 532.957,672.648 19.023,-11.16 v 21.739 z"
                               style="fill:#18926c;fill-opacity:1;fill-rule:nonzero;stroke:none"
                               id="path54" /><path
                               d="m 559.984,637.719 -19.023,-10.578 v 21.593 z"
                               style="fill:#dae823;fill-opacity:1;fill-rule:nonzero;stroke:none"
                               id="path56" /><path
                               d="m 438.809,826.938 19.027,10.621 v -21.641 z"
                               style="fill:#c9e308;fill-opacity:1;fill-rule:nonzero;stroke:none"
                               id="path58" /><path
                               d="m 568.914,771.57 -19.027,10.5 v -21.121 z"
                               style="fill:#d8e729;fill-opacity:1;fill-rule:nonzero;stroke:none"
                               id="path60" /><path
                               d="M 555.426,722.535 V 744.07 L 536.402,733.605 Z"
                               style="fill:#a3da2f;fill-opacity:1;fill-rule:nonzero;stroke:none"
                               id="path62" /><path
                               d="m 487.609,766.531 v 20.93 l 19.028,-10.465 z"
                               style="fill:#5bc606;fill-opacity:1;fill-rule:nonzero;stroke:none"
                               id="path64" /><path
                               d="m 535.027,751.973 v 21.578 L 516,762.438 Z"
                               style="fill:#4bc218;fill-opacity:1;fill-rule:nonzero;stroke:none"
                               id="path66" /><path
                               d="m 476.496,822.16 v -21.539 l 19.59,10.77 z"
                               style="fill:#dbe836;fill-opacity:1;fill-rule:nonzero;stroke:none"
                               id="path68" /><path
                               d="m 559.008,713.09 19.59,-11.07 v 21.839 z"
                               style="fill:#28b240;fill-opacity:1;fill-rule:nonzero;stroke:none"
                               id="path70" /><path
                               d="m 501.152,824.742 17.075,-10.867 v 21.738 z"
                               style="fill:#98d135;fill-opacity:1;fill-rule:nonzero;stroke:none"
                               id="path72" /><path
                               d="m 456.281,791.84 -17.074,10.82 v -21.687 z"
                               style="fill:#086816;fill-opacity:1;fill-rule:nonzero;stroke:none"
                               id="path74" /><path
                               d="m 567.855,680.559 17.075,10.765 v -21.687 z"
                               style="fill:#dae73d;fill-opacity:1;fill-rule:nonzero;stroke:none"
                               id="path76" /><path
                               d="m 578.598,745.418 v 21.789 l 17.074,-11 z"
                               style="fill:#91cf48;fill-opacity:1;fill-rule:nonzero;stroke:none"
                               id="path78" /><path
                               d="m 571.691,801.281 17.075,11 v -22 z"
                               style="fill:#45b121;fill-opacity:1;fill-rule:nonzero;stroke:none"
                               id="path80" /><path
                               d="m 528.254,796.543 v 21.664 l 17.074,-11.004 z"
                               style="fill:#047a36;fill-opacity:1;fill-rule:nonzero;stroke:none"
                               id="path82" /><path
                               d="m 554.504,832.43 17.074,9.453 v -20.457 z"
                               style="fill:#82cc25;fill-opacity:1;fill-rule:nonzero;stroke:none"
                               id="path84" /><path
                               d="M 48.465,159.578 68.813,154.883 54.691,139.438 Z"
                               style="fill:#c8e207;fill-opacity:1;fill-rule:nonzero;stroke:none"
                               id="path86" /><path
                               d="m 79.309,101.66 -20.926,4.063 14.699,16.078 z"
                               style="fill:#71c210;fill-opacity:1;fill-rule:nonzero;stroke:none"
                               id="path88" /><path
                               d="M 91.609,65.227 76.668,48.887 70.684,69.293"
                               style="fill:#71c210;fill-opacity:1;fill-rule:nonzero;stroke:none"
                               id="path90" /><path
                               d="M 40.754,85.207 61.266,80.688 47.012,65.098 Z"
                               style="fill:#a1d923;fill-opacity:1;fill-rule:nonzero;stroke:none"
                               id="path92" /><path
                               d="M 28.152,124.371 13.551,108.402 34.41,104.262 Z"
                               style="fill:#22a242;fill-opacity:1;fill-rule:nonzero;stroke:none"
                               id="path94" /><path
                               d="m 1.551,163.277 6.281,-20.078 14.574,15.938 z"
                               style="fill:#42b01f;fill-opacity:1;fill-rule:nonzero;stroke:none"
                               id="path96" /><path
                               d="m 12.742,205.438 19.715,-5.387 -5.699,20.715 z"
                               style="fill:#99ce49;fill-opacity:1;fill-rule:nonzero;stroke:none"
                               id="path98" /><path
                               d="M 24.953,54.883 18.445,75.961 3.379,59.484 Z"
                               style="fill:#2c9b19;fill-opacity:1;fill-rule:nonzero;stroke:none"
                               id="path100" /><path
                               d="M 57.293,40.918 63.805,19.84 78.473,35.887 Z"
                               style="fill:#18926c;fill-opacity:1;fill-rule:nonzero;stroke:none"
                               id="path102" /><path
                               d="M 53.672,-3.102 32.492,1.926 47.066,17.867 Z"
                               style="fill:#dae823;fill-opacity:1;fill-rule:nonzero;stroke:none"
                               id="path104" /><path
                               d="m 150.578,89.66 -6.953,20.59 -14.254,-15.59 z"
                               style="fill:#d8e729;fill-opacity:1;fill-rule:nonzero;stroke:none"
                               id="path106" /><path
                               d="m 107.539,62.57 14.531,15.895 -21.101,5.113 z"
                               style="fill:#a3da2f;fill-opacity:1;fill-rule:nonzero;stroke:none"
                               id="path108" /><path
                               d="m 87.172,140.801 14.125,15.449 6.98,-20.562 z"
                               style="fill:#5bc606;fill-opacity:1;fill-rule:nonzero;stroke:none"
                               id="path110" /><path
                               d="m 112.348,98.063 14.558,15.925 -21.539,4.637 z"
                               style="fill:#4bc218;fill-opacity:1;fill-rule:nonzero;stroke:none"
                               id="path112" /><path
                               d="m 103.813,53.184 6.988,-21.387 14.734,16.117 z"
                               style="fill:#28b240;fill-opacity:1;fill-rule:nonzero;stroke:none"
                               id="path114" /><path
                               d="M 81.129,180.621 75.832,200.129 61.195,184.121 Z"
                               style="fill:#086816;fill-opacity:1;fill-rule:nonzero;stroke:none"
                               id="path116" /><path
                               d="M 88.387,23.203 108.254,19.633 93.621,3.625 Z"
                               style="fill:#dae73d;fill-opacity:1;fill-rule:nonzero;stroke:none"
                               id="path118" /><path
                               d="m 140.082,63.824 14.703,16.082 5.18,-19.64 z"
                               style="fill:#91cf48;fill-opacity:1;fill-rule:nonzero;stroke:none"
                               id="path120" /><path
                               d="m 172.68,109.715 20.023,-3.402 -14.848,-16.239 z"
                               style="fill:#45b121;fill-opacity:1;fill-rule:nonzero;stroke:none"
                               id="path122" /><path
                               d="M 28.152,35.133 22.852,15.625 8.215,31.637 Z"
                               style="fill:#086816;fill-opacity:1;fill-rule:nonzero;stroke:none"
                               id="path124" /></g></g></g></g></g></g></g><g
                 id="g134"
                 transform="translate(72.003,709.057)" /></g></g></g></g></g></g></svg>
