<?xml version="1.0" encoding="UTF-8" standalone="no"?>
<svg
   xmlns:dc="http://purl.org/dc/elements/1.1/"
   xmlns:cc="http://creativecommons.org/ns#"
   xmlns:rdf="http://www.w3.org/1999/02/22-rdf-syntax-ns#"
   xmlns:svg="http://www.w3.org/2000/svg"
   xmlns="http://www.w3.org/2000/svg"
   xmlns:sodipodi="http://sodipodi.sourceforge.net/DTD/sodipodi-0.dtd"
   xmlns:inkscape="http://www.inkscape.org/namespaces/inkscape"
   id="money-emoji"
   viewBox="0 0 72 72"
   version="1.1"
   sodipodi:docname="money.svg"
   inkscape:version="1.0.1 (3bc2e813f5, 2020-09-07)">
  <metadata
     id="metadata66">
    <rdf:RDF>
      <cc:Work
         rdf:about="">
        <dc:format>image/svg+xml</dc:format>
        <dc:type
           rdf:resource="http://purl.org/dc/dcmitype/StillImage" />
      </cc:Work>
    </rdf:RDF>
  </metadata>
  <defs
     id="defs64" />
  <sodipodi:namedview
     pagecolor="#ffffff"
     bordercolor="#666666"
     borderopacity="1"
     objecttolerance="10"
     gridtolerance="10"
     guidetolerance="10"
     inkscape:pageopacity="0"
     inkscape:pageshadow="2"
     inkscape:window-width="1920"
     inkscape:window-height="1094"
     id="namedview62"
     showgrid="false"
     inkscape:zoom="10.458333"
     inkscape:cx="36"
     inkscape:cy="36"
     inkscape:window-x="-11"
     inkscape:window-y="-11"
     inkscape:window-maximized="1"
     inkscape:current-layer="money-emoji" />
  <g
     id="color"
     transform="matrix(-1,0,0,1,71.168164,0)">
    <rect
       x="29.144899"
       y="23.3542"
       width="18"
       height="28.581499"
       transform="matrix(0.7071,-0.7071,0.7071,0.7071,-15.4466,37.9985)"
       fill="#ffffff"
       stroke="none"
       id="rect2" />
    <path
       fill="#ffffff"
       stroke="none"
       stroke-linecap="round"
       stroke-miterlimit="10"
       stroke-width="2"
       d="m 13.9792,56.7778 c 0.3645,0.3645 0.8533,0.5189 1.325,0.4674 0,0 8.9017,0.0515 13.9615,-4.8025 C 29.33,52.387 29.39,52.327 29.45,52.2669 c 1.8352,-1.8352 1.8309,-4.8068 0,-6.6377 -1.831,-1.831 -4.8025,-1.8352 -6.6377,0 l -8.8331,8.8331 c -0.6389,0.639 -0.6389,1.6766 0,2.3155 z"
       id="path4" />
    <path
       fill="#ffffff"
       stroke="none"
       stroke-linecap="round"
       stroke-miterlimit="10"
       stroke-width="2"
       d="m 22.1465,53.0191 c 0.12,0.81 -0.36,1.98 -1.31,2.98 -0.29,0.3 -0.59,0.56 -0.9,0.76"
       id="path6" />
    <path
       fill="#ffffff"
       stroke="none"
       stroke-linecap="round"
       stroke-miterlimit="10"
       stroke-width="2"
       d="m 17.9665,55.6591 c -0.08,0.58 -0.36,1.11 -0.8,1.49"
       id="path8" />
    <circle
       cx="34.428101"
       cy="24.1507"
       transform="matrix(0.7071,-0.7071,0.7071,0.7071,-6.9934,31.4179)"
       fill="#5c9e31"
       stroke="none"
       id="ellipse10"
       r="2.3280001" />
    <circle
       cx="52.076698"
       cy="41.361099"
       transform="matrix(0.7071,-0.7071,0.7071,0.7071,-13.9938,48.9382)"
       fill="#5c9e31"
       stroke="none"
       id="ellipse12"
       r="2.3280001" />
    <circle
       cx="24.3188"
       cy="34.259899"
       transform="matrix(0.7071,-0.7071,0.7071,0.7071,-17.1026,27.2305)"
       fill="#5c9e31"
       stroke="none"
       id="ellipse14"
       r="2.3280001" />
    <circle
       cx="41.579601"
       cy="51.520599"
       transform="matrix(0.7071,-0.7071,0.7071,0.7071,-24.2522,44.4912)"
       fill="#5c9e31"
       stroke="none"
       id="ellipse16"
       r="2.3280001" />
    <rect
       x="42.897701"
       y="18.1717"
       width="1.67"
       height="27.3291"
       transform="matrix(-0.7071,0.7071,-0.7071,-0.7071,97.1681,23.4242)"
       fill="#5c9e31"
       stroke="none"
       id="rect18" />
    <rect
       x="31.153"
       y="29.445299"
       width="1.67"
       height="27.3291"
       transform="matrix(-0.7071,0.7071,-0.7071,-0.7071,85.0901,50.9742)"
       fill="#5c9e31"
       stroke="none"
       id="rect20" />
    <rect
       x="27.9561"
       y="19.0196"
       width="1.6895"
       height="18.295"
       transform="matrix(0.7071,0.7071,-0.7071,0.7071,28.3527,-12.1153)"
       fill="#5c9e31"
       stroke="none"
       id="rect22" />
    <rect
       x="46.788399"
       y="37.851898"
       width="1.6895"
       height="18.295"
       transform="matrix(0.7071,0.7071,-0.7071,0.7071,47.185,-19.9159)"
       fill="#5c9e31"
       stroke="none"
       id="rect24" />
    <ellipse
       cx="38.101398"
       cy="37.467602"
       rx="5.7417998"
       ry="9.2770004"
       transform="matrix(0.7071,-0.7071,0.7071,0.7071,-15.334,37.9158)"
       fill="#5c9e31"
       stroke="none"
       id="ellipse26" />
    <path
       fill="#ffffff"
       stroke="none"
       stroke-linecap="round"
       stroke-linejoin="round"
       stroke-miterlimit="10"
       stroke-width="2"
       d="M 47.425,35.1923 35.6923,46.925 c -0.0422,0.0422 -0.0886,0.0725 -0.1392,0.0987 -0.2062,0.1007 -0.4716,0.0578 -0.6501,-0.1206 l -6.2227,-6.2227 c -0.1785,-0.1785 -0.2214,-0.4439 -0.1206,-0.6501 0.0262,-0.0505 0.0565,-0.097 0.0987,-0.1392 L 40.391,28.1583 c 0.0422,-0.0422 0.0887,-0.0725 0.1392,-0.0987 0.2062,-0.1007 0.4716,-0.0578 0.6501,0.1206 l 6.2227,6.2227 c 0.1785,0.1785 0.2214,0.4439 0.1206,0.6501 -0.0262,0.0506 -0.0564,0.0971 -0.0986,0.1393 z"
       id="path28" />
    <path
       fill="#ffffff"
       stroke="none"
       stroke-linecap="round"
       stroke-miterlimit="10"
       stroke-width="2"
       d="m 57.1856,13.5714 c 0.3645,0.3645 0.5189,0.8533 0.4674,1.325 0,0 0.0515,8.9017 -4.8025,13.9615 -0.0557,0.0643 -0.1158,0.1243 -0.1758,0.1844 -1.8352,1.8352 -4.8068,1.8309 -6.6377,0 -1.831,-1.831 -1.8352,-4.8025 0,-6.6377 l 8.8331,-8.8331 c 0.639,-0.639 1.6766,-0.639 2.3155,-10e-5 z"
       id="path30" />
    <path
       fill="#ffffff"
       stroke="none"
       stroke-linecap="round"
       stroke-miterlimit="10"
       stroke-width="2"
       d="m 53.4268,21.7387 c 0.81,0.12 1.98,-0.36 2.98,-1.31 0.3,-0.29 0.56,-0.59 0.76,-0.9"
       id="path32" />
    <path
       fill="#ffffff"
       stroke="none"
       stroke-linecap="round"
       stroke-miterlimit="10"
       stroke-width="2"
       d="m 56.0668,17.5587 c 0.58,-0.08 1.11,-0.36 1.49,-0.8"
       id="path34" />
  </g>
  <g
     id="hair"
     transform="matrix(-1,0,0,1,71.168164,0)" />
  <g
     id="skin"
     transform="matrix(-1,0,0,1,71.168164,0)" />
  <g
     id="skin-shadow"
     transform="matrix(-1,0,0,1,71.168164,0)" />
  <g
     id="line"
     transform="matrix(-1,0,0,1,71.168164,0)">
    <path
       fill="none"
       stroke="#000000"
       stroke-linecap="round"
       stroke-miterlimit="10"
       stroke-width="2"
       d="m 13.9792,56.7778 c 0.3645,0.3645 0.8533,0.5189 1.325,0.4674 0,0 8.9017,0.0515 13.9615,-4.8025 C 29.33,52.387 29.39,52.327 29.45,52.2669 c 1.8352,-1.8352 1.8309,-4.8068 0,-6.6377 -1.831,-1.831 -4.8025,-1.8352 -6.6377,0 l -8.8331,8.8331 c -0.6389,0.639 -0.6389,1.6766 0,2.3155 z"
       id="path40" />
    <line
       x1="17.2365"
       x2="17.2265"
       y1="57.139099"
       y2="57.129101"
       fill="none"
       stroke="#000000"
       stroke-linecap="round"
       stroke-miterlimit="10"
       stroke-width="2"
       id="line42" />
    <path
       fill="none"
       stroke="#000000"
       stroke-linecap="round"
       stroke-miterlimit="10"
       stroke-width="2"
       d="m 22.1465,53.0191 c 0.12,0.81 -0.36,1.98 -1.31,2.98 -0.29,0.3 -0.59,0.56 -0.9,0.76"
       id="path44" />
    <path
       fill="none"
       stroke="#000000"
       stroke-linecap="round"
       stroke-miterlimit="10"
       stroke-width="2"
       d="m 17.9665,55.6591 c -0.08,0.58 -0.36,1.11 -0.8,1.49"
       id="path46" />
    <path
       fill="none"
       stroke="#000000"
       stroke-linecap="round"
       stroke-linejoin="round"
       stroke-miterlimit="10"
       stroke-width="2"
       d="M 41.0551,53.3579 22.4424,34.7451 c -0.3905,-0.3905 -0.3905,-1.0237 0,-1.4142 L 33.6848,22.0885 c 0.3905,-0.3905 1.0237,-0.3905 1.4142,0 l 18.6127,18.6127 c 0.3905,0.3905 0.3905,1.0237 0,1.4142 L 42.4693,53.3579 c -0.3905,0.3905 -1.0237,0.3905 -1.4142,0 z"
       id="path48" />
    <path
       fill="none"
       stroke="#000000"
       stroke-linecap="round"
       stroke-linejoin="round"
       stroke-miterlimit="10"
       stroke-width="2"
       d="M 47.425,35.1923 35.6923,46.925 c -0.0422,0.0422 -0.0886,0.0725 -0.1392,0.0987 -0.2062,0.1007 -0.4716,0.0578 -0.6501,-0.1206 l -6.2227,-6.2227 c -0.1785,-0.1785 -0.2214,-0.4439 -0.1206,-0.6501 0.0262,-0.0505 0.0565,-0.097 0.0987,-0.1392 L 40.391,28.1583 c 0.0422,-0.0422 0.0887,-0.0725 0.1392,-0.0987 0.2062,-0.1007 0.4716,-0.0578 0.6501,0.1206 l 6.2227,6.2227 c 0.1785,0.1785 0.2214,0.4439 0.1206,0.6501 -0.0262,0.0506 -0.0564,0.0971 -0.0986,0.1393 z"
       id="path50" />
    <path
       fill="none"
       stroke="#000000"
       stroke-linecap="round"
       stroke-miterlimit="10"
       stroke-width="2"
       d="m 57.1856,13.5714 c 0.3645,0.3645 0.5189,0.8533 0.4674,1.325 0,0 0.0515,8.9017 -4.8025,13.9615 -0.0557,0.0643 -0.1158,0.1243 -0.1758,0.1844 -1.8352,1.8352 -4.8068,1.8309 -6.6377,0 -1.831,-1.831 -1.8352,-4.8025 0,-6.6377 l 8.8331,-8.8331 c 0.639,-0.639 1.6766,-0.639 2.3155,-10e-5 z"
       id="path52" />
    <line
       x1="57.546799"
       x2="57.5368"
       y1="16.828699"
       y2="16.818701"
       fill="none"
       stroke="#000000"
       stroke-linecap="round"
       stroke-miterlimit="10"
       stroke-width="2"
       id="line54" />
    <path
       fill="none"
       stroke="#000000"
       stroke-linecap="round"
       stroke-miterlimit="10"
       stroke-width="2"
       d="m 53.4268,21.7387 c 0.81,0.12 1.98,-0.36 2.98,-1.31 0.3,-0.29 0.56,-0.59 0.76,-0.9"
       id="path56" />
    <path
       fill="none"
       stroke="#000000"
       stroke-linecap="round"
       stroke-miterlimit="10"
       stroke-width="2"
       d="m 56.0668,17.5587 c 0.58,-0.08 1.11,-0.36 1.49,-0.8"
       id="path58" />
  </g>
</svg>
